<svg version="1.1" xmlns="http://www.w3.org/2000/svg" xmlns:xlink="http://www.w3.org/1999/xlink" width="1560" height="804"><defs/><g><path fill="none" stroke="#02063B" paint-order="fill stroke markers" d=" M 20 446.52262582102105 L 21 448.38367348111376 L 22 450.1931884980336 L 23 451.94916048569667 L 24 453.64963854476565 L 25 455.29273343011465 L 26 456.87661964979645 L 27 458.3995374931788 L 28 459.8597949859976 L 29 461.2557697701542 L 30 462.5859109061686 L 31 463.84874059628584 L 32 465.04285582632184 L 33 466.16692992442336 L 34 467.2197140350114 L 35 468.2000385062704 L 36 469.1068141896403 L 37 469.9390336498704 L 38 470.6957722842876 L 39 471.37618935003786 L 40 471.9795288981585 L 41 472.50512061344347 L 42 472.9523805591691 L 43 473.320811825853 L 44 473.61000508332404 L 45 473.81963903549195 L 46 473.94948077730953 L 47 473.99938605353265 L 48 473.9692994189884 L 49 473.8592543001755 L 50 473.66937295812704 L 51 473.39986635257776 L 52 473.0510339075854 L 53 472.62326317886885 L 54 472.11702942323006 L 55 471.53289507054 L 56 470.8715090988744 L 57 470.13360631349383 L 58 469.32000653046896 L 59 468.4316136658581 L 60 467.4694147314491 L 61 466.43447873818104 L 62 465.32795550846447 L 63 464.1510743987189 L 64 462.9051429335481 L 65 461.59154535306914 L 66 460.2117410750105 L 67 458.7672630732867 L 68 457.2597161748519 L 69 455.69077527672385 L 70 454.0621834851594 L 71 452.3757501790492 L 72 450.6333489996829 L 73 448.83691576911815 L 74 446.9884463394664 L 75 445.0899943754849 L 76 443.1436690729378 L 77 441.15163281526293 L 78 439.1160987711454 L 79 437.03932843566946 L 80 434.92362911777843 L 81 432.77135137683575 L 82 430.584886411134 L 83 428.366663401254 L 84 426.11914681122516 L 85 423.8448336504856 L 86 421.5462506996843 L 87 419.22595170340674 L 88 416.88651453294364 L 89 414.5305383222549 L 90 412.1606405803104 L 91 409.77945428301587 L 92 407.38962494795476 L 93 404.9938076951969 L 94 402.59466429743793 L 95 400.1948602227478 L 96 397.7970616732142 L 97 395.40393262276984 L 98 393.0181318574953 L 99 390.6423100216861 L 100 388.27910667296504 L 101 385.9311473497118 L 102 383.60104065406813 L 103 381.2913753537597 L 104 379.00471750595347 L 105 376.7436076063474 L 106 374.5105577666584 L 107 372.3080489236459 L 108 370.1385280827706 L 109 368.0044055995511 L 110 365.9080525016392 L 111 363.8517978545885 L 112 361.8379261742437 L 113 359.8686748886244 L 114 357.94623185212424 L 115 356.0727329147867 L 116 354.25025954935796 L 117 352.4808365387539 L 118 350.76642972650905 L 119 349.10894383270875 L 120 347.5102203378292 L 121 345.9720354368375 L 122 344.4960980658244 L 123 343.08404800336245 L 124 341.73745404869817 L 125 340.45781227880354 L 126 339.2465443862217 L 127 338.10499609955514 L 128 337.0344356883503 L 129 336.03605255403926 L 130 335.11095590850516 L 131 334.26017354173865 L 132 333.4846506799548 L 133 332.78524893543903 L 134 332.1627453492884 L 135 331.617831528113 L 136 331.1511128756552 L 137 330.7631079201809 L 138 330.45424773839056 L 139 330.2248754764894 L 140 330.07524596894916 L 141 330.0055254553847 L 142 330.0157913958608 L 143 330.106032384833 L 144 330.27614816381947 L 145 330.525949732789 L 146 330.8551595601415 L 147 331.26341189104807 L 148 331.7502531538073 L 149 332.3151424637676 L 150 332.95745222425404 L 151 333.67646882383383 L 152 334.4713934291443 L 153 335.3413428724033 L 154 336.285350632616 L 155 337.30236790938744 L 156 338.391264788149 L 157 339.5508314955019 L 158 340.7797797432862 L 159 342.0767441598791 L 160 343.4402838071342 L 161 344.8688837812757 L 162 346.3609568959689 L 163 347.91484544569715 L 164 349.52882304748664 L 165 351.2010965589318 L 166 352.9298080703915 L 167 354.7130369691419 L 168 356.54880207319286 L 169 358.43506383239765 L 170 360.36972659440977 L 171 362.3506409329701 L 172 364.37560603593715 L 173 366.44237215040744 L 174 368.5486430822095 L 175 370.69207874699447 L 176 372.87029777008917 L 177 375.080880132223 L 178 377.321369858189 L 179 379.5892777454529 L 180 381.8820841296773 L 181 384.19724168408993 L 182 386.5321782495841 L 183 388.8842996924091 L 184 391.250992786274 L 185 393.6296281156635 L 186 396.01756299714026 L 187 398.4121444153882 L 188 400.81071197073396 L 189 403.21060083487316 L 190 405.6091447115164 L 191 408.00367879866656 L 192 410.39154274923555 L 193 412.7700836267119 L 194 415.1366588525953 L 195 417.4886391423227 L 196 419.82341142642554 L 197 422.1383817536709 L 198 424.4309781729632 L 199 426.69865359080285 L 200 428.9388886011278 L 201 431.1491942843951 L 202 433.32711497279024 L 203 435.4702309784949 L 204 437.5761612819798 L 205 439.6425661773369 L 206 441.66714987171224 L 207 443.6476630359504 L 208 445.58190530361776 L 209 447.4677277156279 L 210 449.3030351077528 L 211 451.08578843836733 L 212 452.8140070538416 L 213 454.4857708890631 L 214 456.09922260064525 L 215 457.6525696304508 L 216 459.144086197139 L 217 460.5721152135228 L 218 461.9350701276062 L 219 463.23143668525665 L 220 464.45977461255404 L 221 465.61871921594667 L 222 466.7069828984371 L 223 467.7233565901131 L 224 468.6667110914341 L 225 469.5359983277812 L 226 470.330252513877 L 227 471.0485912267806 L 228 471.690216386267 L 229 472.2544151415007 L 230 472.74056066301887 L 231 473.148112839144 L 232 473.4766188760526 L 233 473.72571380083264 L 234 473.8951208669715 L 235 473.9846518618239 L 236 473.9942073157173 L 237 473.9237766124636 L 238 473.7734380011542 L 239 473.5433585092241 L 240 473.2337937568835 L 241 472.84508767312116 L 242 472.37767211359693 L 243 471.8320663808462 L 244 471.2088766473308 L 245 470.50879528197606 L 246 469.73260008094366 L 247 468.8811534034933 L 248 467.95540121389456 L 249 466.9563720304531 L 250 465.885175782818 L 251 464.74300257884084 L 252 463.5311213823562 L 253 462.2508786033523 L 254 460.90369660209853 L 255 459.49107210889133 L 256 458.01457456117447 L 257 456.4758443598814 L 258 454.87659104693614 L 259 453.21859140593796 L 260 451.50368748814043 L 261 449.7337845659172 L 262 447.9108490159887 L 263 446.0369061347613 L 264 444.11403788820684 L 265 442.1443805987805 L 266 440.1301225719495 L 267 438.0735016649677 L 268 435.97680280059734 L 269 433.8423554285416 L 270 431.67253093740646 L 271 429.46974002006846 L 272 427.23642999537503 L 273 424.9750820891534 L 274 422.6882086775478 L 275 420.37835049574926 L 276 418.04807381521783 L 277 415.6999675925336 L 278 413.3366405930448 L 279 410.9607184925084 L 280 408.5748409599419 L 281 406.18165872493 L 282 403.78383063264175 L 283 401.38402068983214 L 284 398.98489510510825 L 285 396.5891193267497 L 286 394.1993550813738 L 287 391.81825741673504 L 288 389.4484717519455 L 289 387.09263093839206 L 290 384.75335233461726 L 291 382.43323489841214 L 292 380.1348562993528 L 293 377.86077005498805 L 294 375.61350269386116 L 295 373.3955509485147 L 296 371.20937898160105 L 297 369.05741564817686 L 298 366.9420517972255 L 299 364.8656376154037 L 300 362.83048001596535 L 301 360.8388400757614 L 302 358.8929305231651 L 303 356.9949132797125 L 304 355.14689705818984 L 305 353.3509350198363 L 306 351.60902249326494 L 307 349.92309475763614 L 308 348.2950248925464 L 309 346.72662169702204 L 310 345.21962767992784 L 311 343.7757171240258 L 312 342.39649422583295 L 313 341.08349131334614 L 314 339.8381671436128 L 315 338.66190528203975 L 316 337.5560125652409 L 317 336.5217176491308 L 318 335.56016964387794 L 319 334.6724368372337 L 320 333.8595055076562 L 321 333.1222788285465 L 322 332.4615758648155 L 323 331.8781306628963 L 324 331.3725914352126 L 325 330.94551984000907 L 326 330.5973903573445 L 327 330.32858976194086 L 328 330.13941669347287 L 329 330.03008132477737 L 330 330.00070512834935 L 331 330.0513207413848 L 332 330.181871929521 L 333 330.3922136493128 L 334 330.6821122093775 L 335 331.0512455300279 L 336 331.49920350110517 L 337 332.02548843761474 L 338 332.6295156326587 L 339 333.3106140070496 L 340 334.0680268548851 L 341 334.90091268425454 L 342 335.8083461521434 L 343 336.7893190924966 L 344 337.84274163629993 L 345 338.9674434224331 L 346 340.16217489795065 L 347 341.42560870634543 L 348 342.75634116225297 L 349 344.1528938109571 L 350 345.6137150709655 L 351 347.1371819578296 L 352 348.7216018872934 L 353 350.3652145557689 L 354 352.0661938960472 L 355 353.8226501060751 L 356 355.6326317485401 L 357 357.4941279189336 L 358 359.4050704796822 L 359 361.36333635786576 L 360 363.3667499039687 L 361 365.4130853090446 L 362 367.50006907760854 L 363 369.6253825535087 L 364 371.786664495973 L 365 373.9815137029669 L 366 376.2074916789483 L 367 378.46212534405674 L 368 380.74290978172513 L 369 383.0473110216623 L 370 385.3727688551159 L 371 387.71669967928443 L 372 390.07649936772174 L 373 392.4495461635427 L 374 394.833203592217 L 375 397.22482339071354 L 376 399.6217484497431 L 377 402.02131576582815 L 378 404.4208593999218 L 379 406.81771343928824 L 380 409.20921495935323 L 381 411.5927069822358 L 382 413.9655414286723 L 383 416.3250820600542 L 384 418.6687074073108 L 385 420.99381368338334 L 386 423.29781767605357 L 387 425.5781596179139 L 388 427.83230603028994 L 389 430.05775253795633 L 390 432.2520266515181 L 391 434.412690514367 L 392 436.5373436111597 L 393 438.6236254348109 L 394 440.66921810903546 L 395 442.67184896352836 L 396 444.62929305892004 L 397 446.5393756587025 L 398 448.3999746453793 L 399 450.20902287815534 L 400 451.96451048954805 L 401 453.6644871183659 L 402 455.3070640765763 L 403 456.89041644765325 L 404 458.41278511407467 L 405 459.8724787117167 L 406 461.2678755089728 L 407 462.59742520851114 L 408 463.8596506696677 L 409 465.0531495495616 L 410 466.1765958611098 L 411 467.22874144620926 L 412 468.20841736245137 L 413 469.11453518182634 L 414 469.9460881999755 L 415 470.7021525546486 L 416 471.3818882521218 L 417 471.98454010043827 L 418 472.509438548432 L 419 472.9560004296052 L 420 473.3237296100307 L 421 473.6122175395611 L 422 473.8211437057312 L 423 473.95027598985007 L 424 473.99947092488674 L 425 473.96867385486325 L 426 473.8579189955781 L 427 473.66732939659175 L 428 473.3971168045182 L 429 473.0475814277722 L 430 472.61911160303544 L 431 472.11218336381137 L 432 471.527359911548 L 433 470.8652909899163 L 434 470.1267121629399 L 435 469.31244399777717 L 436 468.4233911530646 L 437 467.4605413738333 L 438 466.4249643941163 L 439 465.3178107484654 L 440 464.14031049369737 L 441 462.89377184229124 L 442 461.579579708953 L 443 460.1991941719641 L 444 458.75414885102276 L 445 457.24604920337936 L 446 455.67657074016046 L 447 454.0474571648623 L 448 452.36051843608146 L 449 450.6176287566364 L 450 448.82072449131243 L 451 446.9718020155444 L 452 445.07291549742746 L 453 443.1261746155192 L 454 441.1337422149693 L 455 439.0978319045811 L 456 437.0207055974736 L 457 434.90467099807756 L 458 432.75207903825685 L 459 430.56532126540407 L 460 428.34682718541103 L 461 426.0990615634683 L 462 423.82452168569057 L 463 421.52573458461114 L 464 419.2052542316282 L 465 416.86565869952136 L 466 414.5095472981916 L 467 412.1395376868066 L 468 409.75826296556 L 469 407.368368750275 L 470 404.97251023310395 L 471 402.5733492325875 L 472 400.1735512363525 L 473 397.77578243973323 L 474 395.3827067836069 L 475 392.99698299473255 L 476 390.6212616318842 L 477 388.25818214105834 L 478 385.9103699230276 L 479 383.5804334164985 L 480 381.2709612001153 L 481 378.984519116527 L 482 376.723647421716 L 483 374.49085796275136 L 484 372.28863138710784 L 485 370.1194143866442 L 486 367.9856169793104 L 487 365.88960983159575 L 488 363.83372162470084 L 489 361.8202364673519 L 490 359.85139135813864 L 491 357.929373700189 L 492 356.0563188709478 L 493 354.2343078497531 L 494 352.4653649058528 L 495 350.75145534942317 L 496 349.0944833480943 L 497 347.49628981140376 L 498 345.9586503455305 L 499 344.48327328058275 L 500 343.071797772628 L 501 341.72579198257824 L 502 340.4467513339494 L 503 339.23609685143435 L 504 338.0951735821317 L 505 337.02524910118854 L 506 336.02751210351306 L 507 335.1030710831255 L 508 334.25295310161135 L 509 333.47810264704844 L 510 332.7793805846719 L 511 332.1575632004466 L 512 331.61334133860663 L 513 331.1473196341217 L 514 330.76001584094286 L 515 330.4518602567735 L 516 330.22319524500506 L 517 330.0742748543485 L 518 330.00526453658415 L 519 330.0162409627432 L 520 330.10719193792585 L 521 330.27801641484973 L 522 330.5285246061144 L 523 330.85843819505664 L 524 331.26739064496246 L 525 331.75492760629265 L 526 332.3205074214687 L 527 332.96350172665865 L 528 333.6831961498951 L 529 334.4787911047474 L 530 335.34940267866983 L 531 336.2940636150347 L 532 337.3117243877634 L 533 338.40125436735735 L 534 339.5614430770381 L 535 340.7910015375957 L 536 342.08856369945613 L 537 343.4526879603728 L 538 344.88185876705967 L 539 346.374488298982 L 540 347.92891823243934 L 541 349.54342158297595 L 542 351.216204624075 L 543 352.945408880004 L 544 354.7291131905955 L 545 356.5653358456734 L 546 358.45203678674756 L 547 360.3871198735372 L 548 362.3684352127985 L 549 364.39378154687535 L 550 366.4609086993129 L 551 368.5675200748239 L 552 370.71127521082343 L 553 372.88979237770354 L 554 375.1006512249529 L 555 377.3413954701879 L 556 379.60953562810096 L 557 381.9025517762999 L 558 384.2178963549633 L 559 386.5529969971986 L 560 388.905259386965 L 561 391.2720701413777 L 562 393.65079971420016 L 563 396.0388053172895 L 564 398.4334338567576 L 565 400.83202488057856 L 566 403.2319135343749 L 567 405.6304335220904 L 568 408.0249200682692 L 569 410.41271287864106 L 570 412.79115909573255 L 571 415.15761624621143 L 572 417.50945517669726 L 573 419.8440629747731 L 574 422.15884587195103 L 575 424.4512321253722 L 576 426.7186748750325 L 577 428.9586549733668 L 578 431.16868378404075 L 579 433.3463059468483 L 580 435.48910210563497 L 581 437.5946915962244 L 582 439.6607350913541 L 583 441.6849371996892 L 584 443.665049016019 L 585 445.5988706198113 L 586 447.4842535193403 L 587 449.3191030386799 L 588 451.10138064490576 L 589 452.82910621292126 L 590 454.50036022539416 L 591 456.1132859053547 L 592 457.6660912790915 L 593 459.1570511670478 L 594 460.5845091005116 L 595 461.94687916196426 L 596 463.2426477470497 L 597 464.47037524620004 L 598 465.62869764405445 L 599 466.7163280348908 L 600 467.7320580523892 L 601 468.67475921213634 L 602 469.5433841653812 L 603 470.3369678626484 L 604 471.0546286259156 L 605 471.69556912816546 L 606 472.25907727922225 L 607 472.7445270168902 L 608 473.1513790025132 L 609 473.4791812201853 L 610 473.7275694789434 L 611 473.89626781738673 L 612 473.9850888102722 L 613 473.9939337767453 L 614 473.92279288997537 L 615 473.77174518807357 L 616 473.5409584862803 L 617 473.23068919052184 L 618 472.8412820125404 L 619 472.37316958691724 L 620 471.82687199041186 L 621 471.2029961641524 L 622 470.5022352393188 L 623 469.7253677670689 L 624 468.8732568535613 L 625 467.9468492010375 L 626 466.9471740560275 L 627 465.8753420658493 L 628 464.7325440446694 L 629 463.5200496504998 L 630 462.239205974596 L 631 460.89143604482905 L 632 459.47823724468884 L 633 458.0011796496787 L 634 456.4619042829495 L 635 454.8621212921081 L 636 453.20360804923075 L 637 451.4882071761865 L 638 449.7178244974709 L 639 447.8944269228172 L 640 446.0200402619457 L 641 444.0967469738704 L 642 442.12668385327163 L 643 440.112039656498 L 644 438.05505266984164 L 645 435.95800822278215 L 646 433.8232361489679 L 647 431.6531081977515 L 648 429.4500353991557 L 649 427.2164653852008 L 650 424.9548796705638 L 651 422.66779089559645 L 652 420.35774003475984 L 653 418.0272935735824 L 654 415.6790406572715 L 655 413.3155902141538 L 656 410.9395680571324 L 657 408.55361396638904 L 658 406.16037875656457 L 659 403.7625213316842 L 660 401.3627057310909 L 661 398.9635981696781 L 662 396.56786407570155 L 663 394.17816512946627 L 664 391.79715630617943 L 665 389.4274829262491 L 666 387.07177771631336 L 667 384.7326578842575 L 668 382.41272221147625 L 669 380.1145481656046 L 670 377.8406890369318 L 671 375.59367110167284 L 672 373.37599081525684 L 673 371.1901120387424 L 674 369.03846330144995 L 675 366.9234351028433 L 676 364.8473772566671 L 677 362.81259628028334 L 678 360.8213528321114 L 679 358.875859200019 L 680 356.9782768434507 L 681 355.1307139920302 L 682 353.33522330329845 L 683 351.59379958219546 L 684 349.9083775648144 L 685 348.28082976889505 L 686 346.71296441344015 L 687 345.20652340977 L 688 343.76318042624393 L 689 342.38453902880167 L 690 341.07213089938773 L 691 339.8274141342406 L 692 338.65177162393593 L 693 337.5465095169829 L 694 336.5128557686836 L 695 335.55195877686356 L 696 334.6648861059932 L 697 333.852623301114 L 698 333.1160727928908 L 699 332.4560528950029 L 700 331.873296894992 L 701 331.3684522395723 L 702 330.94207981531326 L 703 330.59465332548905 L 704 330.32655876379056 L 705 330.13809398548347 L 706 330.02946837648835 L 707 330.00080262075124 L 708 330.0521285661628 L 709 330.18338918917505 L 710 330.39443865815497 L 711 330.68504249540473 L 712 331.05487783766824 L 713 331.5035337948348 L 714 332.03051190644186 L 715 332.6352266954679 L 716 333.3170063188032 L 717 334.075093313672 L 718 334.908645439181 L 719 335.8167366120548 L 720 336.7983579355231 L 721 337.8524188202125 L 722 338.9777481958006 L 723 340.1730958120851 L 724 341.4371336280212 L 725 342.7684572871873 L 726 344.16558767803525 L 727 345.62697257719685 L 728 347.15098837401536 L 729 348.7359418743917 L 730 350.38007218193565 L 731 352.0815526543377 L 732 353.83849293278223 L 733 355.6489410421532 L 734 357.5108855596929 L 735 359.42225784971106 L 736 361.3809343618545 L 737 363.3847389903898 L 738 365.4314454918752 L 739 367.518779958534 L 740 369.6444233445865 L 741 371.8060140427273 L 742 374.00115050789213 L 743 376.2273939253923 L 744 378.48227092046 L 745 380.763276306186 L 746 383.06787586680485 L 747 385.3935091732275 L 748 387.7375924277012 L 749 390.0975213344278 L 750 392.4706739929603 L 751 394.8544138111536 L 752 397.24609243444115 L 753 399.6430526881791 L 754 402.042631529788 L 755 404.4421630074166 L 756 406.8389812218342 L 757 409.23042328826915 L 758 411.6138322948934 L 759 413.98656025467545 L 760 416.3459710473138 L 761 418.6894433479904 L 762 421.0143735396818 L 763 423.3181786058015 L 764 425.5982989999505 L 765 427.8522014895961 L 766 430.077381970513 L 767 432.27136824886384 L 768 434.43172278782805 L 769 436.55604541572336 L 770 438.64197599261854 L 771 440.687197032466 L 772 442.68943627785 L 773 444.6464692244816 L 774 446.55612159264285 L 775 448.4162717428276 L 776 450.22485303290244 L 777 451.9798561141614 L 778 453.67933116373047 L 779 455.32139005083525 L 780 456.90420843453137 L 781 458.4260277905611 L 782 459.8851573650885 L 783 461.27997605314187 L 784 462.6089341996732 L 785 463.87055532123884 L 786 465.063437746384 L 787 466.1862561729122 L 788 467.2377631403057 L 789 468.2167904156654 L 790 469.1222502916268 L 791 469.95313679481205 L 792 470.7085268034742 L 793 471.38758107309366 L 794 471.98954516878524 L 795 472.513750303482 L 796 472.95961408096287 L 797 473.32664114289963 L 798 473.61442371920435 L 799 473.822642081065 L 800 473.95106489616705 L 801 473.9995494857055 L 802 473.9680419829021 L 803 473.8565773928519 L 804 473.6652795536323 L 805 473.39436099871784 L 806 473.0441227208538 L 807 472.614953837651 L 808 472.1073311592724 L 809 471.52181865869375 L 810 470.85906684512423 L 811 470.1198120412861 L 812 469.30487556535377 L 813 468.4151628184622 L 814 467.45166227879946 L 815 466.4154444033987 L 816 465.30766043885217 L 817 464.129541142266 L 818 462.8823954138799 L 819 461.56760884286723 L 820 460.18664216793496 L 821 458.7410296544298 L 822 457.2323773897582 L 823 455.66236149900845 L 824 454.03272628276346 L 825 452.345282279167 L 826 450.60190425240216 L 827 448.80452910981217 L 828 446.9551537499802 L 829 445.0558328441596 L 830 443.1086765535159 L 831 441.11584818472187 L 832 439.07956178650414 L 833 437.00207968981897 L 834 434.8857099943819 L 835 432.7328040043517 L 836 430.5457536160104 L 837 428.3269886603487 L 838 426.07897420350184 L 839 423.80420780804246 L 840 421.50521675816657 L 841 419.18455525186124 L 842 416.8448015631692 L 843 414.48855517770426 L 844 412.118433904603 L 845 409.73707096811575 L 846 407.34711208207403 L 847 404.95121251047937 L 848 402.5520341174847 L 849 400.1522424100397 L 850 397.75450357649237 L 851 395.36148152442973 L 852 392.9758349210571 L 853 390.60021423939423 L 854 388.2372588135805 L 855 385.88959390655066 L 856 383.55982779334795 L 857 381.2505488633083 L 858 378.9643227443377 L 859 376.70368945248026 L 860 374.4711605699373 L 861 372.2692164546811 L 862 370.1003034847546 L 863 367.9668313403273 L 864 365.87117032651867 L 865 363.8156487399718 L 866 361.8025502820946 L 867 359.83411152185056 L 868 357.9125194109106 L 869 356.0399088539332 L 870 354.21836033666636 L 871 352.44989761451205 L 872 350.7364854641168 L 873 349.08002750048803 L 874 347.4823640620633 L 875 345.94527016607805 L 876 344.4704535365078 L 877 343.0595527067718 L 878 341.7141351993098 L 879 340.43569578405095 L 880 339.2256548177128 L 881 338.0853566657725 L 882 337.01606820886667 L 883 336.0189774352754 L 884 335.0951921210588 L 885 334.24573859930734 L 886 333.47156061987846 L 887 332.7735183008822 L 888 332.1523871730827 L 889 331.60885731827744 L 890 331.1435326026108 L 891 330.75693000567344 L 892 330.449479046134 L 893 330.22152130454003 L 894 330.0733100438197 L 895 330.00500992790387 L 896 330.0166968387838 L 897 330.10835779220537 L 898 330.27989095209443 L 899 330.53110574369794 L 900 330.861723065314 L 901 331.2713755983757 L 902 331.75960821554565 L 903 332.32587848636604 L 904 332.96955727990303 L 905 333.689929463717 L 906 334.4861946983798 L 907 335.35746832665916 L 908 336.3027823563796 L 909 337.32108653587045 L 910 338.41124952080304 L 911 339.57206013112454 L 912 340.80222869668836 L 913 342.10038849008885 L 914 343.4650972451059 L 915 344.89483875907547 L 916 346.3880245774027 L 917 347.9429957583479 L 918 349.55802471612526 L 919 351.2313171402639 L 920 352.9610139891026 L 921 354.7451935551991 L 922 356.5818736003645 L 923 358.46901355794444 L 924 360.4045167999073 L 925 362.38623296621347 L 926 364.4119603538845 L 927 366.47944836311194 L 928 368.5863999976938 L 929 370.73047441701436 L 930 372.9092895367393 L 931 375.12042467532956 L 932 377.3614232434387 L 933 379.6297954732052 L 934 381.92302118440284 L 935 384.238552584384 L 936 386.5738170986961 L 937 388.926220229235 L 938 391.29314843675195 L 939 393.67197204451895 L 940 396.0600481599194 L 941 398.4547236107255 L 942 400.8533378927927 L 943 403.2532261259031 L 944 405.65172201446796 L 945 408.04616080980577 L 946 410.43388227069823 L 947 412.81223361894087 L 948 415.1785724866023 L 949 417.5302698517151 L 950 419.86471295914254 L 951 422.1793082233694 L 952 424.4714841099986 L 953 426.73869399274525 L 954 428.97841898276124 L 955 431.1881707271398 L 956 433.36549417349767 L 957 435.50797029755677 L 958 437.61321879070215 L 959 439.67890070452216 L 960 441.7027210494017 L 961 443.6824313442725 L 962 445.61583211469616 L 963 447.50077533649574 L 964 449.3351668222311 L 965 451.11696854785674 L 966 452.84420091698405 L 967 454.51494496022775 L 968 456.1273444671987 L 969 457.6796080487679 L 970 459.17001112731464 L 971 460.5968978527457 L 972 461.9586829421601 L 973 463.25385344111027 L 974 464.4809704045073 L 975 465.63867049529983 L 976 466.72566749915455 L 977 467.7407537534498 L 978 468.68280148899805 L 979 469.55076408300835 L 980 470.34367722189165 L 981 471.0606599726218 L 982 471.70091576145853 L 983 472.26373325894866 L 984 472.748487170218 L 985 473.1546389296798 L 986 473.48173729938446 L 987 473.7294188703502 L 988 473.897408466312 L 989 473.98551944944563 L 990 473.99365392772324 L 991 473.92180286367244 L 992 473.770046084417 L 993 473.53855219298845 L 994 473.2275783810062 L 995 472.837470142936 L 996 472.36866089224264 L 997 471.821671479864 L 998 471.1971096155412 L 999 470.49566919264834 L 1000 469.718129517271 L 1001 468.86535444239115 L 1002 467.938291408139 L 1003 466.9379703891791 L 1004 465.8655027504003 L 1005 464.7220800121807 L 1006 463.50897252659746 L 1007 462.22752806605587 L 1008 460.87917032590383 L 1009 459.4653973426931 L 1010 457.9877798298495 L 1011 456.4479594325965 L 1012 454.8476469040754 L 1013 453.1886202046825 L 1014 451.47272252674156 L 1015 449.7018602467017 L 1016 447.87800080713845 L 1017 446.0031705309069 L 1018 444.0794523698819 L 1019 442.1089835907802 L 1020 440.09395340064174 L 1021 438.03660051459946 L 1022 435.93921066865016 L 1023 433.8041140801841 L 1024 431.6336828590915 L 1025 429.4303283723309 L 1026 427.1964985648797 L 1027 424.9346752400487 L 1028 422.64737130217594 L 1029 420.3371279647705 L 1030 418.00651192720306 L 1031 415.6581125230831 L 1032 413.2945388434855 L 1033 410.91841683823066 L 1034 408.53238639843136 L 1035 406.1390984235546 L 1036 403.7412118762468 L 1037 401.3413908282064 L 1038 398.9423015003795 L 1039 396.5466093007636 L 1040 394.1569758631192 L 1041 391.7760560898719 L 1042 389.4064952024959 L 1043 387.0509258026481 L 1044 384.7119649473282 L 1045 382.39221124130563 L 1046 380.09424195005005 L 1047 377.82061013636576 L 1048 375.57384182391945 L 1049 373.35643319080623 L 1050 371.17084779627714 L 1051 369.0195138437017 L 1052 366.9048214828155 L 1053 364.82912015424523 L 1054 362.79471597925846 L 1055 360.80386919764527 L 1056 358.8587916565729 L 1057 356.96164435320657 L 1058 355.1145350338214 L 1059 353.319515852081 L 1060 351.5785810890764 L 1061 349.89366493766545 L 1062 348.266639353566 L 1063 346.6993119755994 L 1064 345.19342411738796 L 1065 343.75064883274274 L 1066 342.3725890568848 L 1067 341.06077582557214 L 1068 339.81666657410716 L 1069 338.6416435181123 L 1070 337.53701211787813 L 1071 336.503999627986 L 1072 335.5437537338187 L 1073 334.65734127647124 L 1074 333.8457470674829 L 1075 333.10987279470237 L 1076 332.45053602050655 L 1077 331.8684692734805 L 1078 331.3643192345731 L 1079 330.93864601862873 L 1080 330.59192255209564 L 1081 330.3245340476001 L 1082 330.13677757597225 L 1083 330.0288617361982 L 1084 330.0009064236645 L 1085 330.05294269695355 L 1086 330.18491274333735 L 1087 330.39666994300757 L 1088 330.68797903197174 L 1089 331.05851636343334 L 1090 331.50787026736606 L 1091 332.0355415078824 L 1092 332.6409438378892 L 1093 333.32340465041284 L 1094 334.08216572587116 L 1095 334.91638407446123 L 1096 335.82513287272866 L 1097 336.80740249327596 L 1098 337.86210162646597 L 1099 338.98805849287737 L 1100 340.18402214516 L 1101 341.4486638578487 L 1102 342.78057860358666 L 1103 344.1782866141243 L 1104 345.6402350243529 L 1105 347.1647995975508 L 1106 348.7502865299231 L 1107 350.3949343324327 L 1108 352.0969157878286 L 1109 353.85433998069976 L 1110 355.66525439829604 L 1111 357.5276470997883 L 1112 359.4394489515501 L 1113 361.3985359259811 L 1114 363.4027314613215 L 1115 365.44980887982837 L 1116 367.5374938616341 L 1117 369.6634669715325 L 1118 371.825366235893 L 1119 374.0207897668313 L 1120 376.24729843072726 L 1121 378.5024185581208 L 1122 380.78364469198146 L 1123 383.0884423712904 L 1124 385.4142509468481 L 1125 387.7584864261747 L 1126 390.11854434435025 L 1127 392.49180265759475 L 1128 394.87562465637916 L 1129 397.2673618948343 L 1130 399.6643571331941 L 1131 402.06394729001164 L 1132 404.463466400863 L 1133 406.86024858025814 L 1134 409.25163098346 L 1135 411.634956764928 L 1136 414.0075780300928 L 1137 416.3668587771927 L 1138 418.7101778258906 L 1139 421.0349317294284 L 1140 423.33853766707574 L 1141 425.6184363136678 L 1142 427.87209468303547 L 1143 430.0970089421721 L 1144 432.2907071930159 L 1145 434.4507522187466 L 1146 436.57474419155466 L 1147 438.6603233388679 L 1148 440.70517256508094 L 1149 442.70702002586563 L 1150 444.6636416522097 L 1151 446.5728636213741 L 1152 448.43256477203045 L 1153 450.2406789608871 L 1154 451.99519735819223 L 1155 453.6941706795584 L 1156 455.3357113516362 L 1157 456.9179956092223 L 1158 458.43926552147707 L 1159 459.8978309450018 L 1160 461.29207140160054 L 1161 462.62043787864593 L 1162 463.88145455004326 L 1163 465.07372041588735 L 1164 466.1959108589837 L 1165 467.24677911651 L 1166 468.2251576651785 L 1167 469.1299595183656 L 1168 469.96017943376205 L 1169 470.7148950302058 L 1170 471.3932678124543 L 1171 471.99454410276076 L 1172 472.5180558782157 L 1173 472.9632215129256 L 1174 473.3295464242048 L 1175 473.6166236220605 L 1176 473.82413416136194 L 1177 473.95184749619136 L 1178 473.99962173598203 L 1179 473.9674038031602 L 1180 473.8552294921145 L 1181 473.6632234294283 L 1182 473.3915989354182 L 1183 473.04065778713357 L 1184 472.6107898830799 L 1185 472.1024728100384 L 1186 471.5162713124628 L 1187 470.85283666504364 L 1188 470.11290594913737 L 1189 469.2973012338621 L 1190 468.40692866277226 L 1191 467.44277744712576 L 1192 466.4059187668627 L 1193 465.29750458051444 L 1194 464.1187663453689 L 1195 462.87101364931107 L 1196 461.55563275586127 L 1197 460.1740850640229 L 1198 458.72790548465775 L 1199 457.2187007351863 L 1200 455.6481475545131 L 1201 454.0179908401539 L 1202 452.3300417096411 L 1203 450.58617548835844 L 1204 448.78832962603684 L 1205 446.93850154423336 L 1206 445.03874641717834 L 1207 443.0911748884619 L 1208 441.09795072608887 L 1209 439.06128841851637 L 1210 436.983450714338 L 1211 434.86674610835354 L 1212 432.71352627680926 L 1213 430.52618346466824 L 1214 428.30714782780535 L 1215 426.0588847330863 L 1216 423.78389201932157 L 1217 421.4846972221486 L 1218 419.16385476592023 L 1219 416.82394312571523 L 1220 414.4675619626333 L 1221 412.0973292355492 L 1222 409.71587829254076 L 1223 407.3258549452148 L 1224 404.9299145291903 L 1225 402.53071895399756 L 1226 400.1309337456774 L 1227 397.7332250853562 L 1228 395.3402568470989 L 1229 392.954687638322 L 1230 390.57916784606095 L 1231 388.2163366923651 L 1232 385.86881930210177 L 1233 383.5392237864227 L 1234 381.23013834512784 L 1235 378.94412839115597 L 1236 376.6837337003892 L 1237 374.4514655899426 L 1238 372.2498041280674 L 1239 370.0811953787769 L 1240 367.9480486842479 L 1241 365.85273398802394 L 1242 363.79757920198534 L 1243 361.7848676200221 L 1244 359.8168353812746 L 1245 357.8956689857662 L 1246 356.02350286518123 L 1247 354.20241701149524 L 1248 352.4344346660877 L 1249 350.7215200719021 L 1250 349.0655762911571 L 1251 347.4684430910282 L 1252 345.9318948996527 L 1253 344.4576388347232 L 1254 343.04731280686724 L 1255 341.7024836999145 L 1256 340.42464563007707 L 1257 339.2152182859723 L 1258 338.0755453513382 L 1259 337.00689301218927 L 1260 336.0104485500744 L 1261 335.08731902299564 L 1262 334.23853003545884 L 1263 333.46502459901853 L 1264 332.7676620845838 L 1265 332.14721726765026 L 1266 331.60437946751847 L 1267 331.1397517814545 L 1268 330.7538504146432 L 1269 330.44710410668074 L 1270 330.219853655241 L 1271 330.07235153744705 L 1272 330.00476162936616 L 1273 330.01715902394267 L 1274 330.10952994756934 L 1275 330.28177177538925 L 1276 330.5336931453134 L 1277 330.8650141706256 L 1278 331.2753667509383 L 1279 331.76429498115596 L 1280 332.33125565798883 L 1281 332.97561888345655 L 1282 333.6966687647095 L 1283 334.49360420939246 L 1284 335.3655398156642 L 1285 336.3115068558866 L 1286 337.33045435288824 L 1287 338.42125024760986 L 1288 339.5826826568305 L 1289 340.8134612195803 L 1290 342.1122185307409 L 1291 343.4775116602456 L 1292 344.9078237561857 L 1293 346.4015657300443 L 1294 347.9570780221889 L 1295 349.57263244565456 L 1296 351.24643410617415 L 1297 352.9766233963196 L 1298 354.7612780615432 L 1299 356.5984153358164 L 1300 358.4859941445005 L 1301 360.42191737199545 L 1302 362.40403419165494 L 1303 364.43014245537114 L 1304 366.4979911401799 L 1305 368.60528284916444 L 1306 370.74967636388436 L 1307 372.9287892454879 L 1308 375.1402004816192 L 1309 377.3814531761861 L 1310 379.65005727898983 L 1311 381.9434923521924 L 1312 384.2592103705417 L 1313 386.59463855225175 L 1314 388.94718221738196 L 1315 391.31422767054954 L 1316 393.6931451047641 L 1317 396.0812915231681 L 1318 398.47601367542603 L 1319 400.8746510055085 L 1320 403.27453860758976 L 1321 405.67301018678313 L 1322 408.067401021415 L 1323 410.4550509235509 L 1324 412.83330719448963 L 1325 415.19952757193107 L 1326 417.55108316555214 L 1327 419.8853613777241 L 1328 422.1997688061326 L 1329 424.49173412506735 L 1330 426.7587109421867 L 1331 428.99818062757913 L 1332 431.2076551119842 L 1333 433.38467965105633 L 1334 435.5268355526068 L 1335 437.6317428637892 L 1336 439.6970630152488 L 1337 441.7205014192913 L 1338 443.6998100191875 L 1339 445.63278978678517 L 1340 447.5172931656459 L 1341 449.3512264569986 L 1342 451.13255214585473 L 1343 452.85929116470646 L 1344 454.52952509228544 L 1345 456.14139828494535 L 1346 457.69311993829575 L 1347 459.182966076803 L 1348 460.60928146913926 L 1349 461.9704814671594 L 1350 463.2650537664565 L 1351 464.49156008654654 L 1352 465.6486377688087 L 1353 466.7350012904099 L 1354 467.7494436925324 L 1355 468.6908379213143 L 1356 469.5581380800159 L 1357 470.35038059101896 L 1358 471.06668526637037 L 1359 471.7062562856776 L 1360 472.268383080272 L 1361 472.7524411226556 L 1362 473.15789262035787 L 1363 473.48428711342603 L 1364 473.7312619748909 L 1365 473.8985428136475 L 1366 473.9859437793066 L 1367 473.99336776867574 L 1368 473.9208065336415 L 1369 473.7683406903336 L 1370 473.5361396295594 L 1371 473.2244613286092 L 1372 472.83365206464214 L 1373 472.3641460299683 L 1374 471.8164648496583 L 1375 471.19121700201305 L 1376 470.48909714254006 L 1377 469.71088533218443 L 1378 468.85744617067553 L 1379 467.92972783594905 L 1380 466.92876103071427 L 1381 465.85565783733387 L 1382 464.7116104822917 L 1383 463.49789001162003 L 1384 462.2158448787557 L 1385 460.86689944639795 L 1386 459.4525524040294 L 1387 457.9743751028609 L 1388 456.4340098100454 L 1389 454.83316788410696 L 1390 453.1736278736067 L 1391 451.45723354116217 L 1392 449.6858918150095 L 1393 447.8615706703922 L 1394 445.9862969431234 L 1395 444.06215407775653 L 1396 442.0912798128585 L 1397 440.0758638059657 L 1398 438.01814520085827 L 1399 435.92041013984976 L 1400 433.7849892238664 L 1401 431.61425492312884 L 1402 429.4106189413206 L 1403 427.17652953616226 L 1404 424.91446879937916 L 1405 422.62694989907567 L 1406 420.31651428758704 L 1407 417.9857288779019 L 1408 415.63718319180276 L 1409 413.2734864828849 L 1410 410.8972648376561 L 1411 408.51115825793033 L 1412 406.1178177277649 L 1413 403.7199022681972 L 1414 401.32007598304745 L 1415 398.92100509907914 L 1416 396.52535500379855 L 1417 394.1357872841889 L 1418 391.7549567696625 L 1419 389.3855085825254 L 1420 387.03007519922363 L 1421 384.6912735256424 L 1422 382.3717019896987 L 1423 380.07393765446903 L 1424 377.8005333550497 L 1425 375.55401486233825 L 1426 373.33687807687784 L 1427 371.1515862558933 L 1428 369.00056727659285 L 1429 366.8862109387741 L 1430 364.81086630973857 L 1431 362.77683911445763 L 1432 360.7863891738947 L 1433 358.8417278943233 L 1434 356.9450158104379 L 1435 355.0983601849813 L 1436 353.30381266755995 L 1437 351.5633670152422 L 1438 349.878956877479 L 1439 348.25245364780295 L 1440 346.685664384696 L 1441 345.1803298039304 L 1442 343.7381223446204 L 1443 342.36064431112953 L 1444 341.0494260928951 L 1445 339.8059244641545 L 1446 338.63152096545633 L 1447 337.52752036875853 L 1448 336.4951492278144 L 1449 335.5355545154623 L 1450 334.6498023493291 L 1451 333.8388768073652 L 1452 333.1036788345249 L 1453 332.44502524180984 L 1454 331.863647798785 L 1455 331.360192420577 L 1456 330.9352184502565 L 1457 330.5891980374038 L 1458 330.3225156135469 L 1459 330.1354674650546 L 1460 330.0282614039601 L 1461 330.00101653708 L 1462 330.0537631336858 L 1463 330.18644259187425 L 1464 330.3989075036749 L 1465 330.6909218188212 L 1466 331.0621611070045 L 1467 331.51221291831865 L 1468 332.04057724149555 L 1469 332.6466670594216 L 1470 333.32980900131804 L 1471 334.0892440908624 L 1472 334.9241285894171 L 1473 335.83353493342906 L 1474 336.8164527649621 L 1475 337.87179005421166 L 1476 338.99837431275984 L 1477 340.19495389621824 L 1478 341.4601993948169 L 1479 342.7927051103886 L 1480 344.1909906181114 L 1481 345.65350241127175 L 1482 347.17861562722504 L 1483 348.7646358526302 L 1484 350.40980100595743 L 1485 352.11228329517394 L 1486 353.87019124843806 L 1487 355.6815718155391 L 1488 357.54441253775076 L 1489 359.456643783692 L 1490 361.4161410487027 L 1491 363.4207273151869 L 1492 365.4681754712954 L 1493 367.556210785268 L 1494 369.6825134326773 L 1495 371.84472107377405 L 1496 374.04043147806385 L 1497 376.267205193208 L 1498 378.5225682552731 L 1499 380.8040149373264 L 1500 383.10901053331713 L 1501 385.43499417415876 L 1502 387.77938167287397 L 1503 390.1395683956465 L 1504 392.5129321555933 L 1505 394.8968361260343 L 1506 397.2886317700291 L 1507 399.6856617829215 L 1508 402.08526304463 L 1509 404.4847695783938 L 1510 406.8815155126963 L 1511 409.27283804306796 L 1512 411.6560803904873 L 1513 414.02859475308213 L 1514 416.3877452478602 L 1515 418.7309108391949 L 1516 421.05548825082053 L 1517 423.35889485809207 L 1518 425.638571557301 L 1519 427.89198560886365 L 1520 430.1166334512134 L 1521 432.3100434822795 L 1522 434.4697788054555 L 1523 436.59343993701395 L 1524 438.6786674719509 L 1525 440.7231447053052 L 1526 442.72460020603484 L 1527 444.6808103405985 L 1528 446.5896017434288 L 1529 448.44885373156 L 1530 450.25650066072296 L 1531 452.0105342202952 L 1532 453.7090056645491 L 1533 455.3500279777238 L 1534 456.9317779705171 L 1535 458.45249830566246 L 1536 459.9104994503458 L 1537 461.30416155328925 L 1538 462.6319362444209 L 1539 463.8923483551257" stroke-linecap="round" stroke-linejoin="round" stroke-miterlimit="10" stroke-width="8"/></g></svg>