<svg version="1.1" xmlns="http://www.w3.org/2000/svg" xmlns:xlink="http://www.w3.org/1999/xlink" width="1560" height="804"><defs/><g><path fill="none" stroke="#02063B" paint-order="fill stroke markers" d=" M 20 516.827138942026 L 21 518.9860133602378 L 22 520.6880598998018 L 23 521.9266321054051 L 24 522.6968933790906 L 25 522.9958358670681 L 26 522.8222922053196 L 27 522.1769400781303 L 28 521.0622995717464 L 29 519.4827233334915 L 30 517.4443795747729 L 31 514.9552279843475 L 32 512.0249886459075 L 33 508.66510408136173 L 34 504.8886945680327 L 35 500.7105069042539 L 36 496.1468568234385 L 37 491.2155652814889 L 38 485.93588886634586 L 39 480.3284446014245 L 40 474.41512943657875 L 41 468.21903474098133 L 42 461.7643561318208 L 43 455.0762989909346 L 44 448.1809800383321 L 45 441.1053253469621 L 46 433.8769651969739 L 47 426.5241261800649 L 48 419.07552097524393 L 49 411.56023622643414 L 50 404.0076189597511 L 51 396.4471619839937 L 52 388.9083887218569 L 53 381.4207379215982 L 54 374.01344869935537 L 55 366.7154463610238 L 56 359.555229449556 L 57 352.56075845876114 L 58 345.7593466481753 L 59 339.1775533853672 L 60 332.8410804321764 L 61 326.7746715798834 L 62 321.00201602523396 L 63 315.5456558646331 L 64 310.4268980677407 L 65 305.6657312742112 L 66 301.28074773848357 L 67 297.2890707274251 L 68 293.7062876543414 L 69 290.5463892104606 L 70 287.82171473158354 L 71 285.54290401324175 L 72 283.7188557625233 L 73 282.3566928488122 L 74 281.461734489136 L 75 281.037475476737 L 76 281.08557253397925 L 77 281.60583784288366 L 78 282.5962397785526 L 79 284.05291084262217 L 80 285.9701627657603 L 81 288.34050872023647 L 82 291.1546925558245 L 83 294.4017249448705 L 84 298.06892629538237 L 85 302.1419762645652 L 86 306.60496967945335 L 87 311.44047864627066 L 88 316.6296206059826 L 89 322.1521320702851 L 90 327.98644775009296 L 91 334.109784767532 L 92 340.49823162258974 L 93 347.12684156701124 L 94 353.9697300208171 L 95 361.0001756510344 L 96 368.19072471793 L 97 375.5132982812769 L 98 382.9393018480147 L 99 390.4397370331333 L 100 397.9853147977456 L 101 405.54656982215766 L 102 413.09397556731153 L 103 420.5980595752883 L 104 428.0295185586257 L 105 435.3593328290285 L 106 442.55887961863033 L 107 449.60004485128945 L 108 456.4553329274547 L 109 463.0979740938932 L 110 469.50202897900374 L 111 475.64248988550816 L 112 481.4953784449735 L 113 487.03783925282806 L 114 492.24822911822696 L 115 497.1062015802492 L 116 501.59278636039215 L 117 505.69046344110313 L 118 509.3832314810731 L 119 512.656670300132 L 120 515.4979971897434 L 121 517.8961168292086 L 122 519.8416646126556 L 123 521.3270432176251 L 124 522.3464522724523 L 125 522.8959110065935 L 126 522.9732737954504 L 127 522.578238538988 L 128 521.7123478414292 L 129 520.3789829874175 L 130 518.5833507381737 L 131 516.3324629992043 L 132 513.6351094389602 L 133 510.50182316537047 L 134 506.9448395942805 L 135 502.97804867041526 L 136 498.6169406274423 L 137 493.87854549894087 L 138 488.78136661648523 L 139 483.34530835453063 L 140 477.5915984042573 L 141 471.5427048798905 L 142 465.22224858119546 L 143 458.6549107547595 L 144 451.86633671425255 L 145 444.8830356960259 L 146 437.73227734111174 L 147 430.4419852078584 L 148 423.0406277310325 L 149 415.55710705319046 L 150 408.0206461624305 L 151 400.4606747772493 L 152 392.90671442412105 L 153 385.38826315656854 L 154 377.93468036589513 L 155 370.5750721333903 L 156 363.3381775717049 L 157 356.2522565992313 L 158 349.34497958572695 L 159 342.6433193001124 L 160 336.17344558238625 L 161 329.9606231509595 L 162 324.02911294447136 L 163 318.4020773833426 L 164 313.1014899210197 L 165 308.1480492381096 L 166 303.56109841447426 L 167 299.3585493949183 L 168 295.55681304342795 L 169 292.1707350590976 L 170 289.21353800399345 L 171 286.69676966933105 L 172 284.6302579815979 L 173 283.02207262471086 L 174 281.87849352807314 L 175 281.2039863435842 L 176 281.0011850073649 L 177 281.2708814542932 L 178 282.0120225255154 L 179 283.221714081009 L 180 284.89523230113736 L 181 287.02604213306455 L 182 289.6058228099966 L 183 292.62450034359796 L 184 296.07028686270013 L 185 299.92972664468664 L 186 304.18774865980157 L 187 308.82772542319833 L 188 313.8315379249124 L 189 319.17964638420716 L 190 324.85116655199954 L 191 330.823951263406 L 192 337.07467692194734 L 193 343.5789345776937 L 194 350.3113252436918 L 195 357.24555907846536 L 196 364.3545580472836 L 197 371.61056166130726 L 198 378.98523538170355 L 199 386.4497812654137 L 200 393.9750504205047 L 201 401.5316568319681 L 202 409.09009211348007 L 203 416.6208407370182 L 204 424.0944952903672 L 205 431.4818713124339 L 206 438.75412125794344 L 207 445.8828471464862 L 208 452.84021145602355 L 209 459.59904582781576 L 210 466.13295715828133 L 211 472.4164306635018 L 212 478.4249295139069 L 213 484.1349906500688 L 214 489.5243164054473 L 215 494.57186157830023 L 216 499.25791561274616 L 217 503.5641795680629 L 218 507.47383757566 L 219 510.9716225046852 L 220 514.0438755798439 L 221 516.6785997186245 L 222 518.8655063796485 L 223 520.5960557392052 L 224 521.8634900390794 L 225 522.6628599754533 L 226 522.9910440258323 L 227 522.8467606385226 L 228 522.2305732370643 L 229 521.1448880200733 L 230 519.5939445650881 L 231 517.58379927311 L 232 515.1223017184866 L 233 512.2190639964923 L 234 508.88542318830144 L 235 505.1343970899295 L 236 500.98063337801796 L 237 496.4403524109705 L 238 491.53128388880043 L 239 486.2725976190318 L 240 480.68482865901115 L 241 474.789797126948 L 242 468.6105229948202 L 243 462.1711361958761 L 244 455.49678239776125 L 245 448.61352480922494 L 246 441.5482424038473 L 247 434.32852495822283 L 248 426.9825653144734 L 249 419.53904928780275 L 250 412.0270436490024 L 251 404.4758826193334 L 252 396.91505332102025 L 253 389.3740806306697 L 254 381.88241188525916 L 255 374.46930189091637 L 256 367.1636986835271 L 257 359.9941304872749 L 258 352.988594312536 L 259 346.1744466281528 L 260 339.57829653500875 L 261 333.2259018580587 L 262 327.14206856257357 L 263 321.35055388737703 L 264 315.8739735733361 L 265 310.7337135493773 L 266 305.9498464208915 L 267 301.54105308663986 L 268 297.52454979024344 L 269 293.91602089112075 L 270 290.7295576173997 L 271 287.97760303997313 L 272 285.67090348257364 L 273 283.8184665576089 L 274 282.42752599162844 L 275 281.503513377776 L 276 281.05003696553473 L 277 281.06886757058976 L 278 281.5599316598315 L 279 282.5213116385002 L 280 283.94925333835295 L 281 285.83818067761 L 282 288.1807174354351 L 283 290.96771605591954 L 284 294.1882933690928 L 285 297.82987308946775 L 286 301.87823492616695 L 287 306.3175701128539 L 288 311.1305431406272 L 289 316.29835945281195 L 290 321.8008388373013 L 291 327.61649422985306 L 292 333.7226156206155 L 293 340.09535873622985 L 294 346.7098381512077 L 295 353.54022446498453 L 296 360.55984516517685 L 297 367.7412887831716 L 298 375.0565119353249 L 299 382.4769488317748 L 300 389.9736228252394 L 301 397.51725956420455 L 302 405.07840130863997 L 303 412.62752196184357 L 304 420.13514236921725 L 305 427.57194543373475 L 306 434.90889059857824 L 307 442.11732724989105 L 308 449.1691065968118 L 309 456.03669159190025 L 310 462.6932644627182 L 311 469.1128314346572 L 312 475.2703242360717 L 313 481.14169798934387 L 314 486.70402510561564 L 315 491.9355848165329 L 316 496.815947993381 L 317 501.326056922395 L 318 505.4482997247244 L 319 509.1665791304428 L 320 512.466375338043 L 321 515.3348027139504 L 322 517.760660110647 L 323 519.7344746069127 L 324 521.2485384993795 L 325 522.2969394009485 L 326 522.8755833285353 L 327 522.9822106899855 L 328 522.6164051077347 L 329 521.7795950447531 L 330 520.475048226429 L 331 518.70785888017 L 332 516.4849278425554 L 333 513.8149356117157 L 334 510.70830845017406 L 335 507.17717767051386 L 336 503.2353322628628 L 337 498.8981650491814 L 338 494.1826125746229 L 339 489.1070889706867 L 340 483.6914140484289 L 341 477.95673590252454 L 342 471.92544832840997 L 343 465.6211033749914 L 344 459.06831937439773 L 345 452.2926848079204 L 346 445.32065838354157 L 347 438.17946571524567 L 348 430.8969930075795 L 349 423.50167816062014 L 350 416.0223997205837 L 351 408.4883641097205 L 352 400.9289915758611 L 353 393.37380130697824 L 354 385.85229615938925 L 355 378.39384744973376 L 356 371.0275802606107 L 357 363.78225970775406 L 358 356.6861786128714 L 359 349.76704702078075 L 360 343.05188399227836 L 361 336.56691209528475 L 362 330.337455006278 L 363 324.3878386218791 L 364 318.7412960667461 L 365 313.4198769687197 L 366 308.44436135549813 L 367 303.83417850907426 L 368 299.60733109480435 L 369 295.78032486138585 L 370 292.36810418626146 L 371 289.38399371814546 L 372 286.8396463445552 L 373 284.7449976875351 L 374 283.10822730526485 L 375 281.93572675106003 L 376 281.23207461449306 L 377 281.00001864209895 L 378 281.24046500748386 L 379 281.9524747727365 L 380 283.13326755496075 L 381 284.77823238361134 L 382 286.88094570623474 L 383 289.43319647230476 L 384 292.4250181971985 L 385 295.8447278811059 L 386 299.6789716308936 L 387 303.9127768067724 L 388 308.52961049013476 L 389 313.51144404424826 L 390 318.83882351569633 L 391 324.49094560164997 L 392 330.44573888632 L 393 336.6799500293635 L 394 343.1692345696804 L 395 349.88825199001263 L 396 356.8107646711221 L 397 363.9097403491323 L 398 371.15745767593995 L 399 378.5256144704866 L 400 385.9854382381695 L 401 393.5077985268175 L 402 401.06332068048346 L 403 408.62250054684705 L 404 416.1558196902981 L 405 423.6338606607958 L 406 431.02742186838196 L 407 438.3076316147647 L 408 445.44606083668236 L 409 452.4148341207871 L 410 459.18673855653753 L 411 465.73533000203224 L 412 472.03503634781777 L 413 478.0612573754287 L 414 483.7904608207146 L 415 489.20027426682765 L 416 494.26957250803196 L 417 498.97856004317947 L 418 503.30884837671886 L 419 507.24352782537653 L 420 510.76723355010853 L 421 513.8662055554677 L 422 516.5283424220918 L 423 518.7432485624868 L 424 520.502274815574 L 425 521.7985522214785 L 426 522.6270188446709 L 427 522.9844395407171 L 428 522.8694185894477 L 429 522.2824051452161 L 430 521.2256914829597 L 431 519.7034040469158 L 432 517.7214873369448 L 433 515.2876806953859 L 434 512.4114880850904 L 435 509.1041409766503 L 436 505.3785544897462 L 437 501.24927695988123 L 438 496.73243312744216 L 439 491.8456611709332 L 440 486.6080438302668 L 441 481.0400338890721 L 442 475.163374307013 L 443 469.0010133139957 L 444 462.57701479782224 L 445 455.9164643352234 L 446 449.0453712332185 L 447 441.9905669633282 L 448 434.77960038525214 L 449 427.44063016916164 L 450 420.00231483669506 L 451 412.4937008500444 L 452 404.9441091861415 L 453 397.38302083887123 L 454 389.8399616964209 L 455 382.34438724331886 L 456 374.9255675373976 L 457 367.61247291084464 L 458 360.4336608416749 L 459 353.4171644373905 L 460 346.5903829662958 L 461 339.9799748639409 L 462 333.6117536325015 L 463 327.5105870396052 L 464 321.70030001023093 L 465 316.2035815908872 L 466 311.0418963493708 L 467 306.23540055608856 L 468 301.8028634742534 L 469 297.7615940663127 L 470 294.12737340282047 L 471 290.91439303769465 L 472 288.1351995905026 L 473 285.80064575218034 L 474 283.9198479055066 L 475 282.5001505258232 L 476 281.5470975010159 L 477 281.0644104827512 L 478 281.0539743535058 L 479 281.51582986614096 L 480 282.44817348476374 L 481 283.8473644274957 L 482 285.70793888364847 L 483 288.0226313497874 L 484 290.78240300136713 L 485 293.97647698914795 L 486 297.59238052256126 L 487 301.61599357569025 L 488 306.0316040256685 L 489 310.8219690081838 L 490 315.96838225049424 L 491 321.4507471190228 L 492 327.2476550962816 L 493 333.33646938067443 L 494 339.6934132827225 L 495 346.29366307252826 L 496 353.11144491590915 L 497 360.1201355206686 L 498 367.2923660999825 L 499 374.6001292469257 L 500 382.0148883027969 L 501 389.5076887921604 L 502 397.0492714894526 L 503 404.6101866756319 L 504 412.16090913870136 L 505 419.6719534690297 L 506 427.1139891992447 L 507 434.4579553390811 L 508 441.67517385792496 L 509 448.7374616719103 L 510 455.6172406982577 L 511 462.28764554709807 L 512 468.7226284302445 L 513 474.8970608772484 L 514 480.7868318615382 L 515 486.36894195346247 L 516 491.6215931325705 L 517 496.5242739084158 L 518 501.05783941748695 L 519 505.20458618349016 L 520 508.94832124904553 L 521 512.2744254088386 L 522 515.1699102973047 L 523 517.6234691079184 L 524 519.6255207460308 L 525 521.1682472428395 L 526 522.2456242843889 L 527 522.8534447363882 L 528 522.9893350729793 L 529 522.6527646453063 L 530 521.8450477536865 L 531 520.5693385152963 L 532 518.8306185474113 L 533 516.635677514297 L 534 513.9930866137156 L 535 510.9131651065819 L 536 507.40794002047033 L 537 503.49109918432964 L 538 499.17793777780383 L 539 494.4852986038828 L 540 489.43150631811733 L 541 484.03629587123123 L 542 478.3207354445609 L 543 472.3071441792585 L 544 466.01900502052285 L 545 459.48087301720153 L 546 452.7182794348501 L 547 445.7576320566868 L 548 438.62611206176416 L 549 431.3515678830464 L 550 423.96240645987467 L 551 416.48748230947706 L 552 408.95598485069587 L 553 401.3973244199322 L 554 393.8410174244113 L 555 386.3165710812442 L 556 378.8533681923764 L 557 371.48055240537485 L 558 364.2269144081081 L 559 357.12077950172613 L 560 350.18989699096574 L 561 343.4613318237091 L 562 336.9613589029418 L 563 330.7153604838187 L 564 324.7477270565009 L 565 319.0817621018134 L 566 313.7395910916517 L 567 308.7420750894868 L 568 304.1087292883593 L 569 299.85764680446823 L 570 296.0054280239391 L 571 292.56711577867156 L 572 289.556136604403 L 573 286.9842483103732 L 574 284.8614940653315 L 575 283.1961631791774 L 576 281.994758733383 L 577 281.26197218659877 L 578 281.00066505460813 L 579 281.21185773616946 L 580 281.89472552838083 L 581 283.04660184712725 L 582 284.6629886400343 L 583 286.73757395126665 L 584 289.26225656958064 L 585 292.2271776633803 L 586 295.6207592792443 L 587 299.42974955358596 L 588 303.63927446089724 L 589 308.2328958964996 L 590 313.1926758669916 L 591 318.4992465377286 L 592 324.13188586380306 L 593 330.0685985091863 L 594 336.28620173804495 L 595 342.7604159428282 L 596 349.46595945561586 L 597 356.37664727249046 L 598 363.46549330541717 L 599 370.70481576234016 L 600 378.06634524398805 L 601 385.52133513527326 L 602 393.04067386020847 L 603 400.59499856198823 L 604 408.1548097643161 L 605 415.6905865662285 L 606 423.172901920581 L 607 430.572537546038 L 608 437.8605980238356 L 609 445.0086236337741 L 610 451.98870148881576 L 611 458.7735745343117 L 612 465.33674798621695 L 613 471.65259279265496 L 614 477.69644571481695 L 615 483.44470563638157 L 616 488.87492572536894 L 617 493.9659010885394 L 618 498.6977515760476 L 619 503.05199941300236 L 620 507.0116413547823 L 621 510.56121508434165 L 622 513.6868595922282 L 623 516.376369303528 L 624 518.6192417403746 L 625 520.4067185339 L 626 521.7318196254776 L 627 522.5893705237024 L 628 522.9760225106687 L 629 522.8902657186417 L 630 522.332435026059 L 631 521.3047087498376 L 632 519.8111001390923 L 633 517.8574417034849 L 634 515.4513624373976 L 635 512.602258028874 L 636 509.3212541696578 L 637 505.6211631096052 L 638 501.5164336251231 L 639 497.02309459700626 L 640 492.15869241800124 L 641 486.94222247451773 L 642 481.3940549700517 L 643 475.53585537997606 L 644 469.3904998483236 L 645 462.9819858569334 L 646 456.3353385157985 L 647 449.4765128405465 L 648 442.4322923986589 L 649 435.2301847202136 L 650 427.8983138815684 L 651 420.46531068144475 L 652 412.96020083827136 L 653 405.412291645375 L 654 397.8510575266272 L 655 390.3060249394497 L 656 382.8066570746302 L 657 375.382238803193 L 658 368.06176231960393 L 659 360.8738139278718 L 660 353.84646241264284 L 661 347.0071494311972 L 662 340.38258235436484 L 663 333.9986299748137 L 664 327.88022148996816 L 665 322.0512491540263 L 666 316.5344749792189 L 667 311.3514418506384 L 668 306.5223894017341 L 669 302.06617497897616 L 670 298.0002000043217 L 671 294.340342023034 L 672 291.1008927022083 L 673 288.2945020221176 L 674 285.9321288783104 L 675 284.02299828735784 L 676 282.57456536336196 L 677 281.59248620589415 L 678 281.0805958130477 L 679 281.04089310585204 L 680 281.47353312252915 L 681 282.3768264130725 L 682 283.7472456365131 L 683 285.5794393351108 L 684 287.8662528316818 L 685 290.5987561684602 L 686 293.76627897839217 L 687 297.35645215269034 L 688 301.3552561419396 L 689 305.7470757021371 L 690 310.5147608718861 L 691 315.6396939426281 L 692 321.10186216039654 L 693 326.87993587519236 L 694 332.9513518328113 L 695 339.2924012838684 L 696 345.87832256595686 L 697 352.6833977974103 L 698 359.6810533050798 L 699 366.84396339395903 L 700 374.14415705343873 L 701 381.5531271835042 L 702 389.04194191435096 L 703 396.5813575847172 L 704 404.14193293775503 L 705 411.6941440885088 L 706 419.2084998140534 L 707 426.6556567160896 L 708 434.0065338062853 L 709 441.23242606691366 L 710 448.3051165433324 L 711 455.19698653058816 L 712 461.881123423868 L 713 468.33142581164554 L 714 474.5227054011343 L 715 480.4307853780319 L 716 486.0325948164626 L 717 491.30625877044923 L 718 496.23118369510894 L 719 500.78813786400525 L 720 504.9593264686283 L 721 508.7284611067414 L 722 512.080823388243 L 723 515.0033224101649 L 724 517.4845458763685 L 725 519.5148046623171 L 726 521.0861706508996 L 727 522.1925076915579 L 728 522.8294955618243 L 729 522.9946468376968 L 730 522.6873166069776 L 731 521.9087049876406 L 732 520.661852441397 L 733 518.9516279007568 L 734 516.7847097559522 L 735 514.1695597759663 L 736 511.1163900655059 L 737 507.6371231869522 L 738 503.7453456030088 L 739 499.4562546218562 L 740 494.78659905198845 L 741 489.7546137984743 L 742 484.3799486560432 L 743 478.68359157705754 L 744 472.68778671400753 L 745 466.415947556572 L 746 459.8925655024421 L 747 453.1431142189375 L 748 446.19395016888075 L 749 439.07220968917386 L 750 431.80570302398337 L 751 424.4228057263322 L 752 416.9523478521721 L 753 409.4235013796325 L 754 401.8656662930699 L 755 394.30835577675805 L 756 386.7810809665353 L 757 379.3132357094503 L 758 371.93398178141865 L 759 364.6721350111118 L 760 357.55605275476285 L 761 350.6135231612973 L 762 343.87165666020604 L 763 337.3567800958986 L 764 331.094333921939 L 765 325.1087728566189 L 766 319.42347038780616 L 767 314.06062749997494 L 768 309.0411859798363 L 769 304.3847466391094 L 770 300.10949277377097 L 771 296.23211915867387 L 772 292.76776685480854 L 773 289.7299640837838 L 774 287.13057340041075 L 775 284.97974536968064 L 776 283.2858789290253 L 777 282.0555885906463 L 778 281.2936786119867 L 779 281.0031242352081 L 780 281.1850600689338 L 781 281.8387756576267 L 782 282.96171825590255 L 783 284.54950279694623 L 784 286.5959290161039 L 785 289.0930056627837 L 786 292.03098170611827 L 787 295.39838441253164 L 788 299.18206414651837 L 789 303.3672457196887 L 790 307.9375860875632 L 791 312.8752381688114 L 792 318.16092053772286 L 793 323.77399271776153 L 794 329.6925357821853 L 795 335.89343794698556 L 796 342.35248482190934 L 797 349.04445396713487 L 798 355.94321338635956 L 799 363.0218235716861 L 800 370.25264270182464 L 801 377.6074345828127 L 802 385.0574789097492 L 803 392.5736834189698 L 804 400.12669749271424 L 805 407.6870267726606 L 806 415.2251483347632 L 807 422.71162597563944 L 808 430.11722516031364 L 809 437.413027182451 L 810 444.5705420912867 L 811 451.561819944274 L 812 458.35955995101165 L 813 464.9372170822464 L 814 471.2691057276439 L 815 477.3304999975475 L 816 483.09773027704836 L 817 488.5482756553248 L 818 493.6608518693175 L 819 498.4154944183209 L 820 502.7936365249315 L 821 506.778181637916 L 822 510.35357019387834 L 823 513.5058403770215 L 824 516.2226826397394 L 825 518.4934877711372 L 826 520.3093883257725 L 827 521.6632932508401 L 828 522.5499155765813 L 829 522.965793061788 L 830 522.9093017137803 L 831 522.3806621300635 L 832 521.3819386368987 L 833 519.9170312281541 L 834 517.9916603359113 L 835 515.6133444923014 L 836 512.7913709697971 L 837 509.536759514613 L 838 505.8622193148324 L 839 501.7820993712994 L 840 497.31233246507827 L 841 492.4703729402838 L 842 487.2751285452414 L 843 481.74688659813455 L 844 475.9072347654611 L 845 469.7789767626581 L 846 463.3860433060804 L 847 456.75339866406597 L 848 449.90694317200195 L 849 442.8734120920693 L 850 435.68027121261633 L 851 428.3556095948425 L 852 420.9280298856161 L 853 413.42653662475004 L 854 405.8804229828944 L 855 398.3191563723324 L 856 390.7722633773657 L 857 383.2692144536345 L 858 375.83930884661936 L 859 368.51156017871426 L 860 361.31458315165196 L 861 354.2764818067065 L 862 347.4247397790131 L 863 340.78611297456126 L 864 334.38652508895444 L 865 328.25096637593344 L 866 322.4033960609705 L 867 316.8666487810064 L 868 311.66234541568184 L 869 306.81080865826533 L 870 302.3309836559707 L 871 298.24036402956284 L 872 294.55492356114274 L 873 291.2890538168704 L 874 288.455507948207 L 875 286.0653508911312 L 876 284.12791615780105 L 877 282.65076938938876 L 878 281.63967881241365 L 879 281.09859271394134 L 880 281.02962402360697 L 881 281.43304206267044 L 882 282.30727149232234 L 883 283.64889846534857 L 884 285.4526839571306 L 885 287.71158422392443 L 886 290.416778308529 L 887 293.5577024859357 L 888 297.12209151444813 L 889 301.0960265311886 L 890 305.46398940495976 L 891 310.2089233342148 L 892 315.3122994535025 L 893 320.75418918829024 L 894 326.51334207562127 L 895 332.56726874671756 L 896 338.89232874748365 L 897 345.4638228539742 L 898 352.25608952233455 L 899 359.24260509658063 L 900 366.3960873829078 L 901 373.688602186074 L 902 381.09167239183404 L 903 388.57638916946155 L 904 396.11352486011447 L 905 403.67364711021685 L 906 411.2272338041702 L 907 418.7447883475829 L 908 426.19695485084014 L 909 433.5546327632244 L 910 440.7890905099437 L 911 447.8720776883159 L 912 454.77593538498684 L 913 461.47370418339483 L 914 467.93922943971575 L 915 474.1472634161871 L 916 480.07356387298404 L 917 485.6949887336467 L 918 490.98958645439393 L 919 495.93668174443144 L 920 500.51695630252055 L 921 504.71252425453076 L 922 508.50700199739543 L 923 511.8855721767312 L 924 514.8350415482898 L 925 517.3438924972947 L 926 519.4023280144798 L 927 521.0023099532016 L 928 522.137590418229 L 929 522.8037361636415 L 930 522.9981459045589 L 931 522.7200604751033 L 932 521.9705657929258 L 933 520.7525886187207 L 934 519.0708851272883 L 935 516.9320223347742 L 936 514.3443524546108 L 937 511.31798028230355 L 938 507.86472373642044 L 939 503.9980677098726 L 940 499.73311141169665 L 941 495.08650940496597 L 942 490.0764065710786 L 943 484.7223672543838 L 944 479.0452988638357 L 945 473.0673702300089 L 946 466.81192503628984 L 947 460.3033906622921 L 948 453.5671827954622 L 949 446.629606183364 L 950 439.5177519142021 L 951 432.25939162670267 L 952 424.88286906245787 L 953 417.4169893842221 L 954 409.89090669236765 L 955 402.33401017874644 L 956 394.7758093625251 L 957 387.245818856144 L 958 379.7734431113872 L 959 372.3878615956278 L 960 365.1179148466318 L 961 357.9919918508757 L 962 351.0379191851619 L 963 344.28285235443144 L 964 337.75316975009844 L 965 331.47436964299646 L 966 325.47097061317606 L 967 319.76641580537483 L 968 314.3829813840386 L 969 309.3416895453761 L 970 304.66222642613275 L 971 300.36286522964764 L 972 296.46039486938594 L 973 292.9700544085908 L 974 289.90547355206763 L 975 287.2786194224786 L 976 285.09974982898444 L 977 283.3773732107196 L 978 282.11821541151915 L 979 281.32719341564274 L 980 281.0073961470563 L 981 281.16007240724986 L 982 281.7846259986947 L 983 282.8786180529818 L 984 284.4377765545508 L 985 286.4560130228194 L 986 288.9254462875696 L 987 291.8364332647491 L 988 295.1776066125074 L 989 298.9359191204236 L 990 303.0966946585827 L 991 307.64368548754976 L 992 312.559135705444 L 993 317.82385058435636 L 994 323.41727152535043 L 995 329.3175563393521 L 996 335.50166454042983 L 997 341.94544731839966 L 998 348.62374183941176 L 999 355.5104695062785 L 1000 362.57873779483805 L 1001 369.8009452686859 L 1002 377.14888936219336 L 1003 384.59387651092277 L 1004 392.10683419938255 L 1005 399.658424488578 L 1006 407.21915858003547 L 1007 414.75951196892885 L 1008 422.2500397366396 L 1009 429.6614915325337 L 1010 436.9649257959547 L 1011 444.1318227723988 L 1012 451.134195882546 L 1013 457.94470100925344 L 1014 464.5367432757475 L 1015 470.8845808980484 L 1016 476.96342570608607 L 1017 482.7495399409737 L 1018 488.220328950448 L 1019 493.3544294205029 L 1020 498.1317927986737 L 1021 502.5337635832051 L 1022 506.54315217238656 L 1023 510.144301989579 L 1024 513.3231506218117 L 1025 516.0672847332037 L 1026 518.365988538775 L 1027 520.2102856493576 L 1028 521.5929741242031 L 1029 522.508654594407 L 1030 522.9537513473286 L 1031 522.9265262896733 L 1032 522.4270857347085 L 1033 521.4573799871132 L 1034 520.0211957270798 L 1035 518.1241412234092 L 1036 515.7736244333407 L 1037 512.9788240746382 L 1038 509.7506537828931 L 1039 506.10171949401115 L 1040 502.04627021830254 L 1041 497.60014239840143 L 1042 492.7806980682966 L 1043 487.60675705496 L 1044 482.0985234873254 L 1045 476.27750689959703 L 1046 470.16643823697916 L 1047 463.78918109182115 L 1048 457.1706385168003 L 1049 450.33665577903395 L 1050 443.3139194348645 L 1051 436.12985311942793 L 1052 428.8125104579457 L 1053 421.3904655169182 L 1054 413.8927012230069 L 1055 406.348496185326 L 1056 398.7873103631 L 1057 391.23867002515397 L 1058 383.73205245046506 L 1059 376.29677082001945 L 1060 368.9618597494674 L 1061 361.75596190957094 L 1062 354.7072161771872 L 1063 347.84314775355665 L 1064 341.19056067898106 L 1065 334.77543316361994 L 1066 328.6228161431359 L 1067 322.7567354553265 L 1068 317.20009801974265 L 1069 311.9746023866569 L 1070 307.1006540046899 L 1071 302.5972855379697 L 1072 298.482082543986 L 1073 294.7711148023641 L 1074 291.4788735627195 L 1075 288.61821495663844 L 1076 286.20030979475905 L 1077 284.23459994499484 L 1078 282.72876146224246 L 1079 281.6886746135519 L 1080 281.11840091580916 L 1081 281.02016727560004 L 1082 281.3943572931872 L 1083 282.2395097645599 L 1084 283.5523243874037 L 1085 285.32767464871097 L 1086 287.55862784370413 L 1087 290.2364721478995 L 1088 293.35075063659576 L 1089 296.8893021189406 L 1090 300.83830862712114 L 1091 305.18234937523255 L 1092 309.9044609771168 L 1093 314.98620368802256 L 1094 320.40773341141414 L 1095 326.14787918974343 L 1096 332.1842258765863 L 1097 338.4932016673098 L 1098 345.0501701464643 L 1099 351.8295264924592 L 1100 358.804797463843 L 1101 365.9487447767446 L 1102 373.233471469789 L 1103 380.63053084113443 L 1104 388.1110375322343 L 1105 395.6457803245444 L 1106 403.20533620870543 L 1107 410.760185280766 L 1108 418.2808260167748 L 1109 425.7378904756011 L 1110 433.10225898011566 L 1111 440.34517382890743 L 1112 447.4383515944916 L 1113 454.35409356948907 L 1114 461.0653939294856 L 1115 467.5460451901987 L 1116 473.7707405471424 L 1117 479.7151726981576 L 1118 485.35612876290656 L 1119 490.6715809286741 L 1120 495.64077246850457 L 1121 500.2442987957767 L 1122 504.4641832386987 L 1123 508.2839472388274 L 1124 511.6886746994861 L 1125 514.6650702328027 L 1126 517.201511077915 L 1127 519.2880924876032 L 1128 520.9166664061158 L 1129 522.0808732871528 L 1130 522.7761669277579 L 1131 522.9998322211441 L 1132 522.750995759127 L 1133 522.0306292427659 L 1134 520.841545687891 L 1135 519.1883884403376 L 1136 517.0776130437794 L 1137 514.5174620309689 L 1138 511.5179327368235 L 1139 508.0907382590463 L 1140 504.2492617187304 L 1141 500.0085039995573 L 1142 495.3850251696673 L 1143 490.3968798149479 L 1144 485.0635465362618 L 1145 479.40585188592803 L 1146 473.44588904048027 L 1147 467.20693152728563 L 1148 460.71334234191823 L 1149 453.99047881118275 L 1150 447.0645935732962 L 1151 439.96273206189716 L 1152 432.7126268942064 L 1153 425.3425895757501 L 1154 417.8813999445365 L 1155 410.35819378640457 L 1156 402.8023490604038 L 1157 395.2433711784925 L 1158 387.7107777875361 L 1159 380.2339835035271 L 1160 372.84218504813975 L 1161 365.56424723615646 L 1162 358.4285902589836 L 1163 351.4630787044126 L 1164 344.69491274600074 L 1165 338.1505219269755 L 1166 331.855461953434 L 1167 325.83431489985725 L 1168 320.1105932166358 L 1169 314.7066479144538 L 1170 309.6435812840709 L 1171 304.94116449232797 L 1172 300.6177603761642 L 1173 296.6902517361315 L 1174 293.17397540941965 L 1175 290.08266237983554 L 1176 287.42838415860496 L 1177 285.2215056453797 L 1178 283.47064465352634 L 1179 282.1826382577492 L 1180 281.3625160954603 L 1181 281.0134807261525 L 1182 281.13689512547364 L 1183 281.73227736283536 L 1184 282.79730248334204 L 1185 284.32781158668996 L 1186 286.3178280675837 L 1187 288.7595809542521 L 1188 291.6435352539267 L 1189 294.9584291867845 L 1190 298.69131816295703 L 1191 302.827625330877 L 1192 307.35119849957135 L 1193 312.2443732126218 L 1194 317.48804172748873 L 1195 323.06172763083714 L 1196 328.9436657984925 L 1197 335.11088738778466 L 1198 341.53930953038724 L 1199 348.2038293754029 L 1200 355.0784221154589 L 1201 362.136242613023 L 1202 369.34973023009087 L 1203 376.690716451888 L 1204 384.13053488431683 L 1205 391.64013319561235 L 1206 399.19018656507575 L 1207 406.751212195872 L 1208 414.2936844447202 L 1209 421.78815011889907 L 1210 429.205343490334 L 1211 436.5163005776389 L 1212 443.6924722498438 L 1213 450.7058357101402 L 1214 457.5290039243031 L 1215 464.13533256647327 L 1216 470.4990240646798 L 1217 476.59522833980645 L 1218 482.4001398446189 L 1219 487.89109052391694 L 1220 493.0466383328055 L 1221 497.8466509674206 L 1222 502.2723844811452 L 1223 506.3065564793199 L 1224 509.93341360662384 L 1225 513.1387930635904 L 1226 515.9101779120357 L 1227 518.236745953435 L 1228 520.1094119893755 L 1229 521.5208632990624 L 1230 522.4655881953366 L 1231 522.9398975476955 L 1232 522.9419391882685 L 1233 522.4717051444927 L 1234 521.5310316702461 L 1235 520.123592075315 L 1236 518.254882381198 L 1237 515.9321998592599 L 1238 513.1646145350431 L 1239 509.96293377001183 L 1240 506.3396600590368 L 1241 502.30894220842066 L 1242 497.8865200851119 L 1243 493.0896631528613 L 1244 487.93710303533567 L 1245 482.4489603695281 L 1246 476.6466662351012 L 1247 470.5528784664797 L 1248 464.19139317449174 L 1249 457.5870518230656 L 1250 450.76564422384433 L 1251 443.75380782752336 L 1252 436.57892370517567 L 1253 429.26900962575513 L 1254 421.8526106473082 L 1255 414.3586876491334 L 1256 406.81650424016703 L 1257 399.25551248521697 L 1258 391.7052378952796 L 1259 384.1951641310512 L 1260 376.754617869864 L 1261 369.4126542856388 L 1262 362.1979435890525 L 1263 355.1386590709791 L 1264 348.26236708639146 L 1265 341.59591940833553 L 1266 335.16534837233075 L 1267 328.9957652206572 L 1268 323.1112620434919 L 1269 317.5348176998121 L 1270 312.2882080854429 L 1271 307.3919210986499 L 1272 302.865076635335 L 1273 298.72535192625213 L 1274 294.98891250779934 L 1275 291.670349095945 L 1276 288.78262060979466 L 1277 286.33700356728866 L 1278 284.3430480506414 L 1279 282.80854041347425 L 1280 281.7394728752716 L 1281 281.1400201218919 L 1282 281.01252300350865 L 1283 281.35747939364074 L 1284 282.17354224496677 L 1285 283.45752484951623 L 1286 285.2044132826959 L 1287 287.4073859825579 L 1288 290.0578403878534 L 1289 293.1454265308498 L 1290 296.65808745373386 L 1291 300.58210629077325 L 1292 304.9021598323842 L 1293 309.60137836193655 L 1294 314.66141153163676 L 1295 320.06250002024285 L 1296 325.7835526927911 L 1297 331.8022289610269 L 1298 338.0950260229237 L 1299 344.63737064062184 L 1300 351.40371509839673 L 1301 358.36763696594187 L 1302 365.50194227739377 L 1303 372.77877172318676 L 1304 380.1697094400606 L 1305 387.6458939743985 L 1306 395.17813098558565 L 1307 402.7370072492848 L 1308 410.2930055154475 L 1309 417.81661977254436 L 1310 425.2784704679083 L 1311 432.64941923425886 L 1312 439.9006826744033 L 1313 447.00394475978635 L 1314 453.9314674039758 L 1315 460.65619877929635 L 1316 467.15187895363806 L 1317 473.39314243492896 L 1318 479.3556172228389 L 1319 485.0160199809191 L 1320 490.3522469575332 L 1321 495.3434603005337 L 1322 499.97016942862916 L 1323 504.2143071416869 L 1324 508.0593001727628 L 1325 511.4901339063541 L 1326 514.4934110101517 L 1327 517.0574037513359 L 1328 519.1720997931225 L 1329 520.8292412927229 L 1330 522.0223571480448 L 1331 522.7467882672057 L 1332 522.9997057621883 L 1333 522.7801219955875 L 1334 522.0888944373123 L 1335 520.9287223161856 L 1336 519.3041360795124 L 1337 517.2214797017805 L 1338 514.6888859115757 L 1339 511.71624443345064 L 1340 508.31516336876234 L 1341 504.49892386628466 L 1342 500.2824282596064 L 1343 495.68214187383785 L 1344 490.71602872886837 L 1345 485.40348139025326 L 1346 479.76524524166024 L 1347 473.82333747459023 L 1348 467.6009611117156 L 1349 461.12241439957324 L 1350 454.41299592443204 L 1351 447.49890582185435 L 1352 440.407143465728 L 1353 433.1654020362884 L 1354 425.8019603788429 L 1355 418.34557257548477 L 1356 410.8253556610178 L 1357 403.2706759215589 L 1358 395.71103421981906 L 1359 388.1759507948657 L 1360 380.69484998622096 L 1361 373.2969453324456 L 1362 366.01112549289604 L 1363 358.86584143812763 L 1364 351.8889953494638 L 1365 345.10783166157483 L 1366 338.54883067354376 L 1367 332.2376051438649 L 1368 326.19880027317015 L 1369 320.455997465248 L 1370 315.03162224216624 L 1371 309.94685667308823 L 1372 305.2215566587463 L 1373 300.87417439457414 L 1374 296.9216863152784 L 1375 293.37952680222475 L 1376 290.26152791250877 L 1377 287.57986536506894 L 1378 285.345010994765 L 1379 283.5656918600866 L 1380 282.24885616417686 L 1381 281.39964612224776 L 1382 281.02137788133984 L 1383 281.11552857083876 L 1384 281.6817305343169 L 1385 282.7177727652237 L 1386 284.21960954081896 L 1387 286.1813762206337 L 1388 288.5954121477653 L 1389 291.45229056357914 L 1390 294.7408554189994 L 1391 298.44826493864144 L 1392 302.56004176767044 L 1393 307.0601295055619 L 1394 311.93095540600206 L 1395 317.1534989980863 L 1396 322.7073663608512 L 1397 328.57086976109883 L 1398 334.7211123435314 L 1399 341.13407754248095 L 1400 347.7847228660843 L 1401 354.6470776866779 L 1402 361.6943446555431 L 1403 368.8990043459794 L 1404 376.2329227160768 L 1405 383.6674609715473 L 1406 391.173587399604 L 1407 398.7219907371778 L 1408 406.2831946307729 L 1409 413.8276727409961 L 1410 421.3259640422802 L 1411 428.7487878675587 L 1412 436.0671582486437 L 1413 443.2524971058117 L 1414 450.27674584459317 L 1415 457.11247492398337 L 1416 463.73299096821336 L 1417 470.11244100381066 L 1418 476.22591341490784 L 1419 482.04953522256915 L 1420 487.5605653082622 L 1421 492.7374832174395 L 1422 497.5600731964529 L 1423 502.00950313463863 L 1424 506.06839810330683 L 1425 509.72090820446596 L 1426 512.9527704643355 L 1427 515.751364529953 L 1428 518.1057619513829 L 1429 520.0067688570789 L 1430 521.4469618557562 L 1431 522.4207170245755 L 1432 522.9242318704411 L 1433 522.9555401786552 L 1434 522.5145196909441 L 1435 521.6028925828746 L 1436 520.2242187387944 L 1437 518.3838818505611 L 1438 516.0890683943394 L 1439 513.3487395675666 L 1440 510.1735962956675 L 1441 506.57603744517024 L 1442 502.57011140639753 L 1443 498.17146123480313 L 1444 493.3972635651752 L 1445 488.26616153724484 L 1446 482.7981919946245 L 1447 477.01470724136243 L 1448 470.93829166165256 L 1449 464.5926735282969 L 1450 458.002632344309 L 1451 451.19390207948396 L 1452 444.19307067979776 L 1453 437.02747624204704 L 1454 429.7251002591661 L 1455 422.31445835309574 L 1456 414.82448892188995 L 1457 407.28444013589086 L 1458 399.72375572424914 L 1459 392.1719599977921 L 1460 384.6585425572217 L 1461 377.2128431368548 L 1462 369.86393703358834 L 1463 362.6405215684876 L 1464 355.5708040243613 L 1465 348.68239149692585 L 1466 342.0021830896875 L 1467 335.5562648735188 L 1468 329.3698080211098 L 1469 323.46697051407796 L 1470 317.8708028065662 L 1471 312.6031578137132 L 1472 307.6846055764876 L 1473 303.1343529361177 L 1474 298.97016853178775 L 1475 295.2083134144824 L 1476 291.8634775479302 L 1477 288.94872244460987 L 1478 286.47543016082363 L 1479 284.4532588500106 L 1480 282.8901050478648 L 1481 281.7920728365317 L 1482 281.1634500082984 L 1483 281.0066913218566 L 1484 281.3224089165222 L 1485 282.10936992184435 L 1486 283.3645012719384 L 1487 285.0829017057424 L 1488 287.25786090633636 L 1489 289.8808857045866 L 1490 292.9417332447891 L 1491 296.42845098280213 L 1492 300.3274233604753 L 1493 304.6234249741125 L 1494 309.29968002934777 L 1495 314.3379278502632 L 1496 319.7184941869376 L 1497 325.4203680429715 L 1498 331.4212837229783 L 1499 337.6978077796483 L 1500 344.2254305208591 L 1501 350.97866171949875 L 1502 357.931130152257 L 1503 365.0556865786881 L 1504 372.3245097584138 L 1505 379.70921509247154 L 1506 387.180965464566 L 1507 394.71058384939096 L 1508 402.26866724828915 L 1509 409.82570150733227 L 1510 417.3521765694608 L 1511 424.8187017106253 L 1512 432.1961203099345 L 1513 439.45562370563636 L 1514 446.5688636923255 L 1515 453.5080632200786 L 1516 460.2461248632401 L 1517 466.75673663528926 L 1518 473.0144747365846 L 1519 478.99490283375746 L 1520 484.6746674830706 L 1521 490.0315893251167 L 1522 495.0447496947417 L 1523 499.6945723079848 L 1524 503.96289970704845 L 1525 507.83306416478234 L 1526 511.28995277180127 L 1527 514.3200664520731 L 1528 516.9115726765211 L 1529 519.0543516687978 L 1530 520.7400359227943 L 1531 521.9620428775725 L 1532 522.7156006221253 L 1533 522.9977665295864 L 1534 522.8074387481258 L 1535 522.1453605036569 L 1536 521.0141171975557 L 1537 519.4181263107238 L 1538 517.3636201534197 L 1539 514.8586215282209" stroke-linecap="round" stroke-linejoin="round" stroke-miterlimit="10" stroke-width="16"/></g></svg>