<svg version="1.1" xmlns="http://www.w3.org/2000/svg" xmlns:xlink="http://www.w3.org/1999/xlink" width="1560" height="804"><defs/><g><path fill="none" stroke="#02063B" paint-order="fill stroke markers" d=" M 20 424.2613129105105 L 21 425.1918367405569 L 22 426.0965942490168 L 23 426.97458024284833 L 24 427.8248192723828 L 25 428.64636671505735 L 26 429.4383098248982 L 27 430.1997687465894 L 28 430.9298974929988 L 29 431.6278848850771 L 30 432.2929554530843 L 31 432.9243702981429 L 32 433.5214279131609 L 33 434.0834649622117 L 34 434.6098570175057 L 35 435.1000192531352 L 36 435.55340709482016 L 37 435.96951682493517 L 38 436.3478861421438 L 39 436.68809467501893 L 40 436.98976444907925 L 41 437.2525603067217 L 42 437.47619027958456 L 43 437.66040591292654 L 44 437.805002541662 L 45 437.909819517746 L 46 437.97474038865477 L 47 437.9996930267663 L 48 437.9846497094942 L 49 437.92962715008775 L 50 437.8346864790635 L 51 437.6999331762889 L 52 437.5255169537927 L 53 437.31163158943446 L 54 437.05851471161503 L 55 436.76644753527 L 56 436.4357545494372 L 57 436.0668031567469 L 58 435.6600032652345 L 59 435.21580683292905 L 60 434.73470736572455 L 61 434.2172393690905 L 62 433.66397775423223 L 63 433.0755371993595 L 64 432.45257146677403 L 65 431.79577267653457 L 66 431.10587053750527 L 67 430.38363153664335 L 68 429.629858087426 L 69 428.8453876383619 L 70 428.0310917425797 L 71 427.1878750895246 L 72 426.31667449984144 L 73 425.4184578845591 L 74 424.49422316973323 L 75 423.5449971877424 L 76 422.5718345364689 L 77 421.57581640763146 L 78 420.5580493855727 L 79 419.51966421783476 L 80 418.4618145588892 L 81 417.38567568841785 L 82 416.292443205567 L 83 415.183331700627 L 84 414.0595734056126 L 85 412.9224168252428 L 86 411.7731253498422 L 87 410.61297585170337 L 88 409.4432572664718 L 89 408.26526916112743 L 90 407.0803202901552 L 91 405.88972714150793 L 92 404.6948124739774 L 93 403.49690384759845 L 94 402.29733214871897 L 95 401.0974301113739 L 96 399.8985308366071 L 97 398.7019663113849 L 98 397.50906592874765 L 99 396.3211550108431 L 100 395.13955333648255 L 101 393.9655736748559 L 102 392.80052032703406 L 103 391.64568767687985 L 104 390.50235875297676 L 105 389.3718038031737 L 106 388.2552788833292 L 107 387.1540244618229 L 108 386.06926404138534 L 109 385.00220279977555 L 110 383.9540262508196 L 111 382.9258989272942 L 112 381.9189630871218 L 113 380.9343374443122 L 114 379.9731159260621 L 115 379.03636645739334 L 116 378.125129774679 L 117 377.24041826937696 L 118 376.3832148632545 L 119 375.5544719163544 L 120 374.7551101689146 L 121 373.98601771841874 L 122 373.2480490329122 L 123 372.5420240016812 L 124 371.8687270243491 L 125 371.2289061394018 L 126 370.62327219311084 L 127 370.05249804977757 L 128 369.51721784417515 L 129 369.0180262770196 L 130 368.5554779542526 L 131 368.13008677086935 L 132 367.7423253399774 L 133 367.3926244677195 L 134 367.0813726746442 L 135 366.8089157640565 L 136 366.5755564378276 L 137 366.38155396009046 L 138 366.2271238691953 L 139 366.1124377382447 L 140 366.0376229844746 L 141 366.00276272769236 L 142 366.0078956979304 L 143 366.0530161924165 L 144 366.13807408190974 L 145 366.26297486639453 L 146 366.42757978007074 L 147 366.631705945524 L 148 366.87512657690365 L 149 367.15757123188376 L 150 367.478726112127 L 151 367.8382344119169 L 152 368.23569671457216 L 153 368.67067143620164 L 154 369.142675316308 L 155 369.65118395469375 L 156 370.1956323940745 L 157 370.77541574775097 L 158 371.3898898716431 L 159 372.03837207993956 L 160 372.72014190356714 L 161 373.43444189063786 L 162 374.18047844798446 L 163 374.9574227228486 L 164 375.7644115237433 L 165 376.6005482794659 L 166 377.46490403519573 L 167 378.3565184845709 L 168 379.27440103659643 L 169 380.2175319161988 L 170 381.18486329720486 L 171 382.17532046648506 L 172 383.1878030179686 L 173 384.2211860752037 L 174 385.2743215411047 L 175 386.3460393734972 L 176 387.43514888504455 L 177 388.5404400661115 L 178 389.6606849290945 L 179 390.7946388727264 L 180 391.94104206483865 L 181 393.09862084204497 L 182 394.2660891247921 L 183 395.44214984620453 L 184 396.625496393137 L 185 397.8148140578317 L 186 399.0087814985701 L 187 400.2060722076941 L 188 401.405355985367 L 189 402.6053004174366 L 190 403.80457235575824 L 191 405.0018393993333 L 192 406.1957713746178 L 193 407.38504181335594 L 194 408.5683294262976 L 195 409.7443195711614 L 196 410.91170571321277 L 197 412.0691908768354 L 198 413.2154890864816 L 199 414.3493267954014 L 200 415.4694443005639 L 201 416.57459714219755 L 202 417.6635574863951 L 203 418.73511548924745 L 204 419.7880806409899 L 205 420.82128308866845 L 206 421.8335749358561 L 207 422.8238315179752 L 208 423.7909526518089 L 209 424.73386385781396 L 210 425.65151755387643 L 211 426.54289421918367 L 212 427.4070035269208 L 213 428.2428854445315 L 214 429.0496113003226 L 215 429.8262848152254 L 216 430.5720430985695 L 217 431.2860576067614 L 218 431.9675350638031 L 219 432.6157183426283 L 220 433.229887306277 L 221 433.8093596079733 L 222 434.35349144921855 L 223 434.86167829505655 L 224 435.33335554571704 L 225 435.7679991638906 L 226 436.1651262569385 L 227 436.52429561339034 L 228 436.8451081931335 L 229 437.12720757075033 L 230 437.37028033150943 L 231 437.574056419572 L 232 437.7383094380263 L 233 437.8628569004163 L 234 437.94756043348576 L 235 437.992325930912 L 236 437.99710365785864 L 237 437.9618883062318 L 238 437.8867190005771 L 239 437.7716792546121 L 240 437.61689687844176 L 241 437.4225438365606 L 242 437.18883605679844 L 243 436.9160331904231 L 244 436.60443832366536 L 245 436.25439764098803 L 246 435.86630004047186 L 247 435.44057670174664 L 248 434.9777006069473 L 249 434.4781860152266 L 250 433.942587891409 L 251 433.3715012894204 L 252 432.7655606911781 L 253 432.1254393016762 L 254 431.45184830104927 L 255 430.74553605444567 L 256 430.00728728058726 L 257 429.2379221799407 L 258 428.43829552346807 L 259 427.609295702969 L 260 426.75184374407024 L 261 425.8668922829586 L 262 424.95542450799434 L 263 424.0184530673807 L 264 423.05701894410345 L 265 422.07219029939023 L 266 421.06506128597476 L 267 420.03675083248385 L 268 418.9884014002987 L 269 417.9211777142708 L 270 416.83626546870323 L 271 415.73487001003423 L 272 414.6182149976875 L 273 413.4875410445767 L 274 412.3441043387739 L 275 411.18917524787463 L 276 410.0240369076089 L 277 408.8499837962668 L 278 407.66832029652244 L 279 406.48035924625424 L 280 405.287420479971 L 281 404.090829362465 L 282 402.8919153163209 L 283 401.69201034491607 L 284 400.4924475525541 L 285 399.29455966337486 L 286 398.0996775406869 L 287 396.9091287083675 L 288 395.72423587597274 L 289 394.54631546919603 L 290 393.37667616730863 L 291 392.21661744920607 L 292 391.0674281496764 L 293 389.930385027494 L 294 388.8067513469306 L 295 387.69777547425736 L 296 386.6046894908005 L 297 385.52870782408843 L 298 384.4710258986127 L 299 383.43281880770184 L 300 382.4152400079827 L 301 381.4194200378807 L 302 380.44646526158255 L 303 379.49745663985624 L 304 378.5734485290949 L 305 377.6754675099182 L 306 376.8045112466325 L 307 375.96154737881807 L 308 375.1475124462732 L 309 374.36331084851105 L 310 373.6098138399639 L 311 372.88785856201287 L 312 372.1982471129165 L 313 371.5417456566731 L 314 370.91908357180637 L 315 370.33095264101985 L 316 369.7780062826205 L 317 369.2608588245654 L 318 368.78008482193894 L 319 368.33621841861685 L 320 367.9297527538281 L 321 367.5611394142732 L 322 367.23078793240774 L 323 366.93906533144815 L 324 366.6862957176063 L 325 366.47275992000453 L 326 366.29869517867223 L 327 366.16429488097043 L 328 366.06970834673643 L 329 366.0150406623887 L 330 366.0003525641747 L 331 366.02566037069244 L 332 366.0909359647605 L 333 366.1961068246564 L 334 366.3410561046888 L 335 366.52562276501396 L 336 366.7496017505526 L 337 367.01274421880737 L 338 367.31475781632935 L 339 367.6553070035248 L 340 368.0340134274426 L 341 368.45045634212727 L 342 368.9041730760717 L 343 369.3946595462483 L 344 369.92137081814997 L 345 370.48372171121656 L 346 371.0810874489753 L 347 371.7128043531727 L 348 372.3781705811265 L 349 373.0764469054785 L 350 373.8068575354828 L 351 374.5685909789148 L 352 375.3608009436467 L 353 376.1826072778844 L 354 377.03309694802357 L 355 377.91132505303756 L 356 378.81631587427006 L 357 379.7470639594668 L 358 380.7025352398411 L 359 381.68166817893285 L 360 382.6833749519843 L 361 383.7065426545223 L 362 384.75003453880424 L 363 385.8126912767543 L 364 386.8933322479865 L 365 387.99075685148347 L 366 389.1037458394742 L 367 390.2310626720284 L 368 391.37145489086254 L 369 392.5236555108312 L 370 393.6863844275579 L 371 394.8583498396422 L 372 396.03824968386084 L 373 397.22477308177133 L 374 398.41660179610847 L 375 399.6124116953568 L 376 400.81087422487155 L 377 402.0106578829141 L 378 403.2104296999609 L 379 404.4088567196441 L 380 405.60460747967664 L 381 406.79635349111794 L 382 407.98277071433614 L 383 409.1625410300271 L 384 410.3343537036554 L 385 411.49690684169167 L 386 412.6489088380268 L 387 413.78907980895696 L 388 414.91615301514497 L 389 416.0288762689782 L 390 417.12601332575906 L 391 418.2063452571835 L 392 419.26867180557986 L 393 420.3118127174055 L 394 421.3346090545177 L 395 422.33592448176415 L 396 423.31464652946005 L 397 424.26968782935126 L 398 425.19998732268965 L 399 426.10451143907767 L 400 426.982255244774 L 401 427.832243559183 L 402 428.6535320382882 L 403 429.4452082238266 L 404 430.20639255703736 L 405 430.93623935585833 L 406 431.6339377544864 L 407 432.29871260425557 L 408 432.9298253348338 L 409 433.5265747747808 L 410 434.08829793055486 L 411 434.6143707231046 L 412 435.1042086812257 L 413 435.55726759091317 L 414 435.97304409998776 L 415 436.3510762773243 L 416 436.6909441260609 L 417 436.99227005021913 L 418 437.254719274216 L 419 437.4780002148026 L 420 437.66186480501534 L 421 437.8061087697805 L 422 437.9105718528656 L 423 437.97513799492503 L 424 437.99973546244337 L 425 437.9843369274316 L 426 437.92895949778904 L 427 437.8336646982959 L 428 437.6985584022591 L 429 437.52379071388606 L 430 437.3095558015177 L 431 437.0560916819057 L 432 436.76367995577397 L 433 436.43264549495814 L 434 436.0633560814699 L 435 435.6562219988886 L 436 435.2116955765323 L 437 434.73027068691664 L 438 434.21248219705814 L 439 433.6589053742327 L 440 433.0701552468487 L 441 432.4468859211456 L 442 431.7897898544765 L 443 431.09959708598205 L 444 430.3770744255114 L 445 429.6230246016897 L 446 428.83828537008026 L 447 428.02372858243115 L 448 427.18025921804076 L 449 426.30881437831823 L 450 425.4103622456562 L 451 424.4859010077722 L 452 423.53645774871376 L 453 422.5630873077596 L 454 421.56687110748464 L 455 420.54891595229054 L 456 419.5103527987368 L 457 418.4523354990388 L 458 417.3760395191284 L 459 416.28266063270206 L 460 415.1734135927055 L 461 414.0495307817342 L 462 412.9122608428453 L 463 411.7628672923056 L 464 410.60262711581413 L 465 409.43282934976065 L 466 408.2547736490958 L 467 407.0697688434033 L 468 405.87913148278 L 469 404.68418437513753 L 470 403.486255116552 L 471 402.28667461629374 L 472 401.08677561817626 L 473 399.8878912198666 L 474 398.6913533918035 L 475 397.4984914973663 L 476 396.3106308159421 L 477 395.12909107052917 L 478 393.9551849615138 L 479 392.79021670824926 L 480 391.63548060005763 L 481 390.49225955826347 L 482 389.361823710858 L 483 388.24542898137565 L 484 387.1443156935539 L 485 386.05970719332214 L 486 384.9928084896552 L 487 383.9448049157979 L 488 382.9168608123504 L 489 381.9101182336759 L 490 380.9256956790693 L 491 379.9646868500945 L 492 379.02815943547387 L 493 378.11715392487656 L 494 377.2326824529264 L 495 376.3757276747116 L 496 375.54724167404714 L 497 374.7481449057019 L 498 373.97932517276524 L 499 373.24163664029135 L 500 372.535898886314 L 501 371.8628959912891 L 502 371.2233756669747 L 503 370.6180484257172 L 504 370.04758679106584 L 505 369.5126245505943 L 506 369.0137560517565 L 507 368.5515355415627 L 508 368.1264765508057 L 509 367.7390513235242 L 510 367.38969029233596 L 511 367.0787816002233 L 512 366.80667066930334 L 513 366.57365981706084 L 514 366.3800079204714 L 515 366.2259301283867 L 516 366.11159762250253 L 517 366.0371374271743 L 518 366.0026322682921 L 519 366.0081204813716 L 520 366.0535959689629 L 521 366.13900820742487 L 522 366.2642623030572 L 523 366.4292190975283 L 524 366.63369532248123 L 525 366.8774638031463 L 526 367.16025371073437 L 527 367.48175086332935 L 528 367.8415980749475 L 529 368.2393955523737 L 530 368.6747013393349 L 531 369.14703180751735 L 532 369.65586219388166 L 533 370.2006271836787 L 534 370.78072153851906 L 535 371.39550076879783 L 536 372.04428184972807 L 537 372.7263439801864 L 538 373.4409293835298 L 539 374.187244149491 L 540 374.96445911621964 L 541 375.771710791488 L 542 376.6081023120375 L 543 377.472704440002 L 544 378.36455659529776 L 545 379.2826679228367 L 546 380.22601839337375 L 547 381.19355993676857 L 548 382.1842176063992 L 549 383.19689077343764 L 550 384.23045434965644 L 551 385.283760037412 L 552 386.35563760541174 L 553 387.44489618885177 L 554 388.55032561247646 L 555 389.67069773509394 L 556 390.8047678140505 L 557 391.95127588814995 L 558 393.10894817748164 L 559 394.2764984985993 L 560 395.4526296934825 L 561 396.6360350706888 L 562 397.8253998571001 L 563 399.0194026586447 L 564 400.2167169283788 L 565 401.41601244028925 L 566 402.61595676718747 L 567 403.8152167610452 L 568 405.0124600341346 L 569 406.20635643932053 L 570 407.3955795478663 L 571 408.5788081231057 L 572 409.75472758834866 L 573 410.92203148738656 L 574 412.0794229359755 L 575 413.2256160626861 L 576 414.3593374375162 L 577 415.47932748668336 L 578 416.5843418920204 L 579 417.6731529734242 L 580 418.7445510528175 L 581 419.7973457981122 L 582 420.83036754567706 L 583 421.8424685998446 L 584 422.8325245080095 L 585 423.7994353099056 L 586 424.74212675967016 L 587 425.65955151933997 L 588 426.55069032245285 L 589 427.41455310646063 L 590 428.2501801126971 L 591 429.05664295267735 L 592 429.83304563954573 L 593 430.5785255835239 L 594 431.2922545502558 L 595 431.97343958098213 L 596 432.6213238735249 L 597 433.23518762310005 L 598 433.8143488220272 L 599 434.3581640174454 L 600 434.8660290261946 L 601 435.33737960606817 L 602 435.7716920826906 L 603 436.1684839313242 L 604 436.5273143129578 L 605 436.84778456408276 L 606 437.1295386396111 L 607 437.3722635084451 L 608 437.5756895012566 L 609 437.73959061009265 L 610 437.8637847394717 L 611 437.94813390869336 L 612 437.9925444051361 L 613 437.99696688837264 L 614 437.9613964449877 L 615 437.88587259403675 L 616 437.7704792431402 L 617 437.6153445952609 L 618 437.42064100627016 L 619 437.1865847934586 L 620 436.91343599520593 L 621 436.6014980820762 L 622 436.2511176196594 L 623 435.8626838835345 L 624 435.43662842678066 L 625 434.97342460051874 L 626 434.47358702801375 L 627 433.93767103292464 L 628 433.3662720223347 L 629 432.7600248252499 L 630 432.11960298729804 L 631 431.44571802241455 L 632 430.7391186223444 L 633 430.0005898248393 L 634 429.23095214147475 L 635 428.43106064605405 L 636 427.6018040246154 L 637 426.74410358809325 L 638 425.8589122487354 L 639 424.9472134614086 L 640 424.01002013097286 L 641 423.0483734869352 L 642 422.0633419266358 L 643 421.056019828249 L 644 420.0275263349208 L 645 418.9790041113911 L 646 417.91161807448395 L 647 416.82655409887576 L 648 415.72501769957785 L 649 414.60823269260044 L 650 413.47743983528187 L 651 412.3338954477982 L 652 411.1788700173799 L 653 410.0136467867912 L 654 408.8395203286358 L 655 407.65779510707694 L 656 406.4697840285662 L 657 405.27680698319455 L 658 404.0801893782823 L 659 402.8812606658421 L 660 401.6813528655455 L 661 400.48179908483905 L 662 399.2839320378508 L 663 398.08908256473313 L 664 396.8985781530897 L 665 395.71374146312456 L 666 394.5358888581567 L 667 393.36632894212875 L 668 392.2063611057381 L 669 391.0572740828023 L 670 389.9203445184659 L 671 388.7968355508364 L 672 387.6879954076284 L 673 386.5950560193712 L 674 385.519231650725 L 675 384.46171755142166 L 676 383.42368862833354 L 677 382.40629814014164 L 678 381.4106764160557 L 679 380.4379296000095 L 680 379.48913842172533 L 681 378.5653569960151 L 682 377.6676116516492 L 683 376.7968997910977 L 684 375.9541887824072 L 685 375.1404148844475 L 686 374.35648220672005 L 687 373.603261704885 L 688 372.88159021312197 L 689 372.19226951440083 L 690 371.53606544969387 L 691 370.9137070671203 L 692 370.32588581196796 L 693 369.7732547584915 L 694 369.2564278843418 L 695 368.7759793884318 L 696 368.3324430529966 L 697 367.926311650557 L 698 367.5580363964454 L 699 367.22802644750146 L 700 366.936648447496 L 701 366.68422611978616 L 702 366.47103990765663 L 703 366.2973266627445 L 704 366.1632793818953 L 705 366.06904699274173 L 706 366.0147341882442 L 707 366.00040131037565 L 708 366.0260642830814 L 709 366.0916945945875 L 710 366.1972193290775 L 711 366.3425212477024 L 712 366.5274389188341 L 713 366.7517668974174 L 714 367.0152559532209 L 715 367.317613347734 L 716 367.65850315940156 L 717 368.037546656836 L 718 368.4543227195905 L 719 368.9083683060274 L 720 369.39917896776154 L 721 369.92620941010625 L 722 370.4888740979003 L 723 371.08654790604254 L 724 371.7185668140106 L 725 372.38422864359364 L 726 373.08279383901765 L 727 373.8134862885984 L 728 374.5754941870077 L 729 375.3679709371958 L 730 376.1900360909678 L 731 377.0407763271688 L 732 377.91924646639114 L 733 378.8244705210766 L 734 379.7554427798464 L 735 380.71112892485553 L 736 381.69046718092727 L 737 382.6923694951949 L 738 383.7157227459376 L 739 384.759389979267 L 740 385.8222116722933 L 741 386.9030070213637 L 742 388.00057525394607 L 743 389.11369696269617 L 744 390.24113546023 L 745 391.381638153093 L 746 392.5339379334024 L 747 393.69675458661374 L 748 394.8687962138506 L 749 396.0487606672139 L 750 397.23533699648016 L 751 398.42720690557684 L 752 399.6230462172206 L 753 400.8215263440896 L 754 402.02131576489404 L 755 403.22108150370826 L 756 404.4194906109171 L 757 405.6152116441346 L 758 406.8069161474467 L 759 407.99328012733775 L 760 409.1729855236569 L 761 410.3447216739952 L 762 411.5071867698409 L 763 412.6590893029008 L 764 413.7991494999752 L 765 414.9261007447981 L 766 416.0386909852565 L 767 417.1356841244319 L 768 418.215861393914 L 769 419.2780227078617 L 770 420.32098799630927 L 771 421.343598516233 L 772 422.34471813892503 L 773 423.3232346122408 L 774 424.2780607963214 L 775 425.2081358714138 L 776 426.1124265164512 L 777 426.9899280570807 L 778 427.83966558186523 L 779 428.6606950254176 L 780 429.4521042172657 L 781 430.21301389528054 L 782 430.94257868254425 L 783 431.63998802657096 L 784 432.3044670998366 L 785 432.9352776606194 L 786 433.531718873192 L 787 434.0931280864561 L 788 434.61888157015284 L 789 435.1083952078327 L 790 435.56112514581343 L 791 435.976568397406 L 792 436.3542634017371 L 793 436.6937905365468 L 794 436.9947725843926 L 795 437.25687515174104 L 796 437.47980704048143 L 797 437.66332057144984 L 798 437.80721185960215 L 799 437.91132104053247 L 800 437.9755324480835 L 801 437.99977474285276 L 802 437.984020991451 L 803 437.92828869642597 L 804 437.8326397768161 L 805 437.6971804993589 L 806 437.5220613604269 L 807 437.3074769188255 L 808 437.05366557963623 L 809 436.7609093293469 L 810 436.4295334225621 L 811 436.05990602064304 L 812 435.6524377826769 L 813 435.20758140923107 L 814 434.7258311393997 L 815 434.20772220169937 L 816 433.6538302194261 L 817 433.064770571133 L 818 432.44119770694 L 819 431.7838044214336 L 820 431.09332108396745 L 821 430.3705148272149 L 822 429.6161886948791 L 823 428.8311807495042 L 824 428.01636314138176 L 825 427.1726411395835 L 826 426.3009521262011 L 827 425.4022645549061 L 828 424.47757687499006 L 829 423.5279164220798 L 830 422.55433827675796 L 831 421.5579240923609 L 832 420.5397808932521 L 833 419.5010398449095 L 834 418.4428549971909 L 835 417.36640200217585 L 836 416.2728768080052 L 837 415.1634943301744 L 838 414.0394871017509 L 839 412.90210390402126 L 840 411.7526083790833 L 841 410.59227762593065 L 842 409.4224007815846 L 843 408.2442775888521 L 844 407.05921695230154 L 845 405.8685354840579 L 846 404.673556041037 L 847 403.47560625523965 L 848 402.27601705874235 L 849 401.07612120501983 L 850 399.87725178824616 L 851 398.6807407622149 L 852 397.48791746052854 L 853 396.30010711969715 L 854 395.11862940679026 L 855 393.94479695327533 L 856 392.779913896674 L 857 391.62527443165413 L 858 390.4821613721689 L 859 389.35184472624013 L 860 388.23558028496865 L 861 387.13460822734055 L 862 386.0501517423773 L 863 384.98341567016365 L 864 383.9355851632593 L 865 382.9078243699859 L 866 381.9012751410473 L 867 380.9170557609253 L 868 379.9562597054553 L 869 379.0199544269666 L 870 378.1091801683332 L 871 377.22494880725606 L 872 376.3682427320584 L 873 375.540013750244 L 874 374.74118203103166 L 875 373.972635083039 L 876 373.2352267682539 L 877 372.5297763533859 L 878 371.8570675996549 L 879 371.2178478920255 L 880 370.6128274088564 L 881 370.0426783328862 L 882 369.5080341044333 L 883 369.00948871763774 L 884 368.5475960605294 L 885 368.12286929965364 L 886 367.73578030993923 L 887 367.3867591504411 L 888 367.0761935865413 L 889 366.80442865913875 L 890 366.5717663013054 L 891 366.3784650028367 L 892 366.224739523067 L 893 366.11076065227 L 894 366.03665502190984 L 895 366.00250496395194 L 896 366.0083484193919 L 897 366.05417889610266 L 898 366.1399454760472 L 899 366.26555287184897 L 900 366.430861532657 L 901 366.63568779918785 L 902 366.8798041077728 L 903 367.162939243183 L 904 367.4847786399515 L 905 367.8449647318585 L 906 368.2430973491899 L 907 368.6787341633296 L 908 369.15139117818984 L 909 369.6605432679352 L 910 370.2056247604015 L 911 370.7860300655623 L 912 371.4011143483442 L 913 372.05019424504445 L 914 372.73254862255294 L 915 373.44741937953773 L 916 374.19401228870134 L 917 374.9714978791739 L 918 375.77901235806263 L 919 376.6156585701319 L 920 377.4805069945513 L 921 378.37259677759954 L 922 379.29093680018224 L 923 380.2345067789722 L 924 381.2022583999537 L 925 382.19311648310673 L 926 383.20598017694226 L 927 384.23972418155597 L 928 385.2931999988469 L 929 386.36523720850715 L 930 387.45464476836963 L 931 388.5602123376648 L 932 389.68071162171935 L 933 390.8148977366026 L 934 391.9615105922014 L 935 393.119276292192 L 936 394.286908549348 L 937 395.4631101146175 L 938 396.646574218376 L 939 397.8359860222595 L 940 399.0300240799597 L 941 400.22736180536276 L 942 401.4266689463963 L 943 402.62661306295155 L 944 403.825861007234 L 945 405.0230804049029 L 946 406.2169411353491 L 947 407.4061168094704 L 948 408.58928624330116 L 949 409.7651349258576 L 950 410.9323564795713 L 951 412.0896541116847 L 952 413.2357420549993 L 953 414.3693469963726 L 954 415.4892094913806 L 955 416.5940853635699 L 956 417.6827470867488 L 957 418.7539851487784 L 958 419.8066093953511 L 959 420.8394503522611 L 960 421.85136052470085 L 961 422.8412156721363 L 962 423.80791605734805 L 963 424.75038766824787 L 964 425.6675834111155 L 965 426.5584842739284 L 966 427.422100458492 L 967 428.25747248011385 L 968 429.0636722335994 L 969 429.83980402438397 L 970 430.5850055636573 L 971 431.2984489263729 L 972 431.9793414710801 L 973 432.62692672055516 L 974 433.24048520225364 L 975 433.8193352476499 L 976 434.36283374957725 L 977 434.8703768767249 L 978 435.341400744499 L 979 435.77538204150414 L 980 436.1718386109458 L 981 436.5303299863109 L 982 436.85045788072927 L 983 437.1318666294743 L 984 437.374243585109 L 985 437.5773194648399 L 986 437.74086864969223 L 987 437.8647094351751 L 988 437.94870423315604 L 989 437.9927597247228 L 990 437.9968269638616 L 991 437.9609014318362 L 992 437.8850230422085 L 993 437.7692760964942 L 994 437.6137891905031 L 995 437.418735071468 L 996 437.1843304461213 L 997 436.910835739932 L 998 436.5985548077706 L 999 436.2478345963242 L 1000 435.8590647586355 L 1001 435.4326772211956 L 1002 434.9691457040695 L 1003 434.46898519458955 L 1004 433.93275137520016 L 1005 433.3610400060903 L 1006 432.7544862632987 L 1007 432.1137640330279 L 1008 431.4395851629519 L 1009 430.73269867134655 L 1010 429.99388991492475 L 1011 429.2239797162983 L 1012 428.4238234520377 L 1013 427.59431010234124 L 1014 426.7363612633708 L 1015 425.85093012335085 L 1016 424.9390004035692 L 1017 424.00158526545346 L 1018 423.03972618494095 L 1019 422.0544917953901 L 1020 421.04697670032084 L 1021 420.01830025729976 L 1022 418.9696053343251 L 1023 417.9020570400921 L 1024 416.8168414295458 L 1025 415.71516418616545 L 1026 414.59824928243984 L 1027 413.46733762002435 L 1028 412.32368565108794 L 1029 411.16856398238525 L 1030 410.00325596360153 L 1031 408.82905626154155 L 1032 407.64726942174275 L 1033 406.4592084191153 L 1034 405.2661931992157 L 1035 404.06954921177726 L 1036 402.8706059381234 L 1037 401.6706954141032 L 1038 400.47115075018974 L 1039 399.2733046503818 L 1040 398.0784879315596 L 1041 396.88802804493594 L 1042 395.70324760124794 L 1043 394.52546290132403 L 1044 393.35598247366414 L 1045 392.1961056206528 L 1046 391.04712097502505 L 1047 389.9103050681829 L 1048 388.7869209119597 L 1049 387.6782165954031 L 1050 386.5854238981386 L 1051 385.50975692185085 L 1052 384.45241074140773 L 1053 383.41456007712264 L 1054 382.3973579896292 L 1055 381.40193459882266 L 1056 380.42939582828643 L 1057 379.4808221766033 L 1058 378.5572675169107 L 1059 377.65975792604047 L 1060 376.7892905445382 L 1061 375.9468324688327 L 1062 375.133319676783 L 1063 374.3496559877997 L 1064 373.596712058694 L 1065 372.87532441637137 L 1066 372.1862945284424 L 1067 371.53038791278607 L 1068 370.9083332870536 L 1069 370.3208217590561 L 1070 369.76850605893907 L 1071 369.251999813993 L 1072 368.77187686690934 L 1073 368.3286706382356 L 1074 367.92287353374144 L 1075 367.5549363973512 L 1076 367.2252680102533 L 1077 366.93423463674026 L 1078 366.6821596172865 L 1079 366.4693230093144 L 1080 366.2959612760478 L 1081 366.16226702380004 L 1082 366.0683887879861 L 1083 366.0144308680991 L 1084 366.0004532118322 L 1085 366.0264713484768 L 1086 366.0924563716687 L 1087 366.19833497150375 L 1088 366.34398951598587 L 1089 366.52925818171667 L 1090 366.75393513368306 L 1091 367.0177707539412 L 1092 367.3204719189446 L 1093 367.6617023252064 L 1094 368.0410828629356 L 1095 368.4581920372306 L 1096 368.91256643636433 L 1097 369.403701246638 L 1098 369.931050813233 L 1099 370.4940292464387 L 1100 371.09201107258 L 1101 371.72433192892436 L 1102 372.39028930179336 L 1103 373.08914330706216 L 1104 373.82011751217647 L 1105 374.58239979877544 L 1106 375.37514326496154 L 1107 376.1974671662163 L 1108 377.0484578939143 L 1109 377.9271699903499 L 1110 378.832627199148 L 1111 379.76382354989414 L 1112 380.719724475775 L 1113 381.6992679629906 L 1114 382.70136573066077 L 1115 383.7249044399142 L 1116 384.7687469308171 L 1117 385.8317334857662 L 1118 386.9126831179465 L 1119 388.01039488341564 L 1120 389.1236492153636 L 1121 390.2512092790604 L 1122 391.3918223459907 L 1123 392.5442211856452 L 1124 393.707125473424 L 1125 394.87924321308736 L 1126 396.0592721721751 L 1127 397.2459013287974 L 1128 398.4378123281896 L 1129 399.63368094741713 L 1130 400.832178566597 L 1131 402.03197364500585 L 1132 403.2317332004315 L 1133 404.4301242901291 L 1134 405.62581549173 L 1135 406.817478382464 L 1136 408.00378901504644 L 1137 409.1834293885963 L 1138 410.3550889129453 L 1139 411.5174658647142 L 1140 412.6692688335379 L 1141 413.8092181568339 L 1142 414.93604734151774 L 1143 416.04850447108606 L 1144 417.14535359650796 L 1145 418.2253761093733 L 1146 419.2873720957773 L 1147 420.33016166943395 L 1148 421.35258628254047 L 1149 422.3535100129328 L 1150 423.33182082610483 L 1151 424.286431810687 L 1152 425.2162823860152 L 1153 426.1203394804436 L 1154 426.9975986790961 L 1155 427.8470853397792 L 1156 428.6678556758181 L 1157 429.45899780461116 L 1158 430.21963276073853 L 1159 430.94891547250086 L 1160 431.64603570080027 L 1161 432.31021893932297 L 1162 432.94072727502163 L 1163 433.5368602079437 L 1164 434.0979554294919 L 1165 434.623389558255 L 1166 435.11257883258924 L 1167 435.5649797591828 L 1168 435.980089716881 L 1169 436.35744751510293 L 1170 436.69663390622713 L 1171 436.9972720513804 L 1172 437.25902793910785 L 1173 437.48161075646277 L 1174 437.6647732121024 L 1175 437.80831181103025 L 1176 437.91206708068097 L 1177 437.9759237480957 L 1178 437.999810867991 L 1179 437.9837019015801 L 1180 437.92761474605726 L 1181 437.83161171471414 L 1182 437.6957994677091 L 1183 437.5203288935668 L 1184 437.30539494153993 L 1185 437.0512364050192 L 1186 436.7581356562314 L 1187 436.42641833252185 L 1188 436.0564529745687 L 1189 435.64865061693104 L 1190 435.20346433138616 L 1191 434.7213887235629 L 1192 434.2029593834314 L 1193 433.6487522902572 L 1194 433.0593831726844 L 1195 432.43550682465553 L 1196 431.77781637793066 L 1197 431.0870425320115 L 1198 430.3639527423289 L 1199 429.60935036759315 L 1200 428.82407377725656 L 1201 428.00899542007693 L 1202 427.16502085482057 L 1203 426.2930877441792 L 1204 425.3941648130184 L 1205 424.46925077211665 L 1206 423.5193732085892 L 1207 422.54558744423093 L 1208 421.54897536304446 L 1209 420.5306442092582 L 1210 419.491725357169 L 1211 418.43337305417674 L 1212 417.35676313840463 L 1213 416.2630917323341 L 1214 415.1535739139027 L 1215 414.02944236654315 L 1216 412.8919460096608 L 1217 411.7423486110743 L 1218 410.5819273829601 L 1219 409.4119715628576 L 1220 408.2337809813166 L 1221 407.0486646177746 L 1222 405.8579391462704 L 1223 404.6629274726074 L 1224 403.4649572645951 L 1225 402.2653594769988 L 1226 401.0654668728387 L 1227 399.86661254267807 L 1228 398.67012842354944 L 1229 397.477343819161 L 1230 396.2895839230305 L 1231 395.10816834618254 L 1232 393.9344096510509 L 1233 392.76961189321133 L 1234 391.6150691725639 L 1235 390.472064195578 L 1236 389.3418668501946 L 1237 388.2257327949713 L 1238 387.12490206403373 L 1239 386.04059768938845 L 1240 384.974024342124 L 1241 383.92636699401197 L 1242 382.89878960099264 L 1243 381.8924338100111 L 1244 380.9084176906373 L 1245 379.9478344928831 L 1246 379.0117514325906 L 1247 378.1012085057476 L 1248 377.2172173330439 L 1249 376.36076003595105 L 1250 375.53278814557854 L 1251 374.7342215455141 L 1252 373.96594744982633 L 1253 373.2288194173616 L 1254 372.5236564034336 L 1255 371.85124184995726 L 1256 371.21232281503853 L 1257 370.6076091429861 L 1258 370.0377726756691 L 1259 369.50344650609463 L 1260 369.00522427503716 L 1261 368.5436595114978 L 1262 368.1192650177294 L 1263 367.73251229950927 L 1264 367.3838310422919 L 1265 367.07360863382513 L 1266 366.80218973375923 L 1267 366.56987589072725 L 1268 366.37692520732156 L 1269 366.22355205334037 L 1270 366.10992682762054 L 1271 366.0361757687235 L 1272 366.0023808146831 L 1273 366.00857951197133 L 1274 366.05476497378464 L 1275 366.1408858876946 L 1276 366.26684657265673 L 1277 366.4325070853128 L 1278 366.6376833754692 L 1279 366.88214749057795 L 1280 367.1656278289944 L 1281 367.48780944172825 L 1282 367.8483343823548 L 1283 368.24680210469626 L 1284 368.6827699078321 L 1285 369.1557534279433 L 1286 369.6652271764441 L 1287 370.2106251238049 L 1288 370.7913413284152 L 1289 371.40673060979015 L 1290 372.0561092653705 L 1291 372.73875583012284 L 1292 373.4539118780928 L 1293 374.2007828650221 L 1294 374.9785390110945 L 1295 375.7863162228273 L 1296 376.62321705308705 L 1297 377.4883116981598 L 1298 378.3806390307716 L 1299 379.2992076679082 L 1300 380.24299707225026 L 1301 381.21095868599775 L 1302 382.2020170958275 L 1303 383.2150712276856 L 1304 384.24899557008996 L 1305 385.3026414245822 L 1306 386.3748381819422 L 1307 387.46439462274395 L 1308 388.5701002408096 L 1309 389.69072658809307 L 1310 390.8250286394949 L 1311 391.9717461760962 L 1312 393.12960518527086 L 1313 394.29731927612585 L 1314 395.473591108691 L 1315 396.6571138352748 L 1316 397.84657255238204 L 1317 399.040645761584 L 1318 400.238006837713 L 1319 401.4373255027543 L 1320 402.6372693037949 L 1321 403.83650509339157 L 1322 405.0337005107075 L 1323 406.22752546177543 L 1324 407.4166535972448 L 1325 408.59976378596554 L 1326 409.77554158277604 L 1327 410.942680688862 L 1328 412.0998844030663 L 1329 413.24586706253365 L 1330 414.3793554710934 L 1331 415.49909031378957 L 1332 416.6038275559921 L 1333 417.69233982552817 L 1334 418.7634177763034 L 1335 419.8158714318946 L 1336 420.8485315076244 L 1337 421.86025070964564 L 1338 422.8499050095937 L 1339 423.8163948933926 L 1340 424.75864658282296 L 1341 425.6756132284993 L 1342 426.5662760729274 L 1343 427.42964558235326 L 1344 428.2647625461427 L 1345 429.0706991424727 L 1346 429.8465599691479 L 1347 430.59148303840146 L 1348 431.3046407345696 L 1349 431.9852407335797 L 1350 432.63252688322825 L 1351 433.24578004327327 L 1352 433.82431888440436 L 1353 434.3675006452049 L 1354 434.8747218462662 L 1355 435.3454189606572 L 1356 435.7790690400079 L 1357 436.1751902955095 L 1358 436.5333426331852 L 1359 436.85312814283884 L 1360 437.134191540136 L 1361 437.37622056132784 L 1362 437.57894631017894 L 1363 437.742143556713 L 1364 437.86563098744546 L 1365 437.94927140682375 L 1366 437.9929718896533 L 1367 437.99668388433787 L 1368 437.9604032668208 L 1369 437.8841703451668 L 1370 437.76806981477966 L 1371 437.6122306643046 L 1372 437.41682603232107 L 1373 437.18207301498416 L 1374 436.9082324248291 L 1375 436.5956085010065 L 1376 436.24454857127 L 1377 435.85544266609224 L 1378 435.42872308533777 L 1379 434.9648639179745 L 1380 434.4643805153571 L 1381 433.92782891866693 L 1382 433.35580524114584 L 1383 432.74894500581 L 1384 432.10792243937783 L 1385 431.433449723199 L 1386 430.72627620201473 L 1387 429.98718755143045 L 1388 429.2170049050227 L 1389 428.4165839420535 L 1390 427.58681393680337 L 1391 426.7286167705811 L 1392 425.8429459075047 L 1393 424.9307853351961 L 1394 423.9931484715617 L 1395 423.03107703887827 L 1396 422.04563990642924 L 1397 421.03793190298285 L 1398 420.00907260042914 L 1399 418.9602050699249 L 1400 417.8924946119332 L 1401 416.8071274615644 L 1402 415.70530947066027 L 1403 414.58826476808116 L 1404 413.4572343996896 L 1405 412.3134749495378 L 1406 411.15825714379355 L 1407 409.99286443895096 L 1408 408.8185915959014 L 1409 407.63674324144245 L 1410 406.4486324188281 L 1411 405.25557912896517 L 1412 404.05890886388244 L 1413 402.8599511340986 L 1414 401.6600379915237 L 1415 400.46050254953957 L 1416 399.26267750189925 L 1417 398.0678936420945 L 1418 396.87747838483125 L 1419 395.6927542912627 L 1420 394.51503759961184 L 1421 393.3456367628212 L 1422 392.1858509948493 L 1423 391.0369688272345 L 1424 389.9002666775249 L 1425 388.7770074311691 L 1426 387.6684390384389 L 1427 386.57579312794667 L 1428 385.5002836382964 L 1429 384.4431054693871 L 1430 383.4054331548693 L 1431 382.3884195572288 L 1432 381.39319458694735 L 1433 380.42086394716165 L 1434 379.47250790521895 L 1435 378.54918009249064 L 1436 377.65190633378 L 1437 376.7816835076211 L 1438 375.9394784387395 L 1439 375.1262268239015 L 1440 374.342832192348 L 1441 373.5901649019652 L 1442 372.86906117231024 L 1443 372.18032215556474 L 1444 371.5247130464476 L 1445 370.90296223207724 L 1446 370.3157604827282 L 1447 369.7637601843793 L 1448 369.2475746139072 L 1449 368.76777725773115 L 1450 368.32490117466455 L 1451 367.9194384036826 L 1452 367.55183941726244 L 1453 367.2225126209049 L 1454 366.9318238993925 L 1455 366.6800962102885 L 1456 366.46760922512823 L 1457 366.2945990187019 L 1458 366.16125780677345 L 1459 366.0677337325273 L 1460 366.01413070198004 L 1461 366.00050826854 L 1462 366.0268815668429 L 1463 366.09322129593716 L 1464 366.19945375183744 L 1465 366.3454609094106 L 1466 366.53108055350225 L 1467 366.75610645915935 L 1468 367.0202886207478 L 1469 367.3233335297108 L 1470 367.664904500659 L 1471 368.0446220454312 L 1472 368.4620642947085 L 1473 368.91676746671453 L 1474 369.408226382481 L 1475 369.93589502710586 L 1476 370.4991871563799 L 1477 371.09747694810915 L 1478 371.7300996974085 L 1479 372.3963525551943 L 1480 373.0954953090557 L 1481 373.8267512056359 L 1482 374.58930781361255 L 1483 375.3823179263151 L 1484 376.2049005029787 L 1485 377.05614164758697 L 1486 377.935095624219 L 1487 378.84078590776954 L 1488 379.7722062688754 L 1489 380.728321891846 L 1490 381.70807052435134 L 1491 382.71036365759346 L 1492 383.73408773564773 L 1493 384.77810539263396 L 1494 385.84125671633865 L 1495 386.922360536887 L 1496 388.0202157390319 L 1497 389.13360259660396 L 1498 390.26128412763654 L 1499 391.40200746866316 L 1500 392.55450526665857 L 1501 393.7174970870794 L 1502 394.889690836437 L 1503 396.06978419782325 L 1504 397.2564660777967 L 1505 398.44841806301713 L 1506 399.6443158850146 L 1507 400.8428308914608 L 1508 402.042631522315 L 1509 403.2423847891969 L 1510 404.44075775634815 L 1511 405.636419021534 L 1512 406.82804019524366 L 1513 408.0142973765411 L 1514 409.1938726239301 L 1515 410.3654554195974 L 1516 411.52774412541027 L 1517 412.67944742904604 L 1518 413.8192857786505 L 1519 414.9459928044318 L 1520 416.0583167256067 L 1521 417.15502174113976 L 1522 418.23488940272773 L 1523 419.296719968507 L 1524 420.33933373597546 L 1525 421.36157235265256 L 1526 422.3623001030174 L 1527 423.3404051702993 L 1528 424.2948008717144 L 1529 425.22442686578 L 1530 426.1282503303615 L 1531 427.0052671101476 L 1532 427.85450283227453 L 1533 428.6750139888619 L 1534 429.4658889852586 L 1535 430.2262491528312 L 1536 430.9552497251729 L 1537 431.6520807766446 L 1538 432.31596812221045 L 1539 432.94617417756285" stroke-linecap="round" stroke-linejoin="round" stroke-miterlimit="10" stroke-width="8"/></g></svg>