<svg version="1.1" xmlns="http://www.w3.org/2000/svg" xmlns:xlink="http://www.w3.org/1999/xlink" width="1560" height="804"><defs/><g><path fill="none" stroke="#cf213e" paint-order="fill stroke markers" d=" M 20 465.6920897161829 L 21 468.35442178548215 L 22 470.943033545798 L 23 473.4550490281494 L 24 475.88767736265083 L 25 478.23821587919184 L 26 480.5040531101255 L 27 482.6826716916308 L 28 484.77165116052436 L 29 486.768670643415 L 30 488.67151143521335 L 31 490.4780594641311 L 32 492.18630764043263 L 33 493.79435808632786 L 34 495.3004242445303 L 35 496.7028328631368 L 36 498.0000258546243 L 37 499.1905620268979 L 38 500.27311868446697 L 39 501.24649309797087 L 40 502.1096038404212 L 41 502.86149198867605 L 42 503.5013221888114 L 43 504.0283835842064 L 44 504.4420906053108 L 45 504.74198362021764 L 46 504.9277294453178 L 47 504.9991217154703 L 48 504.95608111327505 L 49 504.7986554571955 L 50 504.5270196484318 L 51 504.1414754766042 L 52 503.6424512844625 L 53 503.03050149199294 L 54 502.3063059804541 L 55 501.47066933702246 L 56 500.52451996088973 L 57 499.4689090318037 L 58 498.3050093421987 L 59 497.03411399421367 L 60 495.6576349630452 L 61 494.1771015282312 L 62 492.59415857460885 L 63 490.910564764834 L 64 489.1281905854924 L 65 487.24901626897395 L 66 485.2751295934178 L 67 483.20872356317403 L 68 481.0520939723576 L 69 478.8076368542022 L 70 476.47784581904745 L 71 474.06530928391754 L 72 471.57270759676857 L 73 469.00281005859955 L 74 466.3584718467367 L 75 463.64263084270755 L 76 460.8583043682305 L 77 458.0085858329455 L 78 455.0966412976108 L 79 452.1257059565827 L 80 449.09908054348864 L 81 446.0201276640845 L 82 442.89226806037226 L 83 439.71897681012723 L 84 436.50377946605823 L 85 433.25024813888916 L 86 429.9619975287151 L 87 426.64268090904017 L 88 423.295986067961 L 89 419.9256312110035 L 90 416.5353608301663 L 91 413.1289415437588 L 92 409.7101579116575 L 93 406.2828082306289 L 94 402.85070031439034 L 95 399.4176472630976 L 96 395.9874632269593 L 97 392.5639591686846 L 98 389.1509386294724 L 99 385.75219350324545 L 100 382.371499823825 L 101 379.01261356972657 L 102 375.6792664912364 L 103 372.3751619644063 L 104 369.10397087657236 L 105 365.86932754796914 L 106 362.67482569396964 L 107 359.52401443243787 L 108 356.4203943406302 L 109 353.36741356602454 L 110 350.3684639954005 L 111 347.42687748642516 L 112 344.5459221659319 L 113 341.7287987990043 L 114 338.9786372328999 L 115 336.29849291976427 L 116 333.6913435219982 L 117 331.1600856040507 L 118 328.7075314143116 L 119 326.3364057606806 L 120 324.0493429832834 L 121 321.84888402769803 L 122 319.7374736219432 L 123 317.71745756036574 L 124 315.7910800974432 L 125 313.9604814543995 L 126 312.22769544140044 L 127 310.5946471979747 L 128 309.0631510541678 L 129 307.63490851480617 L 130 306.3115063691115 L 131 305.094414927765 L 132 303.98498638937986 L 133 302.98445333819745 L 134 302.09392737467647 L 135 301.314397880495 L 136 300.6467309193401 L 137 300.09166827470324 L 138 299.6498266257532 L 139 299.32169686220016 L 140 299.1076435389134 L 141 299.00790447089764 L 142 299.02259046907864 L 143 299.15168521719164 L 144 299.3950452899084 L 145 299.75240031218425 L 146 300.2233532596469 L 147 300.8073808996937 L 148 301.50383437280766 L 149 302.31193991344526 L 150 303.2307997096967 L 151 304.2593929007623 L 152 305.39657671113696 L 153 306.64108772024355 L 154 307.99154326610335 L 155 309.44644298148484 L 156 311.00417046082424 L 157 312.6629950560652 L 158 314.4210737994233 L 159 316.27645345093816 L 160 318.2270726685393 L 161 320.2707642982139 L 162 322.4052577817333 L 163 324.6281816792612 L 164 326.93706630404336 L 165 329.3293464662496 L 166 331.8023643229212 L 167 334.3533723308558 L 168 336.9795362991509 L 169 339.67793853801334 L 170 342.4455811003362 L 171 345.2793891124433 L 172 348.176214190299 L 173 351.1328379373884 L 174 354.145975520383 L 175 357.21227931861705 L 176 360.328342643322 L 177 363.49070352248566 L 178 366.6958485471315 L 179 369.94021677474507 L 180 373.2202036855106 L 181 376.532165186962 L 182 379.8724216625995 L 183 383.2372620599741 L 184 386.62294801369757 L 185 390.0257179987963 L 186 393.4417915097979 L 187 396.8673732609025 L 188 400.29865740257776 L 189 403.73183174988804 L 190 407.1630820178638 L 191 410.58859605920355 L 192 414.0045680996008 L 193 417.4072029659906 L 194 420.79272030301826 L 195 424.157358773045 L 196 427.4973802350254 L 197 430.8090738976125 L 198 434.0887604418779 L 199 437.33279610906516 L 200 440.53757674883565 L 201 443.6995418235096 L 202 446.8151783638527 L 203 449.88102487201354 L 204 452.8936751672766 L 205 455.849782170357 L 206 458.7460616220328 L 207 461.5792957319846 L 208 464.34633675378655 L 209 467.04411048207885 L 210 469.66961966803524 L 211 472.21994734933105 L 212 474.6922600909122 L 213 477.08381113296525 L 214 479.3919434425897 L 215 481.61409266578374 L 216 483.74778997646274 L 217 485.7906648193451 L 218 487.74044754365883 L 219 489.59497192474214 L 220 491.352177570737 L 221 493.0101122117015 L 222 494.5669338685976 L 223 496.02091289974516 L 224 497.3704339224682 L 225 498.6139976077981 L 226 499.7502223462407 L 227 500.7778457827556 L 228 501.69572621924306 L 229 502.5028438829802 L 230 503.1983020595965 L 231 503.78132808933105 L 232 504.25127422546416 L 233 504.6076183539689 L 234 504.8499645735843 L 235 504.9780436356648 L 236 504.99171324331775 L 237 504.8909582094965 L 238 504.6758904738733 L 239 504.3467489784734 L 240 503.9038994022083 L 241 503.3478337546039 L 242 502.67916982917336 L 243 501.8986505170439 L 244 501.00714298159824 L 245 500.00563769504913 L 246 498.89524733801665 L 247 497.6772055633307 L 248 496.3528656254325 L 249 494.92369887689824 L 250 493.3912931337535 L 251 491.75735091139734 L 252 490.02368753309287 L 253 488.19222911312903 L 254 486.26501041689096 L 255 484.2441726002195 L 256 482.131960830569 L 257 479.9307217926082 L 258 477.64290108103364 L 259 475.27104048349463 L 260 472.8177751566453 L 261 470.2858306984649 L 262 467.6780201200949 L 263 464.9972407205613 L 264 462.2464708678515 L 265 459.4287666899221 L 266 456.5472586793167 L 267 453.6051482151621 L 268 450.6057040064101 L 269 447.55225846027486 L 270 444.44820397990094 L 271 441.29698919537566 L 272 438.1021151322726 L 273 434.86713132198327 L 274 431.5956318581586 L 275 428.2912514036413 L 276 424.9576611523255 L 277 421.59856475043006 L 278 418.2176941817169 L 279 414.81880562122734 L 280 411.4056752621392 L 281 407.98209512038596 L 282 404.55186882169585 L 283 401.1188073757321 L 284 397.68672494202985 L 285 394.25943459243365 L 286 390.8407440747431 L 287 387.43445158227377 L 288 384.0443415340331 L 289 380.67418037019974 L 290 377.3277123675775 L 291 374.00865547967294 L 292 370.72069720601854 L 293 367.46749049533014 L 294 364.25264968705136 L 295 361.0797464957919 L 296 357.9523060431237 L 297 354.8738029411419 L 298 351.847657432142 L 299 348.87723158870256 L 300 345.9658255783949 L 301 343.1166739972698 L 302 340.3329422761945 L 303 337.6177231640331 L 304 334.97403329157714 L 305 332.4048098200436 L 306 329.9129071778651 L 307 327.50109388939615 L 308 325.1720494990594 L 309 322.92836159435103 L 310 320.77252293100787 L 311 318.70692866353687 L 312 316.73387368417764 L 313 314.8555500732591 L 314 313.07404466377943 L 315 311.39133672291797 L 316 309.80929575305294 L 317 308.3296794147288 L 318 306.95413157388094 L 319 305.68418047548715 L 320 304.52123704567487 L 321 303.4665933241706 L 322 302.52142102883323 L 323 301.6867702538656 L 324 300.96356830315136 L 325 300.3526186600129 L 326 299.8546000945345 L 327 299.4700659094431 L 328 299.1994433253848 L 329 299.0430330062788 L 330 299.00100872527753 L 331 299.0734171717033 L 332 299.26017789917586 L 333 299.5610834149891 L 334 299.9757994106373 L 335 300.5038651332344 L 336 301.1446938974143 L 337 301.8975737371433 L 338 302.7616681967201 L 339 303.73601726008485 L 340 304.81953841740506 L 341 306.01102786775306 L 342 307.30916185653837 L 343 308.7124981462104 L 344 310.21947761859576 L 345 311.8284260070919 L 346 313.53755575679054 L 347 315.3449680104664 L 348 317.248654718223 L 349 319.2465008684525 L 350 321.33628683763123 L 351 323.5156908563396 L 352 325.78229158876695 L 353 328.133570822836 L 354 330.5669162679564 L 355 333.07962445730186 L 356 335.66890375138377 L 357 338.3318774395856 L 358 341.06558693621207 L 359 343.8669950675024 L 360 346.7329894459552 L 361 349.66038592821667 L 362 352.64593215268997 L 363 355.68631115293607 L 364 358.7781450428503 L 365 361.91799876952206 L 366 365.1023839296066 L 367 368.3277626449701 L 368 371.59055149330123 L 369 374.8871254893225 L 370 378.2138221121797 L 371 381.5669453745319 L 372 384.94276992882413 L 373 388.3375452061792 L 374 391.7474995833104 L 375 395.16884457282634 L 376 398.5977790322714 L 377 402.0304933872264 L 378 405.46317386377706 L 379 408.89200672564846 L 380 412.313182511297 L 381 415.72290026625404 L 382 419.1173717660173 L 383 422.4928257247998 L 384 425.84551198545853 L 385 429.17170568595117 L 386 432.46771139768776 L 387 435.72986723118237 L 388 438.95454890444256 L 389 442.13817376957644 L 390 445.277204793144 L 391 448.36815448583053 L 392 451.4075887770757 L 393 454.3921308303545 L 394 457.3184647948702 L 395 460.1833394894919 L 396 462.98357201484396 L 397 465.71605128953274 L 398 468.37774150658424 L 399 470.96568550625005 L 400 473.4770080614368 L 401 475.90891907210676 L 402 478.2587166651022 L 403 480.5237901959484 L 404 482.70162314930127 L 405 484.789795934817 L 406 486.7859885753361 L 407 488.6879832843979 L 408 490.4936669302191 L 409 492.20103338340067 L 410 493.80818574575426 L 411 495.3133384577716 L 412 496.71481928239575 L 413 498.0110711628905 L 414 499.2006539527428 L 415 500.28224601567786 L 416 501.25464569400765 L 417 502.1167726436825 L 418 502.8676690345625 L 419 503.50650061457407 L 420 504.03255763657165 L 421 504.4452556468721 L 422 504.7441361345877 L 423 504.9288670410355 L 424 504.9992431286574 L 425 504.9551862090405 L 426 504.79674522978524 L 427 504.5240962201243 L 428 504.1375420953524 L 429 503.63751232028517 L 430 503.0245624321201 L 431 502.2993734232302 L 432 501.46275098457556 L 433 500.51562461057466 L 434 499.4590465664279 L 435 498.2941907190424 L 436 497.0223512328563 L 437 495.64494113201147 L 438 494.16349073047195 L 439 492.57964593183243 L 440 490.895166400706 L 441 489.11192360772225 L 442 487.2318987503078 L 443 485.25718055155977 L 444 483.18996293965756 L 445 481.0325426103899 L 446 478.78731647550734 L 447 476.4567789997335 L 448 474.04351942939434 L 449 471.55021891574376 L 450 468.97964753618305 L 451 466.3346612166816 L 452 463.61819855881987 L 453 460.8332775749788 L 454 457.9829923353033 L 455 455.0705095301646 L 456 452.0990649519414 L 457 449.07195990002765 L 458 445.9925575130619 L 459 442.86427903245306 L 460 439.6906000013519 L 461 436.4750464032949 L 462 433.22119074480736 L 463 429.93264808631875 L 464 426.6130720258015 L 465 423.26615063959304 L 466 419.89560238491293 L 467 416.50517196862614 L 468 413.09862618684275 L 469 409.6797497399768 L 470 406.2523410279126 L 471 402.82020792995155 L 472 399.3871635742265 L 473 395.9570221012851 L 474 392.5335944265488 L 475 389.1206840063535 L 476 385.72208261227877 L 477 382.3415661184585 L 478 378.9828903065533 L 479 375.6497866930465 L 480 372.34595838349827 L 481 369.075075958365 L 482 365.8407733949548 L 483 362.64664403004707 L 484 359.4962365676682 L 485 356.3930511364494 L 486 353.340535400958 L 487 350.3420807313106 L 488 347.40101843533597 L 489 344.5206160574617 L 490 341.7040737484483 L 491 338.9545207099926 L 492 336.2750117181614 L 493 333.6685237295079 L 494 331.1379525736505 L 495 328.6861097359803 L 496 326.31571923407927 L 497 324.0294145913137 L 498 321.82973591096726 L 499 319.71912705416696 L 500 317.6999329247317 L 501 315.7743968639661 L 502 313.94465815828875 L 503 312.2127496624686 L 504 310.580595541105 L 505 309.0500091308669 L 506 307.62269092585893 L 507 306.30022668836006 L 508 305.08408568702737 L 509 303.9756190645276 L 510 302.97605833640563 L 511 302.0865140228611 L 512 301.30797441495116 L 513 300.64130447659073 L 514 300.08724488357103 L 515 299.6464112006621 L 516 299.31929319771564 L 517 299.10625430552636 L 518 299.00753121205787 L 519 299.02323359947985 L 520 299.1533440223106 L 521 299.3977179267989 L 522 299.7560838115248 L 523 300.2280435290394 L 524 300.81307272821016 L 525 301.51052143677975 L 526 302.3196147834899 L 527 303.23945385897 L 528 304.26901671443323 L 529 305.4071594970692 L 530 306.6526177208749 L 531 308.004007671508 L 532 309.4598279436059 L 533 311.01846110885845 L 534 312.67817551298515 L 535 314.43712719961604 L 536 316.29336195894416 L 537 318.24481749886667 L 538 320.28932573621034 L 539 322.42461520548807 L 540 324.64831358251735 L 541 326.9579503200906 L 542 329.350959392774 L 543 331.8246821477835 L 544 334.3763702587686 L 545 337.00318877922723 L 546 339.70221929215273 L 547 342.47046315242125 L 548 345.30484481830894 L 549 348.20221526844665 L 550 351.1593555004059 L 551 354.17298010703973 L 552 357.23974092659466 L 553 360.35623076254814 L 554 363.51898716902986 L 555 366.7244962976299 L 556 369.96919680131106 L 557 373.24948379109566 L 558 376.56171284112804 L 559 379.9022040376591 L 560 383.26724606746376 L 561 386.65310034113753 L 562 390.05600514670306 L 563 393.4721798289002 L 564 396.89782898952814 L 565 400.32914670416096 L 566 403.7623207505641 L 567 407.1935368441016 L 568 410.6189828754406 L 569 414.0348531458338 L 570 417.4373525952841 L 571 420.8227010188858 L 572 424.18713726666414 L 573 427.52692342224486 L 574 430.8383489557077 L 575 434.11773484601855 L 576 437.36143766844924 L 577 440.56585364245524 L 578 443.72742263550276 L 579 446.842632118408 L 580 449.90802106778335 L 581 452.9201838112655 L 582 455.8757738112427 L 583 458.77150738288873 L 584 461.60416734236054 L 585 464.3706065811189 L 586 467.0677515623896 L 587 469.6926057358893 L 588 472.24225286701795 L 589 474.7138602768179 L 590 477.10468198910553 L 591 479.4120617812713 L 592 481.633436135367 L 593 483.76633708619346 L 594 485.8083949632319 L 595 487.7573410233655 L 596 489.61100997147395 L 597 491.36734236609175 L 598 493.0243869074668 L 599 494.5803026054688 L 600 496.03336082494565 L 601 497.3819472062506 L 602 498.62456345880923 L 603 499.75982902573315 L 604 500.78648261762925 L 605 501.7033836139034 L 606 502.50951332999847 L 607 503.20397614916226 L 608 503.7860005174841 L 609 504.25493980109843 L 610 504.6102730045996 L 611 504.85160534987267 L 612 504.97866871469495 L 613 504.99132193062167 L 614 504.8895509398259 L 615 504.6734688107163 L 616 504.3433156123177 L 617 503.899458147552 L 618 503.3423895457175 L 619 502.67272871461773 L 620 501.8912196529503 L 621 500.998730623718 L 622 499.996253189581 L 623 498.8849011112236 L 624 497.66590910995575 L 625 496.3406314959286 L 626 494.9105406634838 L 627 493.37722545531216 L 628 491.7423893972354 L 629 490.0078488055761 L 630 488.17553076921376 L 631 486.2474710085749 L 632 484.22581161392986 L 633 482.11279866551257 L 634 479.91077973810826 L 635 477.62220129287687 L 636 475.24960595931617 L 637 472.79562971037797 L 638 470.26299893388193 L 639 467.6545274034746 L 640 464.9731131525057 L 641 462.2217352542868 L 642 459.4034505123191 L 643 456.52139006415683 L 644 453.57875590269015 L 645 450.5788173187022 L 646 447.52490726866245 L 647 444.4204186717834 L 648 441.26880064045884 L 649 438.07355464827344 L 650 434.8382306398343 L 651 431.566423086756 L 652 428.26176699417033 L 653 424.92793386220814 L 654 421.5686276069301 L 655 418.1875804452478 L 656 414.7885487483978 L 657 411.37530886858434 L 658 407.95165294341876 L 659 404.52138468282595 L 660 401.0883151430884 L 661 397.6562584927339 L 662 394.22902777496193 L 663 390.8104306713198 L 664 387.40426527134 L 665 384.0143158528286 L 666 380.64434867750384 L 667 377.2981078066461 L 668 373.9793109414174 L 669 370.69164529246217 L 670 367.4387634833886 L 671 364.2242794926709 L 672 361.0517646384924 L 673 357.9247436109788 L 674 354.8466905562409 L 675 351.82102521656753 L 676 348.8511091310654 L 677 345.94024190096087 L 678 343.0916575237149 L 679 340.30852080002717 L 680 337.5939238177142 L 681 334.95088251637657 L 682 332.382333336663 L 683 329.8911299578629 L 684 327.48004012744275 L 685 325.1517425860582 L 686 322.9088240914491 L 687 320.7537765445321 L 688 318.68899422087674 L 689 316.71677111064685 L 690 314.8392983699574 L 691 313.0586618864831 L 692 311.37683996201946 L 693 309.7957011145728 L 694 308.3170020024224 L 695 306.94238547245766 L 696 305.6733787349625 L 697 304.5113916668714 L 698 303.45771524538543 L 699 302.51352011368476 L 700 301.6798552803357 L 701 300.95764695383264 L 702 300.34769751357317 L 703 299.8506846184079 L 704 299.4671604537559 L 705 299.1975511181222 L 706 299.0421561496986 L 707 299.0011481935747 L 708 299.07457280992736 L 709 299.2623484234032 L 710 299.5642664137495 L 711 299.9799913475929 L 712 300.5090613511087 L 713 301.15088862316645 L 714 301.9047600883821 L 715 302.7698381893499 L 716 303.7451618171768 L 717 304.8296473792808 L 718 306.02209000327275 L 719 307.32116487557835 L 720 308.72542871331774 L 721 310.23332136780397 L 722 311.84316755788143 L 723 313.55317873117724 L 724 315.36145505119697 L 725 317.2659875080596 L 726 319.2646601505227 L 727 321.35525243682326 L 728 323.5354417017164 L 729 325.802805736977 L 730 328.1548254824913 L 731 330.58888782495535 L 732 333.1022885010635 L 733 335.6922351019691 L 734 338.3558501756718 L 735 341.0901744238922 L 736 343.8921699898752 L 737 346.7587238334743 L 738 349.68665118976594 L 739 352.6726991073473 L 740 355.71355006239463 L 741 358.8058256444572 L 742 361.94609030990125 L 743 365.1308551988251 L 744 368.3565820112136 L 745 371.6196869380161 L 746 374.91654464279026 L 747 378.24349228947824 L 748 381.5968336118503 L 749 384.97284302008427 L 750 388.3677697399294 L 751 391.77784197984477 L 752 395.1992711214922 L 753 398.62825592892295 L 754 402.0609867717801 L 755 405.49364985783205 L 756 408.9224314701239 L 757 412.34352220405174 L 758 415.75312119963917 L 759 419.1474403643274 L 760 422.52270858157397 L 761 425.87517590059736 L 762 429.20111770260036 L 763 432.49683883885496 L 764 435.7586777360403 L 765 438.9830104642833 L 766 442.16625476337276 L 767 445.3048740226802 L 768 448.3953812103651 L 769 451.4343427474932 L 770 454.4183823227737 L 771 457.3441846436666 L 772 460.2084991197021 L 773 463.0081434739112 L 774 465.74000727836403 L 775 468.4010554098783 L 776 470.98833142206877 L 777 473.49896082998094 L 778 475.93015430367 L 779 478.2792107671671 L 780 480.5435203993991 L 781 482.7205675337193 L 782 484.80793345283496 L 783 486.8032990760224 L 784 488.7044475356435 L 785 490.5092666401055 L 786 492.2157512205216 L 787 493.82200535847164 L 788 495.3262444923817 L 789 496.72679740018805 L 790 498.0221080560773 L 791 499.21073735924506 L 792 500.29136473274775 L 793 501.26278959067565 L 794 502.1239326720122 L 795 502.87383723970345 L 796 503.5116701435997 L 797 504.03672274609255 L 798 504.4484117094173 L 799 504.74627964374577 L 800 504.9299956153501 L 801 504.99935551427313 L 802 504.954282281096 L 803 504.794825992552 L 804 504.5211638058906 L 805 504.13359976205464 L 806 503.6325644478881 L 807 503.01861451775073 L 808 502.2924320750702 L 809 501.45482391452015 L 810 500.50672062566383 L 811 499.44917555906204 L 812 498.28336365599216 L 813 497.01058014307785 L 814 495.6322390932826 L 815 494.149871854862 L 816 492.5651253500246 L 817 490.87976024518605 L 818 489.095648994856 L 819 487.214773761324 L 820 485.2392242124625 L 821 483.1711952000871 L 822 481.0129843214596 L 823 478.76698936663706 L 824 476.43570565450887 L 825 474.0217232604751 L 826 471.52772413885305 L 827 468.9564791432035 L 828 466.3108449478883 L 829 463.5937608742839 L 830 460.80824562516864 L 831 457.9573939309215 L 832 455.044373111249 L 833 452.0724195562688 L 834 449.0448351308519 L 835 445.9649835062253 L 836 442.83628642290375 L 837 439.66221988911 L 838 436.44631031889844 L 839 433.192130614283 L 840 429.9032961957105 L 841 426.5834609853015 L 842 423.2363133473115 L 843 419.8655719903269 L 844 416.4749818357516 L 845 413.06830985716556 L 846 409.6493408951892 L 847 406.22187345249125 L 848 402.78971547362397 L 849 399.35668011436235 L 850 395.9265815052599 L 851 392.5032305141148 L 852 389.0904305120678 L 853 385.6919731480223 L 854 382.3116341360943 L 855 378.95316906076 L 856 375.62030920437275 L 857 372.3167574016772 L 858 369.0461839259276 L 859 365.812222411187 L 860 362.618465815327 L 861 359.46846242822437 L 862 356.3657119295795 L 863 353.313661500746 L 864 350.31570199488084 L 865 347.37516416968185 L 866 344.4953149868853 L 867 341.67935398264734 L 868 338.9304097128304 L 869 336.2515362771544 L 870 333.64570992606434 L 871 331.11582575409363 L 872 328.6646944833893 L 873 326.2950393409759 L 874 324.00949303322943 L 875 321.81059482091723 L 876 319.7007876980598 L 877 317.68241567774294 L 878 315.75772118790155 L 879 313.9288425799618 L 880 312.1978117531169 L 881 310.566551896869 L 882 309.0368753543509 L 883 307.61048160879676 L 884 306.28895539540355 L 885 305.0737649406758 L 886 303.96626033121504 L 887 302.96767201376207 L 888 302.0791094281599 L 889 301.30155977475806 L 890 300.6358869176238 L 891 300.08283042478286 L 892 299.6430047465528 L 893 299.31689853288367 L 894 299.1048740904642 L 895 299.0071669801958 L 896 299.0238857554824 L 897 299.15501184162713 L 898 299.4003995564684 L 899 299.7597762722346 L 900 300.23274271843525 L 901 300.8187734254541 L 902 301.51721730835 L 903 302.32729839021806 L 904 303.24811666430577 L 905 304.2786490939285 L 906 305.41775074907105 L 907 306.66415607841515 L 908 308.0164803153764 L 909 309.47322101659245 L 910 311.03275973114876 L 911 312.6933637986921 L 912 314.4531882744292 L 913 316.31027797887714 L 914 318.262569670082 L 915 320.3078943358996 L 916 322.4439796037844 L 917 324.6684522654143 L 918 326.9788409133459 L 919 329.3725786867664 L 920 331.84700612329954 L 921 334.3993741136876 L 922 337.02684695607695 L 923 339.7265055065038 L 924 342.49535042208964 L 925 345.3303054933331 L 926 348.228221061807 L 927 351.1858775194518 L 928 354.19998888558973 L 929 357.2672064576733 L 930 360.3841225317243 L 931 363.5472741883186 L 932 366.7531471399193 L 933 369.99817963527966 L 934 373.27876641657633 L 935 376.59126272488265 L 936 379.9319883495236 L 937 383.2972317168223 L 938 386.6832540136868 L 939 390.0862933414646 L 940 393.5025688954402 L 941 396.9282851653435 L 942 400.3596361521895 L 943 403.792809596778 L 944 407.22399121514167 L 945 410.6493689362499 L 946 414.0651371372488 L 947 417.4675008715404 L 948 420.85268008500054 L 949 424.216913815648 L 950 427.5564643721067 L 951 430.86762148620903 L 952 434.1467064351369 L 953 437.39007612851054 L 954 440.59412715589457 L 955 443.7552997902139 L 956 446.8700819426425 L 957 449.9350130645604 L 958 452.94668799225445 L 959 455.90176073008035 L 960 458.79694816789413 L 961 461.6290337286121 L 962 464.394870941857 L 963 467.09138693970914 L 964 469.7155858706917 L 965 472.26455222818396 L 966 474.73545408957443 L 967 477.125546262548 L 968 479.4321733350204 L 969 481.6527726253207 L 970 483.78487702935286 L 971 485.8261177615668 L 972 487.7742269867013 L 973 489.6270403393661 L 974 491.38249932867006 L 975 493.03865362522055 L 976 494.5936632279572 L 977 496.0458005084073 L 978 497.39345213009443 L 979 498.6351208409703 L 980 499.76942713687276 L 981 500.7951107941673 L 982 501.7110322698643 L 983 502.51617396766267 L 984 503.20964136850637 L 985 503.790664024403 L 986 504.25859641439723 L 987 504.61291866175094 L 988 504.8532371115297 L 989 504.979284767957 L 990 504.9909215910485 L 991 504.88813465219806 L 992 504.671038148541 L 993 504.33987327608065 L 994 503.89500796171717 L 995 503.33693645447795 L 996 502.66627877640263 L 997 501.8837800336943 L 998 500.9903095888992 L 999 499.98686009503865 L 1000 498.8745463927626 L 1001 497.654604271754 L 1002 496.3283890977543 L 1003 494.89737430674234 L 1004 493.36314976793375 L 1005 491.7274200174252 L 1006 489.992002364438 L 1007 488.15882487227435 L 1008 486.2299242162235 L 1009 484.2074434207971 L 1010 482.09362947881255 L 1011 479.8908308549645 L 1012 477.6014948766635 L 1013 475.2281650150319 L 1014 472.7734780590887 L 1015 470.24016118625383 L 1016 467.63102893243416 L 1017 464.9489800650474 L 1018 462.1969943624699 L 1019 459.3781293034773 L 1020 456.49551667036246 L 1021 453.55235906949645 L 1022 450.5519263732079 L 1023 447.49755208693006 L 1024 444.3926296456448 L 1025 441.2406086437512 L 1026 438.0449910025362 L 1027 434.8093270795141 L 1028 431.5372117239461 L 1029 428.2322802829356 L 1030 424.8982045625266 L 1031 421.5386887482994 L 1032 418.15746528998625 L 1033 414.758290754691 L 1034 411.34494165331154 L 1035 407.92121024480724 L 1036 404.49090032296414 L 1037 401.05782299035076 L 1038 397.625792424154 L 1039 394.19862163859233 L 1040 390.7801182486288 L 1041 387.3740802396778 L 1042 383.9842917480149 L 1043 380.61451885656606 L 1044 377.26850541076124 L 1045 373.94996885908995 L 1046 370.6625961229883 L 1047 367.4100395006344 L 1048 364.1959126092181 L 1049 361.02378637018114 L 1050 357.8971850418964 L 1051 354.8195823041844 L 1052 351.79439739902773 L 1053 348.82499133176754 L 1054 345.9146631369947 L 1055 343.0666462132981 L 1056 340.28410473093066 L 1057 337.5701301163927 L 1058 334.92773761782786 L 1059 332.3598629550603 L 1060 329.8693590579843 L 1061 327.45899289693807 L 1062 325.1314424085736 L 1063 322.8892935206492 L 1064 320.73503727904114 L 1065 318.67106708017366 L 1066 316.6996760119324 L 1067 314.82305430602685 L 1068 313.0432869046255 L 1069 311.3623511439662 L 1070 309.7821145575201 L 1071 308.3043328011466 L 1072 306.93064770254614 L 1073 305.66258543717413 L 1074 304.50155483264905 L 1075 303.44884580353255 L 1076 302.5056279182246 L 1077 301.6729490995624 L 1078 300.9517344605698 L 1079 300.34278527664947 L 1080 299.84677809535907 L 1081 299.46426398476126 L 1082 299.1956679211825 L 1083 299.0412883170613 L 1084 299.00129668940895 L 1085 299.075737469253 L 1086 299.26452795227425 L 1087 299.5674583906914 L 1088 299.9841922262929 L 1089 300.514266464356 L 1090 301.15709218803755 L 1091 301.9119552126651 L 1092 302.7780168792026 L 1093 303.7543149860073 L 1094 304.8397648578435 L 1095 306.03316055096536 L 1096 307.3331761929312 L 1097 308.7383674556586 L 1098 310.24717316008326 L 1099 311.857917010644 L 1100 313.5688094576594 L 1101 315.3779496855335 L 1102 317.2833277245754 L 1103 319.2828266840945 L 1104 321.3742251042826 L 1105 323.5551994242741 L 1106 325.8233265636399 L 1107 328.1760866144523 L 1108 330.6108656409215 L 1109 333.1249585835011 L 1110 335.7155722642291 L 1111 338.3798284899749 L 1112 341.11476725013415 L 1113 343.91735000522294 L 1114 346.7844630627238 L 1115 349.71292103642116 L 1116 352.6994703853933 L 1117 355.7407930287201 L 1118 358.83351003190245 L 1119 361.97418536088367 L 1120 365.1593296995126 L 1121 368.38540432620056 L 1122 371.6488250454735 L 1123 374.94596617004044 L 1124 378.2731645489632 L 1125 381.6267236374444 L 1126 385.0029176037233 L 1127 388.3979954685036 L 1128 391.8081852723202 L 1129 395.2296982662213 L 1130 398.65873312109704 L 1131 402.0914801509889 L 1132 405.524125545679 L 1133 408.95285560786925 L 1134 412.37386099022757 L 1135 415.7833409276053 L 1136 419.17750745971614 L 1137 422.5525896395951 L 1138 425.90483772314906 L 1139 429.23052733515453 L 1140 432.52596360706667 L 1141 435.78748528205256 L 1142 439.0114687826757 L 1143 442.1943322367184 L 1144 445.33253945667553 L 1145 448.42260386848466 L 1146 451.46109238514066 L 1147 454.4446292208805 L 1148 457.36989964171306 L 1149 460.2336536481134 L 1150 463.0327095858 L 1151 465.7639576805768 L 1152 468.4243634933213 L 1153 471.01097129126913 L 1154 473.5209073318583 L 1155 475.95138305547937 L 1156 478.29969818359064 L 1157 480.5632437187486 L 1158 482.73950484322415 L 1159 484.8260637129886 L 1160 486.82060214395636 L 1161 488.7209041875074 L 1162 490.524858592423 L 1163 492.23046115050545 L 1164 493.8358169232684 L 1165 495.3391423472296 L 1166 496.73876721546367 L 1167 498.0331365332175 L 1168 499.22081224552073 L 1169 500.3004748348778 L 1170 501.27092478726104 L 1171 502.1310839247828 L 1172 502.87999660355854 L 1173 503.5168307754352 L 1174 504.0408789124041 L 1175 504.45155879266986 L 1176 504.7484141475039 L 1177 504.9311151681626 L 1178 504.9994588723076 L 1179 504.95336932952085 L 1180 504.7928977456639 L 1181 504.51822240598773 L 1182 504.12964847705655 L 1183 503.627607667705 L 1184 503.012657749406 L 1185 502.28548193658276 L 1186 501.44688812755095 L 1187 500.4978080069374 L 1188 499.4392960105715 L 1189 498.27252815399714 L 1190 496.9988007259103 L 1191 495.61952884797165 L 1192 494.1362449025953 L 1193 492.5505968304582 L 1194 490.8643462996249 L 1195 489.07936674832 L 1196 487.19764130352377 L 1197 485.22126057769947 L 1198 483.15242034610765 L 1199 480.99341910728043 L 1200 478.7466555293729 L 1201 476.41462578522015 L 1202 473.9999207790699 L 1203 471.5052232680683 L 1204 468.9333048816916 L 1205 466.2870230424449 L 1206 463.56931779124125 L 1207 460.78320852099415 L 1208 457.9317906220438 L 1209 455.0182320431553 L 1210 452.0457697719002 L 1211 449.0177062383391 L 1212 445.937405645991 L 1213 442.8082902341781 L 1214 439.6338364758882 L 1215 436.41757121538734 L 1216 433.1630677498628 L 1217 429.8739418594626 L 1218 426.5538477901359 L 1219 423.2064741937315 L 1220 419.83554002987813 L 1221 416.44479043418835 L 1222 413.03799255738477 L 1223 409.61893137996015 L 1224 406.19140550703605 L 1225 402.75922294807987 L 1226 399.3261968861774 L 1227 395.8961414415512 L 1228 392.47286743404425 L 1229 389.0601781492662 L 1230 385.66186511311497 L 1231 382.2817038793556 L 1232 378.9234498349511 L 1233 375.59083402779913 L 1234 372.2875590215023 L 1235 369.0172947817926 L 1236 365.7836745991679 L 1237 362.590291052279 L 1238 359.4406920165409 L 1239 356.33837672241697 L 1240 353.28679186774355 L 1241 350.2893277884231 L 1242 347.34931469172903 L 1243 344.4700189564205 L 1244 341.65463950376784 L 1245 338.9063042435266 L 1246 336.2280665988009 L 1247 333.6229021136668 L 1248 331.09370514731995 L 1249 328.6432856584155 L 1250 326.27436608318305 L 1251 323.98957831077644 L 1252 321.7914607592254 L 1253 319.682455555229 L 1254 317.66490582093513 L 1255 315.7410530707111 L 1256 313.9130347208047 L 1257 312.1828817146548 L 1258 310.55251626649766 L 1259 309.02374972577076 L 1260 307.59828056468973 L 1261 306.2776924912299 L 1262 305.06345268961473 L 1263 303.95691019026265 L 1264 302.95929437100176 L 1265 302.0717135912219 L 1266 301.2951539604778 L 1267 300.630478242914 L 1268 300.07842489872564 L 1269 299.6396072637238 L 1270 299.3145128679143 L 1271 299.10350289384786 L 1272 299.00681177534324 L 1273 299.02454693702913 L 1274 299.15668867499505 L 1275 299.40309017868185 L 1276 299.76347769399 L 1277 300.2374508274227 L 1278 300.8244829909256 L 1279 301.52392198693144 L 1280 302.3349907329562 L 1281 303.25678812494476 L 1282 304.2882900384039 L 1283 305.4283504662142 L 1284 306.6757027918529 L 1285 308.02896119661557 L 1286 309.48662219927064 L 1287 311.04706632644184 L 1288 312.70855991185476 L 1289 314.46925702245517 L 1290 316.3272015092544 L 1291 318.28032918062917 L 1292 320.3264700956545 L 1293 322.4633509749244 L 1294 324.6885977261869 L 1295 326.999738081978 L 1296 329.39420434633246 L 1297 331.8693362475128 L 1298 334.4223838935965 L 1299 337.0505108276262 L 1300 339.7507971789382 L 1301 342.52024290716014 L 1302 345.35577113528416 L 1303 348.2542315681004 L 1304 351.21240399220187 L 1305 354.2270018536658 L 1306 357.2946759094457 L 1307 360.4120179484063 L 1308 363.57556457787194 L 1309 366.7818010714884 L 1310 370.0271652741104 L 1311 373.30805155938634 L 1312 376.6208148356361 L 1313 379.9617745955823 L 1314 383.32721900542145 L 1315 386.7134090287028 L 1316 390.11658258042644 L 1317 393.53295870675436 L 1318 396.9587417856789 L 1319 400.39012574399135 L 1320 403.8232982858576 L 1321 407.2544451283148 L 1322 410.6797542389686 L 1323 414.09542007119086 L 1324 417.49764779211716 L 1325 420.88265749873466 L 1326 424.2466884173871 L 1327 427.58600308202193 L 1328 430.8968914865508 L 1329 434.17567520669354 L 1330 437.41871148673937 L 1331 440.6223972866757 L 1332 443.7831732851996 L 1333 446.89752783414997 L 1334 449.96200085997924 L 1335 452.9731877079207 L 1336 455.927742924592 L 1337 458.8223839748195 L 1338 461.6538948885599 L 1339 464.4191298338732 L 1340 467.11501661196564 L 1341 469.73856007042855 L 1342 472.28684543087553 L 1343 474.75704152728844 L 1344 477.1464039514639 L 1345 479.45227810207456 L 1346 481.6721021339509 L 1347 483.8034098043154 L 1348 485.8438332127964 L 1349 487.7911054321864 L 1350 489.6430630270142 L 1351 491.39764845714296 L 1352 493.0529123637125 L 1353 494.60701573489195 L 1354 496.0582319490394 L 1355 497.4049486929913 L 1356 498.6456697533561 L 1357 499.7790166788188 L 1358 500.8037303116132 L 1359 501.7186721864555 L 1360 502.52282579538905 L 1361 503.2152977171324 L 1362 503.7953186096786 L 1363 504.26224406504 L 1364 504.6155553251911 L 1365 504.85485985841234 L 1366 504.97989179539695 L 1367 504.99051222463333 L 1368 504.8867093467372 L 1369 504.6685984875606 L 1370 504.33642197006407 L 1371 503.89054884509375 L 1372 503.33147448136305 L 1373 502.65982001509354 L 1374 501.8763316599278 L 1375 500.9818798778798 L 1376 499.9774584122448 L 1377 498.8641831835416 L 1378 497.64329104971637 L 1379 496.3161384319826 L 1380 494.8841998078274 L 1381 493.3490660728526 L 1382 491.71244277327844 L 1383 489.9761482110676 L 1384 488.14211142377553 L 1385 486.21237004137487 L 1386 484.189068022431 L 1387 482.0744532721482 L 1388 479.870875144926 L 1389 477.58078183420855 L 1390 475.2067176525207 L 1391 472.75132020471807 L 1392 470.217317457583 L 1393 467.60752470903327 L 1394 464.9248414603016 L 1395 462.1722481945684 L 1396 459.35280306561697 L 1397 456.4696385002009 L 1398 453.52595771789447 L 1399 450.52503117228514 L 1400 447.4701929174755 L 1401 444.36483690392043 L 1402 441.21241320772253 L 1403 438.01642419756547 L 1404 434.7804206435563 L 1405 431.5079977722888 L 1406 428.20279127252036 L 1407 424.86847325588747 L 1408 421.5087481771623 L 1409 418.1273487185714 L 1410 414.7280316427581 L 1411 411.3145736189837 L 1412 407.8907670272192 L 1413 404.4604157447821 L 1414 401.0273309201928 L 1415 397.59532673896047 L 1416 394.1682161859896 L 1417 390.7498068093258 L 1418 387.34389648993385 L 1419 383.95426922222384 L 1420 380.5846909100005 L 1421 377.2389051825162 L 1422 373.9206292352634 L 1423 370.6335497001432 L 1424 367.38131854958505 L 1425 364.1675490391783 L 1426 360.9958116933114 L 1427 357.8696303382918 L 1428 354.79247818734814 L 1429 351.76777398185743 L 1430 348.79887819309823 L 1431 345.889089288738 L 1432 343.0416400682105 L 1433 340.25969407104583 L 1434 337.5463420621542 L 1435 334.9045985979593 L 1436 332.33739867720385 L 1437 329.8475944801382 L 1438 327.4379521997269 L 1439 325.1111489683848 L 1440 322.86976988366234 L 1441 320.7163051361782 L 1442 318.65314724299867 L 1443 316.6825883895325 L 1444 314.80681788289155 L 1445 313.02791971955435 L 1446 311.3478702700278 L 1447 309.7685360830851 L 1448 308.2916718120123 L 1449 306.91891826517525 L 1450 305.651800583068 L 1451 304.4917265438696 L 1452 303.43998499938976 L 1453 302.49774444314465 L 1454 301.66605171215076 L 1455 300.945830823881 L 1456 300.33788194967246 L 1457 299.8428805257304 L 1458 299.46137650271294 L 1459 299.1937937347309 L 1460 299.0404295084429 L 1461 299.0014542127672 L 1462 299.0769111495783 L 1463 299.2667164855979 L 1464 299.5706593455349 L 1465 299.98840204636923 L 1466 300.5194804725203 L 1467 301.16330459148367 L 1468 301.9191591093617 L 1469 302.7862042655614 L 1470 303.7634767657744 L 1471 304.84989085220593 L 1472 306.0442395098605 L 1473 307.3451958075443 L 1474 308.75131437209853 L 1475 310.2610329942195 L 1476 311.872674364087 L 1477 313.58444793486774 L 1478 315.3944519120298 L 1479 317.3006753662504 L 1480 319.30100046757605 L 1481 321.3932048383471 L 1482 323.57496402228026 L 1483 325.8438540669571 L 1484 328.19735421685573 L 1485 330.6328497139293 L 1486 333.14763470262665 L 1487 335.7389152361184 L 1488 338.40381238039345 L 1489 341.1393654127816 L 1490 343.9425351113386 L 1491 346.81020713144795 L 1492 349.739195465881 L 1493 352.72624598448056 L 1494 355.7680400495244 L 1495 358.8611982027601 L 1496 362.00228392000804 L 1497 365.18780742917255 L 1498 368.4142295874045 L 1499 371.67796581311967 L 1500 374.97539006849536 L 1501 378.3028388880326 L 1502 381.65661544869477 L 1503 385.03299367710537 L 1504 388.4282223892516 L 1505 391.83852945807683 L 1506 395.26012600434717 L 1507 398.6892106061238 L 1508 402.121973522179 L 1509 405.5546009246467 L 1510 408.9832791362183 L 1511 412.40419886716666 L 1512 415.8135594475027 L 1513 419.20757304954805 L 1514 422.58246889624445 L 1515 425.9344974505149 L 1516 429.2599345810349 L 1517 432.5550856997706 L 1518 435.81628986669455 L 1519 439.0399238571244 L 1520 442.22240618715244 L 1521 445.36020109270544 L 1522 448.44982245780443 L 1523 451.48783768767277 L 1524 454.47087152237424 L 1525 457.395609786756 L 1526 460.258803072522 L 1527 463.0572703483562 L 1528 465.7879024940717 L 1529 468.44766575487057 L 1530 471.0336051118676 L 1531 473.5428475651445 L 1532 475.9726053256744 L 1533 478.32017891257715 L 1534 480.58296015226756 L 1535 482.75843507615605 L 1536 484.84418671368917 L 1537 486.8378977776221 L 1538 488.7373532385466 L 1539 490.5404427858049" stroke-linecap="round" stroke-linejoin="round" stroke-miterlimit="10" stroke-width="8"/></g></svg>