<svg version="1.1" xmlns="http://www.w3.org/2000/svg" xmlns:xlink="http://www.w3.org/1999/xlink" width="1560" height="804"><defs/><g><path fill="none" stroke="#cf213e" paint-order="fill stroke markers" d=" M 20 421.97617649269364 L 21 422.8482676477169 L 22 423.70232526918636 L 23 424.53761060618825 L 24 425.3534011456387 L 25 426.1489912372499 L 26 426.9236927039102 L 27 427.6768354369502 L 28 428.40776797577973 L 29 429.11585807139426 L 30 429.8004932332639 L 31 430.46108125913133 L 32 431.09705074726037 L 33 431.70785159069266 L 34 432.2929554530843 L 35 432.85185622571134 L 36 433.38407046524867 L 37 433.8891378119431 L 38 434.36662138782015 L 39 434.8161081745785 L 40 435.237209370847 L 41 435.6295607284932 L 42 435.9928228676946 L 43 436.32668157049875 L 44 436.6308480526179 L 45 436.9050592132251 L 46 437.1490778625332 L 47 437.3626929269617 L 48 437.545719631713 L 49 437.6979996606011 L 50 437.819401292993 L 51 437.909819517746 L 52 437.96917612404076 L 53 437.99741976903357 L 54 437.99452602226677 L 55 437.96049738680097 L 56 437.89536329705015 L 57 437.79918009332096 L 58 437.67203097307913 L 59 437.5140259189843 L 60 437.32530160375643 L 61 437.1060212719551 L 62 436.85637459877483 L 63 436.57657752597794 L 64 436.26687207510724 L 65 435.9275261381399 L 66 435.5588332457636 L 67 435.16111231347566 L 68 434.73470736572455 L 69 434.2799872383321 L 70 433.79734525945463 L 71 433.2871989093579 L 72 432.7499894593015 L 73 432.1861815898433 L 74 431.5962629888959 L 75 430.98074392988184 L 76 430.3401568303521 L 77 429.6750557914506 L 78 428.9860161186226 L 79 428.2736338239815 L 80 427.5385251107644 L 81 426.78132584032295 L 82 426.00269098210975 L 83 425.20329404713686 L 84 424.3838265053957 L 85 423.5449971877424 L 86 422.6875316727673 L 87 421.8121716591762 L 88 420.9196743242293 L 89 420.0108116687906 L 90 419.0863698495552 L 91 418.147148499032 L 92 417.19396003387004 L 93 416.22762895212634 L 94 415.248991120084 L 95 414.25889304923635 L 96 413.25819116406365 L 97 412.2477510612345 L 98 411.22844676087414 L 99 410.2011599505458 L 100 409.1667792226005 L 101 408.1261993055539 L 102 407.0803202901552 L 103 406.03004685081856 L 104 404.97628746308874 L 105 403.9199536178194 L 106 402.861959032743 L 107 401.8032188621149 L 108 400.7446489051137 L 109 399.68716481368534 L 110 398.63168130051326 L 111 397.5791113478016 L 112 396.5303654175553 L 113 395.48635066403955 L 114 394.44797014910154 L 115 393.4161220610307 L 116 392.3916989376356 L 117 391.37558689420797 L 118 390.3686648570423 L 119 389.3718038031737 L 120 388.38586600699193 L 121 387.411704294383 L 122 386.45016130504393 L 123 385.5020687636078 L 124 384.5682467602109 L 125 383.6495030411236 L 126 382.7466323100575 L 127 381.860415540756 L 128 380.9916193014593 L 129 380.14099509183154 L 130 379.309278692921 L 131 378.49718953071743 L 132 377.70543005385605 L 133 376.93468512600674 L 134 376.18562143347424 L 135 375.45888690852144 L 136 374.7551101689146 L 137 374.0748999741757 L 138 373.41884469901197 L 139 372.7875118243774 L 140 372.1814474466084 L 141 371.60117580505533 L 142 371.04719882862173 L 143 370.5199957016006 L 144 370.020022449185 L 145 369.54771154301125 L 146 369.1034715270753 L 147 368.6876866643467 L 148 368.3007166043847 L 149 367.94289607224556 L 150 367.6145345789487 L 151 367.3159161537529 L 152 367.04729909847396 L 153 366.8089157640565 L 154 366.60097234959255 L 155 366.42364872396155 L 156 366.2770982702459 L 157 366.16144775305594 L 158 366.0767972088799 L 159 366.02321985955354 L 160 366.0007620489239 L 161 366.0094432027623 L 162 366.04925581196153 L 163 366.1201654390308 L 164 366.22211074788413 L 165 366.35500355689504 L 166 366.51872891517314 L 167 366.7131452019952 L 168 366.93808424930563 L 169 367.1933514871803 L 170 367.478726112127 L 171 367.7939612780788 L 172 368.13878430991275 L 173 368.51289693931136 L 174 368.91597556276133 L 175 369.34767152146753 L 176 369.80761140293885 L 177 370.29539736398635 L 178 370.8106074748534 L 179 371.35279608418034 L 180 371.92149420448857 L 181 372.5162099178495 L 182 373.1364288013887 L 183 373.78161437225606 L 184 374.45120855167795 L 185 375.1446321476896 L 186 375.8612853561299 L 187 376.6005482794659 L 188 377.36178146299767 L 189 378.14432644797995 L 190 378.9475063411819 L 191 379.77062640039287 L 192 380.6129746353671 L 193 381.4738224236878 L 194 382.35242514101793 L 195 383.2480228051925 L 196 384.15984073359505 L 197 385.0870902132504 L 198 386.0289691830527 L 199 386.98466292754006 L 200 387.95334478161493 L 201 388.93417684560075 L 202 389.92631071001654 L 203 390.92888818944186 L 204 391.94104206483865 L 205 392.96189683368647 L 206 393.9905694672829 L 207 395.02617017455435 L 208 396.06780317171575 L 209 397.1145674571146 L 210 398.1655575905876 L 211 399.2198644766569 L 212 400.2765761508885 L 213 401.33477856873185 L 214 402.39355639615854 L 215 403.4519938014171 L 216 404.50917524721746 L 217 405.56418628266164 L 218 406.61611433423354 L 219 407.6640494951663 L 220 408.70708531250136 L 221 409.7443195711614 L 222 410.7748550743565 L 223 411.7978004196504 L 224 412.8122707700139 L 225 413.8173886191999 L 226 414.812284550777 L 227 415.7960979901657 L 228 416.7679779490263 L 229 417.7270837613551 L 230 418.6725858106516 L 231 419.60366624752794 L 232 420.51951969714037 L 233 421.41935395583005 L 234 422.3023906763705 L 235 423.16786604123035 L 236 424.01503142326726 L 237 424.8431540332826 L 238 425.65151755387643 L 239 426.43942275905454 L 240 427.20618811905183 L 241 427.95115038984807 L 242 428.67366518686737 L 243 429.37310754236404 L 244 430.04887244601287 L 245 430.7003753682372 L 246 431.3270527658205 L 247 431.9283625693655 L 248 432.5037846521787 L 249 433.05282128017427 L 250 433.57499754240905 L 251 434.06986176187525 L 252 434.53698588619676 L 253 434.9759658578896 L 254 435.38642196386775 L 255 435.7679991638906 L 256 436.12036739766944 L 257 436.4432218703659 L 258 436.7362833162365 L 259 436.9992982401944 L 260 437.23203913708 L 261 437.4343046884509 L 262 437.6059199367196 L 263 437.74673643649066 L 264 437.8566323829639 L 265 437.9355127172945 L 266 437.98330920881807 L 267 437.999980514069 L 268 437.9855122125427 L 269 437.93991681916856 L 270 437.8632337734852 L 271 437.7555294055255 L 272 437.61689687844176 L 273 437.44745610792046 L 274 437.2473536584567 L 275 437.01676261657724 L 276 436.7558824411226 L 277 436.4649387907171 L 278 436.1441833285766 L 279 435.79389350482256 L 280 435.4143723164903 L 281 435.00594804543994 L 282 434.5689739743961 L 283 434.1038280813617 L 284 433.6109127126714 L 285 433.09065423496577 L 286 432.54350266638886 L 287 431.96993128732737 L 288 431.37043623102755 L 289 430.74553605444567 L 290 430.0957712897013 L 291 429.4217039765229 L 292 428.72391717608923 L 293 428.0030144666876 L 294 427.25961942162473 L 295 426.4943750698428 L 296 425.70794333970565 L 297 424.901004486438 L 298 424.0742565037116 L 299 423.22841451988825 L 300 422.36421017944093 L 301 421.48239101008915 L 302 420.5837197761953 L 303 419.66897381898144 L 304 418.73894438413714 L 305 417.7944359374004 L 306 416.83626546870323 L 307 415.86526178548365 L 308 414.8822647957761 L 309 413.88812478169984 L 310 412.8837016639736 L 311 411.86986425809346 L 312 410.84748952281603 L 313 409.81746180159877 L 314 408.78067205765205 L 315 407.73801710326495 L 316 406.69039882407253 L 317 405.63872339893385 L 318 404.58390051609666 L 319 403.52684258632684 L 320 402.46846395368243 L 321 401.4096801046157 L 322 400.3514068760869 L 323 399.29455966337486 L 324 398.24005262826955 L 325 397.1887979083318 L 326 396.14170482790394 L 327 395.0996791115534 L 328 394.063622100631 L 329 393.0344299736194 L 330 392.01299297094874 L 331 391.0001946249475 L 332 389.9969109955964 L 333 389.0040099127461 L 334 388.02235022545267 L 335 387.05278105908275 L 336 386.09614108082866 L 337 385.1532577742704 L 338 384.22494672361046 L 339 383.3120109082026 L 340 382.4152400079827 L 341 381.535409720404 L 342 380.6732810894669 L 343 379.829599847424 L 344 379.00509576972917 L 345 378.20048204378975 L 346 377.41645465206676 L 347 376.65369177005726 L 348 375.9128531796798 L 349 375.1945796985698 L 350 374.4994926257791 L 351 373.8281932043589 L 352 373.1812621012904 L 353 372.55925890521434 L 354 371.9627216423925 L 355 371.3921663113207 L 356 370.84808643639525 L 357 370.33095264101985 L 358 369.8412122405211 L 359 369.37928885522524 L 360 368.9455820440313 L 361 368.54046695879686 L 362 368.1642940198352 L 363 367.8173886128058 L 364 367.5000508072589 L 365 367.21255509707873 L 366 366.95515016304887 L 367 366.7280586577462 L 368 366.53147701294864 L 369 366.36557526972376 L 370 366.230496931345 L 371 366.12635883916283 L 372 366.0532510715383 L 373 366.01123686592604 L 374 366.0003525641747 L 375 366.02060758109144 L 376 366.0719843962985 L 377 366.15443856938776 L 378 366.2678987783616 L 379 366.41226688132537 L 380 366.5874180013794 L 381 366.7932006346359 L 382 367.02943678126854 L 383 367.29592209948026 L 384 367.5924260822568 L 385 367.91869225675293 L 386 368.27443840613864 L 387 368.659356813714 L 388 369.0731145290806 L 389 369.5153536561404 L 390 369.98569166267185 L 391 370.48372171121656 L 392 371.0090130109893 L 393 371.5611111905075 L 394 372.1395386906179 L 395 372.74379517758007 L 396 373.3733579758501 L 397 374.02768252018944 L 398 374.7062028267079 L 399 375.4083319824341 L 400 376.1334626529888 L 401 376.8809676079229 L 402 377.65020026326545 L 403 378.44049524081146 L 404 379.2511689436677 L 405 380.08152014755655 L 406 380.9308306073676 L 407 381.79836567843245 L 408 382.6833749519843 L 409 383.5850929042541 L 410 384.50273955864026 L 411 385.43552116038035 L 412 386.38263086314083 L 413 387.3432494269305 L 414 388.31654592673465 L 415 389.30167847125637 L 416 390.29779493114387 L 417 391.3040336760735 L 418 392.3195243200507 L 419 393.34338847428495 L 420 394.3747405069871 L 421 395.41268830943125 L 422 396.4563340676197 L 423 397.50477503888254 L 424 398.5571043327407 L 425 399.6124116953568 L 426 400.66978429689493 L 427 401.7283075211094 L 428 402.7870657564776 L 429 403.8451431881949 L 430 404.90162459034485 L 431 405.9555961175596 L 432 407.00614609548705 L 433 408.0523658093794 L 434 409.0933502901221 L 435 410.12819909702233 L 436 411.1560170966811 L 437 412.17591523727424 L 438 413.18701131757285 L 439 414.18843075003804 L 440 415.1793073173303 L 441 416.15878392157816 L 442 417.12601332575906 L 443 418.0801588865504 L 444 419.02039527801736 L 445 419.9459092055112 L 446 420.85590010916053 L 447 421.7495808563474 L 448 422.6261784225685 L 449 423.4849345600936 L 450 424.32510645384184 L 451 425.1459673639088 L 452 425.946807254189 L 453 426.72693340654996 L 454 427.48567102002573 L 455 428.22236379451306 L 456 428.9363744984639 L 457 429.62708552008405 L 458 430.2938994015609 L 459 430.93623935585833 L 460 431.5535497656314 L 461 432.14529666382924 L 462 432.7109681955715 L 463 433.2500750608972 L 464 433.7621509380039 L 465 434.24675288661155 L 466 434.7034617311009 L 467 435.1318824230963 L 468 435.53164438317805 L 469 435.90240182143003 L 470 436.2438340365444 L 471 436.55564569322456 L 472 436.83756707764746 L 473 437.08935433076283 L 474 437.3107896592292 L 475 437.5016815238024 L 476 437.66186480501534 L 477 437.7912009460044 L 478 437.8895780723597 L 479 437.9569110888956 L 480 437.9931417532567 L 481 437.998238726297 L 482 437.97219759918823 L 483 437.915040897233 L 484 437.826818060381 L 485 437.70760540046376 L 486 437.5575060351858 L 487 437.3766497989288 L 488 437.16519313044637 L 489 436.923318937546 L 490 436.6512364388759 L 491 436.3491809829529 L 492 436.01741384458836 L 493 435.6562219988886 L 494 435.2659178730239 L 495 434.84683907598276 L 496 434.3993481065432 L 497 433.9238320397155 L 498 433.42070219192595 L 499 432.89039376523306 L 500 432.3333654708816 L 501 431.7500991325226 L 502 431.141099269441 L 503 430.50689266015144 L 504 429.84802788674057 L 505 429.16507486034914 L 506 428.45862432820496 L 507 427.72928736263265 L 508 426.9776948324825 L 509 426.20449685743534 L 510 425.4103622456562 L 511 424.59597791528176 L 512 423.7620483002438 L 513 422.90929474094077 L 514 422.0384548602862 L 515 421.1502819256727 L 516 420.24554419740304 L 517 419.32502426415346 L 518 418.38951836604247 L 519 417.4398357058916 L 520 416.4767977492733 L 521 415.5012375139518 L 522 414.51399884933153 L 523 413.5159357065361 L 524 412.5079113997496 L 525 411.49079785945895 L 526 410.46547487824284 L 527 409.43282934976065 L 528 408.3937545015986 L 529 407.3491491226372 L 530 406.29991678560816 L 531 405.24696506551373 L 532 404.1912047545835 L 533 403.13354907444887 L 534 402.0749128862157 L 535 401.0162118991191 L 536 399.95836187844463 L 537 398.9022778534007 L 538 397.84887332562795 L 539 396.79905947902995 L 540 395.75374439160856 L 541 394.713832249986 L 542 393.6802225672928 L 543 392.6538094050985 L 544 391.63548060005763 L 545 390.6261169959402 L 546 389.6265916817114 L 547 388.63776923631804 L 548 387.6605049808379 L 549 386.69564423863477 L 550 385.7440216041636 L 551 384.80646022105407 L 552 383.8837710701009 L 553 382.9767522677732 L 554 382.08618837585243 L 555 381.21284972279443 L 556 380.35749173740385 L 557 379.52085429539534 L 558 378.7036610794098 L 559 377.90661895303526 L 560 377.1304173493785 L 561 376.3757276747116 L 562 375.6432027277131 L 563 374.93347613480404 L 564 374.2471618020672 L 565 373.58485338422526 L 566 372.9471237711354 L 567 372.3345245922458 L 568 371.74758573944155 L 569 371.18681490869426 L 570 370.65269716090967 L 571 370.14569450235575 L 572 369.66624548503154 L 573 369.2147648273246 L 574 368.79164305528366 L 575 368.39724616481806 L 576 368.0319153051147 L 577 367.69596648354786 L 578 367.38969029233596 L 579 367.11335165718236 L 580 366.8671896081175 L 581 366.6514170727402 L 582 366.4662206920378 L 583 366.3117606589434 L 584 366.1881705797708 L 585 366.0955573586465 L 586 366.0340011050384 L 587 366.0035550644624 L 588 366.0042455724252 L 589 366.0360720316447 L 590 366.09900691256644 L 591 366.19299577717635 L 592 366.3179573260892 L 593 366.4737834688715 L 594 366.6603394175389 L 595 366.8774638031463 L 596 367.12496881537004 L 597 367.402640364962 L 598 367.7102382689349 L 599 368.0474964583176 L 600 368.41412320830216 L 601 368.8098013905828 L 602 369.23418874766855 L 603 369.6869181889323 L 604 370.1675981081406 L 605 370.6758127221886 L 606 371.2111224307484 L 607 371.7730641965184 L 608 372.3611519457464 L 609 372.9748769886774 L 610 373.6137084595656 L 611 374.27709377586734 L 612 374.96445911621964 L 613 375.67520991678924 L 614 376.4087313855641 L 615 377.1643890341427 L 616 377.94152922655894 L 617 378.73947974467137 L 618 379.5575503696238 L 619 380.3950334788786 L 620 381.2512046583016 L 621 382.1253233287738 L 622 383.01663338678367 L 623 383.9243638584495 L 624 384.8477295664032 L 625 385.785931808961 L 626 386.73815905099144 L 627 387.70358762588563 L 628 388.68138244801924 L 629 389.67069773509394 L 630 390.6706777397292 L 631 391.6804574896753 L 632 392.6991635360057 L 633 393.72591470864035 L 634 394.7598228785494 L 635 395.7999937259749 L 636 396.84552751400855 L 637 397.8955198668543 L 638 398.9490625521044 L 639 400.0052442663503 L 640 401.0631514234515 L 641 402.1218689447768 L 642 403.1804810507391 L 643 404.23807205293394 L 644 405.2937271462014 L 645 406.34653319992196 L 646 407.3955795478663 L 647 408.4399587759106 L 648 409.47876750694115 L 649 410.5111071822663 L 650 411.5360848388593 L 651 412.5528138817633 L 652 413.56041485098547 L 653 414.5580161822218 L 654 415.5447549607501 L 655 416.5197776678432 L 656 417.48224091905274 L 657 418.43131219372884 L 658 419.366170555141 L 659 420.28600736058036 L 660 421.1900269608266 L 661 422.07744738837687 L 662 422.94750103383893 L 663 423.7994353099056 L 664 424.63251330233487 L 665 425.44601440737256 L 666 426.2392349550679 L 667 427.0114888179399 L 668 427.76210800447086 L 669 428.4904432369118 L 670 429.1958645129014 L 671 429.8777616504105 L 672 430.5355448155445 L 673 431.1686450327422 L 674 431.7765146769347 L 675 432.3586279472348 L 676 432.9144813217495 L 677 433.4435939931211 L 678 433.94550828442055 L 679 434.4197900450332 L 680 434.8660290261946 L 681 435.2838392358513 L 682 435.67285927254 L 683 436.03275263799605 L 684 436.3632080282208 L 685 436.6639396027567 L 686 436.9346872319357 L 687 437.1752167218891 L 688 437.3853200171228 L 689 437.56481538048297 L 690 437.71354755035685 L 691 437.83138787497245 L 692 437.91823442368093 L 693 437.9740120751257 L 694 437.99867258222133 L 695 437.99219461388697 L 696 437.9545837734975 L 697 437.88587259403675 L 698 437.78612050995656 L 699 437.6554138057667 L 700 437.4938655413999 L 701 437.30161545441587 L 702 437.0788298391299 L 703 436.82570140277016 L 704 436.54244909878764 L 705 436.2293179374641 L 706 435.88657877398026 L 707 435.51452807412943 L 708 435.1134876578772 L 709 434.683804420991 L 710 434.2258500349785 L 711 433.7400206255959 L 712 433.226736430203 L 713 432.6864414342628 L 714 432.11960298729804 L 715 431.52671139863924 L 716 430.90827951331227 L 717 430.26484226843223 L 718 429.59695623048924 L 719 428.90519911392346 L 720 428.1901692814087 L 721 427.4524852262747 L 722 426.6927850375169 L 723 425.9117258478561 L 724 425.1099832653258 L 725 424.28825078887775 L 726 423.44723920851345 L 727 422.5876759904571 L 728 421.7103046479061 L 729 420.815884097899 L 730 419.9051880048609 L 731 418.9790041113911 L 732 418.03813355687447 L 733 417.08339018450437 L 734 416.1155998373162 L 735 415.1355996438426 L 736 414.14423729400517 L 737 413.14237030587225 L 738 412.13086528391426 L 739 411.11059716940053 L 740 410.0824484835833 L 741 409.04730856432707 L 742 408.00607279683976 L 743 406.9596418391747 L 744 405.90892084317 L 745 404.85481867150247 L 746 403.7982471115301 L 747 402.74012008660645 L 748 401.6813528655455 L 749 400.62286127092443 L 750 399.56556088690667 L 751 398.51036626727034 L 752 397.4581901443301 L 753 396.40994263943185 L 754 395.36653047570843 L 755 394.3288561937728 L 756 393.29781737103053 L 757 392.2743058452839 L 758 391.25920694330244 L 759 390.25339871502365 L 760 389.2577511740498 L 761 388.2731255450945 L 762 387.3003735190331 L 763 386.3403365161981 L 764 385.3938449585603 L 765 384.46171755142166 L 766 383.54476057524437 L 767 382.64376718822643 L 768 381.7595167402279 L 769 380.8927740986419 L 770 380.04428898679174 L 771 379.21479533542873 L 772 378.40501064788907 L 773 377.61563537946165 L 774 376.84735233150076 L 775 376.100826060811 L 776 375.37670230481166 L 777 374.6756074229814 L 778 373.99814785506305 L 779 373.3449095965005 L 780 372.7164576915579 L 781 372.1133357445628 L 782 371.53606544969387 L 783 370.98514613972105 L 784 370.4610543540879 L 785 369.96424342670963 L 786 369.49514309384455 L 787 369.05415912237623 L 788 368.64167295882976 L 789 368.25804139942403 L 790 367.9035962814474 L 791 367.57864419622115 L 792 367.2834662239018 L 793 367.0183176903495 L 794 366.7834279462736 L 795 366.5790001688471 L 796 366.4052111859603 L 797 366.2622113232664 L 798 366.15012427415166 L 799 366.06904699274173 L 800 366.0190496100374 L 801 366.00017537325203 L 802 366.0124406084031 L 803 366.05583470619035 L 804 366.130320131173 L 805 366.2358324542371 L 806 366.3722804083262 L 807 366.53954596738674 L 808 366.73748444845864 L 809 366.9659246368252 L 810 367.22466893411183 L 811 367.5134935292064 L 812 367.8321485918537 L 813 368.180358488756 L 814 368.5578220219929 L 815 368.9642126895543 L 816 369.39917896776154 L 817 369.8623446153314 L 818 370.35330899882086 L 819 370.8716474391712 L 820 371.41691157905046 L 821 371.9886297706783 L 822 372.58630748379596 L 823 373.2094277334302 L 824 373.8574515270795 L 825 374.5298183309373 L 826 375.22594655474757 L 827 375.94523405487456 L 828 376.68705865515045 L 829 377.4507786850517 L 830 378.23573353473665 L 831 379.041244226467 L 832 379.8666140019155 L 833 380.71112892485553 L 834 381.5740584987078 L 835 382.45465629841243 L 836 383.35216061607923 L 837 384.2657951198563 L 838 385.19476952544983 L 839 386.13828027971084 L 840 387.09551125570124 L 841 388.0656344586341 L 842 389.04781074208137 L 843 390.04119053382595 L 844 391.04491457073374 L 845 392.05811464200605 L 846 393.0799143401741 L 847 394.1094298191815 L 848 395.1457705589022 L 849 396.1880401354307 L 850 397.23533699648016 L 851 398.2867552412148 L 852 399.3413854038449 L 853 400.398315240306 L 854 401.45663051733897 L 855 402.5154158032939 L 856 403.57375525996724 L 857 404.63073343479397 L 858 405.6854360527029 L 859 406.7369508069563 L 860 407.7843681482848 L 861 408.8267820716386 L 862 409.8632908998721 L 863 410.8929980636852 L 864 411.91501287714635 L 865 412.9284513081269 L 866 413.932436742979 L 867 414.9261007447981 L 868 415.90858380461077 L 869 416.8790360848418 L 870 417.8366181544147 L 871 418.7805017148503 L 872 419.709870316737 L 873 420.6239200659502 L 874 421.52186031901306 L 875 422.4029143669942 L 876 423.2663201073534 L 877 424.1113307031516 L 878 424.9372152290581 L 879 425.7432593035919 L 880 426.5287657070558 L 881 427.29305498462276 L 882 428.03546603405823 L 883 428.755356677566 L 884 429.4521042172657 L 885 430.1251059738197 L 886 430.7737798077446 L 887 431.3975646229557 L 888 431.99592085210924 L 889 432.5683309233228 L 890 433.1142997078689 L 891 433.633354948457 L 892 434.1250476677304 L 893 434.5889525566276 L 894 435.02466834226936 L 895 435.4318181350567 L 896 435.8100497546752 L 897 436.15903603472833 L 898 436.4784751057323 L 899 436.76809065623036 L 900 437.0276321717991 L 901 437.25687515174104 L 902 437.4556213032751 L 903 437.6236987130581 L 904 437.7609619958878 L 905 437.8672924204595 L 906 437.9425980120676 L 907 437.98681363216275 L 908 437.99990103469577 L 909 437.9818488992002 L 910 437.9326728405847 L 911 437.85241539562566 L 912 437.74114598617405 L 913 437.5989608591057 L 914 437.42598300306906 L 915 437.22236204210117 L 916 436.9882741062044 L 917 436.72392167899613 L 918 436.4295334225621 L 919 436.1053639796664 L 920 435.7516937534881 L 921 435.3688286650752 L 922 434.9570998887267 L 923 434.5168635655295 L 924 434.04850049530063 L 925 433.55241580719934 L 926 433.0290386092944 L 927 432.4788216173902 L 928 431.90224076343264 L 929 431.2997947838322 L 930 430.672004788063 L 931 430.019413807908 L 932 429.3425863277424 L 933 428.64210779626063 L 934 427.9185841200691 L 935 427.1726411395835 L 936 426.4049240876834 L 937 425.61609703159263 L 938 424.8068422984675 L 939 423.97785988519195 L 940 423.1298668528865 L 941 422.26359670665886 L 942 421.37979876112877 L 943 420.47923749227954 L 944 419.56269187619336 L 945 418.6309547152463 L 946 417.68483195234126 L 947 416.72514197377706 L 948 415.7527149013517 L 949 414.76839187431665 L 950 413.7730243217993 L 951 412.7674732263266 L 952 411.7526083790833 L 953 410.72930762755215 L 954 409.69845611618524 L 955 408.66094552076237 L 956 407.617673277102 L 957 406.5695418047878 L 958 405.5174577265854 L 959 404.46233108422325 L 960 403.40507455121616 L 961 402.34660264341176 L 962 401.2878309279445 L 963 400.229675231279 L 964 399.17305084703037 L 965 398.11887174424425 L 966 397.06804977682356 L 967 396.021493894784 L 968 394.98010935802233 L 969 393.94479695327533 L 970 392.9164522149494 L 971 391.8959646504923 L 972 390.88421697097823 L 973 389.88208432757267 L 974 388.8904335545351 L 975 387.91012241941695 L 976 386.9419988811011 L 977 385.986900356327 L 978 385.04565299533317 L 979 384.11907096724667 L 980 383.2079557558344 L 981 382.3130954662292 L 982 381.4352641432258 L 983 380.5752211017414 L 984 379.73371027001525 L 985 378.9114595461193 L 986 378.1091801683332 L 987 377.3275660999312 L 988 376.56729342891106 L 989 375.82901978318466 L 990 375.1133837617374 L 991 374.4210043822459 L 992 373.75248054563497 L 993 373.1083905180339 L 994 372.4892914305831 L 995 371.8957187975205 L 996 371.32818605296825 L 997 370.7871841068169 L 998 370.27318092009403 L 999 369.78662110018234 L 1000 369.3279255162393 L 1001 368.89749093514945 L 1002 368.49568967832545 L 1003 368.12286929965364 L 1004 367.77935228486405 L 1005 367.46543577258296 L 1006 367.18139129731173 L 1007 366.92746455455176 L 1008 366.7038751882809 L 1009 366.51081660096344 L 1010 366.34845578625897 L 1011 366.2169331845748 L 1012 366.11636256158647 L 1013 366.04683090983133 L 1014 366.00839837346126 L 1015 366.0010981962184 L 1016 366.0249366926797 L 1017 366.07989324279504 L 1018 366.16592030972305 L 1019 366.2829434809502 L 1020 366.430861532657 L 1021 366.6095465172749 L 1022 366.81884387416045 L 1023 367.05857256328807 L 1024 367.3285252218479 L 1025 367.62846834361255 L 1026 367.95814248091745 L 1027 368.31726246908056 L 1028 368.70551767306654 L 1029 369.1225722561831 L 1030 369.56806547057585 L 1031 370.0416119692719 L 1032 370.5428021395007 L 1033 371.0712024570047 L 1034 371.6263558610334 L 1035 372.2077821496965 L 1036 372.81497839533273 L 1037 373.44741937953773 L 1038 374.1045580474721 L 1039 374.7858259810581 L 1040 375.4906338906559 L 1041 376.2183721247918 L 1042 376.96841119750195 L 1043 377.74010233282957 L 1044 378.5327780260105 L 1045 379.3457526208572 L 1046 380.17832290284457 L 1047 381.02976870738286 L 1048 381.8993535427528 L 1049 382.78632522716293 L 1050 383.6899165393793 L 1051 384.6093458823634 L 1052 385.5438179593461 L 1053 386.4925244617502 L 1054 387.45464476836963 L 1055 388.42934665519783 L 1056 389.41578701529266 L 1057 390.4131125880558 L 1058 391.42046069729327 L 1059 392.43695999742226 L 1060 393.4617312271751 L 1061 394.4938879701519 L 1062 395.5325374215606 L 1063 396.5767811604847 L 1064 397.6257159270069 L 1065 398.67843440352084 L 1066 399.7340259995497 L 1067 400.7915776393992 L 1068 401.8501745519568 L 1069 402.9089010619607 L 1070 403.96684138204813 L 1071 405.0230804049029 L 1072 406.07670449481265 L 1073 407.1268022779548 L 1074 408.1724654307256 L 1075 409.2127894654297 L 1076 410.2468745126535 L 1077 411.27382609964195 L 1078 412.29275592400904 L 1079 413.3027826221089 L 1080 414.30303253140744 L 1081 415.29264044619015 L 1082 416.2707503659569 L 1083 417.23651623585283 L 1084 418.18910267849736 L 1085 419.12768571657637 L 1086 420.0514534855746 L 1087 420.95960693602945 L 1088 421.85136052470085 L 1089 422.7259428940575 L 1090 423.58259753949335 L 1091 424.42058346369595 L 1092 425.239175817602 L 1093 426.03766652738346 L 1094 426.8153649069242 L 1095 427.5715982552563 L 1096 428.30571243844 L 1097 429.0170724553816 L 1098 429.7050629871034 L 1099 430.36908892898805 L 1100 431.0085759055383 L 1101 431.62297076720483 L 1102 432.2117420688557 L 1103 432.77438052947014 L 1104 433.31039947266225 L 1105 433.8193352476499 L 1106 434.3007476303085 L 1107 434.75422020395996 L 1108 435.17936071956893 L 1109 435.5758014350343 L 1110 435.9431994332818 L 1111 436.2812369188839 L 1112 436.5896214929495 L 1113 436.86808640604636 L 1114 437.11639078893575 L 1115 437.3343198609224 L 1116 437.5216851156374 L 1117 437.6783244840944 L 1118 437.80410247487714 L 1119 437.8989102913386 L 1120 437.96266592570873 L 1121 437.99531423003043 L 1122 437.9968269638616 L 1123 437.96720281870347 L 1124 437.9064674191318 L 1125 437.81467330063225 L 1126 437.6918998641577 L 1127 437.5382533074471 L 1128 437.3538665331657 L 1129 437.13889903394556 L 1130 436.8935367544261 L 1131 436.6179919304139 L 1132 436.31250290530096 L 1133 435.9773339239004 L 1134 435.61277490387687 L 1135 435.21914118497136 L 1136 434.7967732562355 L 1137 434.346036461512 L 1138 433.86732068341587 L 1139 433.3610400060903 L 1140 432.8276323570284 L 1141 432.2675591282698 L 1142 431.6813047773023 L 1143 431.06937640801 L 1144 430.4323033320351 L 1145 429.77063661092785 L 1146 429.0849485794847 L 1147 428.3758323506839 L 1148 427.64390130264997 L 1149 426.8897885480873 L 1150 426.11414638664496 L 1151 425.31764574068296 L 1152 424.5009755749332 L 1153 423.664842300551 L 1154 422.80996916407753 L 1155 421.9370956218379 L 1156 421.04697670032084 L 1157 420.1403823430876 L 1158 419.2180967447789 L 1159 418.2809176727955 L 1160 417.32965577723627 L 1161 416.3651338896959 L 1162 415.38818631152355 L 1163 414.3996580921608 L 1164 413.4004042981822 L 1165 412.39128927367295 L 1166 411.37318589257933 L 1167 410.34697480368226 L 1168 409.31354366884455 L 1169 408.2737863951938 L 1170 407.2286023619015 L 1171 406.1788956422296 L 1172 405.1255742215159 L 1173 404.06954921177726 L 1174 403.011734063607 L 1175 401.95304377604896 L 1176 400.894394105134 L 1177 399.83670077175907 L 1178 398.7808786696001 L 1179 397.72784107373707 L 1180 396.6784988506816 L 1181 395.6337596704856 L 1182 394.5945272216178 L 1183 393.5617004292816 L 1184 392.53617267785484 L 1185 391.5188310381204 L 1186 390.5105554999611 L 1187 389.51221821117605 L 1188 388.5246827230832 L 1189 387.54880324355486 L 1190 386.5854238981386 L 1191 385.6353779998963 L 1192 384.69948732859774 L 1193 383.77856141988923 L 1194 382.8733968650535 L 1195 381.98477662196746 L 1196 381.1134693378512 L 1197 380.26022868439645 L 1198 379.4257927058477 L 1199 378.61088318060285 L 1200 377.81620499688165 L 1201 377.0424455430052 L 1202 376.2902741128112 L 1203 375.56034132672335 L 1204 374.85327856897044 L 1205 374.1696974414459 L 1206 373.5101892346782 L 1207 372.87532441637137 L 1208 372.265652137956 L 1209 371.681699759579 L 1210 371.12397239394267 L 1211 370.59295246938734 L 1212 370.08909931259615 L 1213 369.6128487512822 L 1214 369.16461273720194 L 1215 368.7447789898214 L 1216 368.35371066094274 L 1217 367.99174602058207 L 1218 367.6591981643692 L 1219 367.35635474272283 L 1220 367.0834777120367 L 1221 366.8408031080895 L 1222 366.6285408418766 L 1223 366.44687451803907 L 1224 366.2959612760478 L 1225 366.17593165427945 L 1226 366.08688947710186 L 1227 366.02891176506745 L 1228 366.00204866829097 L 1229 366.0063234230703 L 1230 366.0417323317872 L 1231 366.10824476610594 L 1232 366.20580319346607 L 1233 366.3343232268479 L 1234 366.4936936977662 L 1235 366.6837767524298 L 1236 366.90440797098364 L 1237 367.15539650973034 L 1238 367.43652526620787 L 1239 367.74755106698086 L 1240 368.0882048779835 L 1241 368.4581920372306 L 1242 368.8571925096975 L 1243 369.28486116414695 L 1244 369.7408280716638 L 1245 370.22469882564036 L 1246 370.7360548829329 L 1247 371.274453925898 L 1248 371.8394302449921 L 1249 372.4304951416061 L 1250 373.0471373507837 L 1251 373.68882348346074 L 1252 374.3549984878408 L 1253 375.0450861295102 L 1254 375.7584894898732 L 1255 376.4945914824816 L 1256 377.2527553868072 L 1257 378.03232539899955 L 1258 378.832627199148 L 1259 379.6529685345624 L 1260 380.4926398185638 L 1261 381.35091474427 L 1262 382.2270509128436 L 1263 383.1202904756582 L 1264 384.02986078983054 L 1265 384.9549750865479 L 1266 385.8948331516157 L 1267 386.8486220176335 L 1268 387.8155166672036 L 1269 388.79468074656245 L 1270 389.78526728901875 L 1271 390.7864194475692 L 1272 391.7972712360634 L 1273 392.8169482782722 L 1274 393.8445685642149 L 1275 394.87924321308736 L 1276 395.92007724213545 L 1277 396.96617034080555 L 1278 398.0166176495037 L 1279 399.0705105422904 L 1280 400.1269374128312 L 1281 401.1849844629277 L 1282 402.2437364929428 L 1283 403.3022776934399 L 1284 404.3596924373471 L 1285 405.4150660719657 L 1286 406.4674857101352 L 1287 407.5160410198717 L 1288 408.55982501179426 L 1289 409.59793482366234 L 1290 410.62947250134147 L 1291 411.65354577552534 L 1292 412.6692688335379 L 1293 413.6757630855529 L 1294 414.672157924565 L 1295 415.6575914794551 L 1296 416.63121136050114 L 1297 417.5921753966846 L 1298 418.5396523641607 L 1299 419.47282270525795 L 1300 420.39087923738765 L 1301 421.2930278512473 L 1302 422.17848819771757 L 1303 423.0464943628557 L 1304 423.896295530404 L 1305 424.72715663123665 L 1306 425.5383589791879 L 1307 426.3292008927073 L 1308 427.09899830180814 L 1309 427.8470853397792 L 1310 428.5728149191537 L 1311 429.2755592914327 L 1312 429.954710590081 L 1313 430.60968135632584 L 1314 431.2399050473018 L 1315 431.8448365261049 L 1316 432.4239525333303 L 1317 432.9767521396863 L 1318 433.50275717929276 L 1319 434.00151266328953 L 1320 434.4725871733972 L 1321 434.91557323508965 L 1322 435.33008767005464 L 1323 435.7157719276396 L 1324 436.0722923949938 L 1325 436.3993406856404 L 1326 436.69663390622713 L 1327 436.9639149012263 L 1328 437.20095247537154 L 1329 437.4075415936393 L 1330 437.5835035586022 L 1331 437.7286861650001 L 1332 437.8429638313964 L 1333 437.92623770880425 L 1334 437.9784357661904 L 1335 437.99951285278087 L 1336 437.9894507371161 L 1337 437.948258122821 L 1338 437.8759706410763 L 1339 437.7726508197979 L 1340 437.63838802955104 L 1341 437.4732984062457 L 1342 437.27752475067996 L 1343 437.0512364050192 L 1344 436.7946291063166 L 1345 436.50792481720293 L 1346 436.19137153389084 L 1347 435.8452430716608 L 1348 435.469838828014 L 1349 435.0654835236967 L 1350 434.6325269218196 L 1351 434.1713435253168 L 1352 433.68233225300486 L 1353 433.1659160945219 L 1354 432.62254174444615 L 1355 432.05267921590945 L 1356 431.45682143404133 L 1357 430.8354838095936 L 1358 430.1892037931158 L 1359 429.5185404100651 L 1360 428.82407377725656 L 1361 428.1064046010671 L 1362 427.3661536578311 L 1363 426.60396125687566 L 1364 425.8204866866587 L 1365 425.01640764449274 L 1366 424.19241965034286 L 1367 423.34923544520973 L 1368 422.48758437461515 L 1369 421.60821175772713 L 1370 420.71187824266576 L 1371 419.7993591485509 L 1372 418.8714437948584 L 1373 417.92893481866855 L 1374 416.972647480392 L 1375 416.00340895857903 L 1376 415.0220576344174 L 1377 414.02944236654315 L 1378 413.02642175678545 L 1379 412.0138634074856 L 1380 410.99264317102995 L 1381 409.9636443922461 L 1382 408.92775714432014 L 1383 407.8858774588916 L 1384 406.8389065509962 L 1385 405.7877500395231 L 1386 404.73331716386537 L 1387 403.67651999743674 L 1388 402.6182726587381 L 1389 401.5594905206531 L 1390 400.5010894186625 L 1391 399.44398485865406 L 1392 398.38909122502093 L 1393 397.3373209897271 L 1394 396.2895839230305 L 1395 395.24678630654 L 1396 394.20983014929186 L 1397 393.1796124075213 L 1398 392.1570242088038 L 1399 391.1429500812409 L 1400 390.138267188351 L 1401 389.14384457033304 L 1402 388.1605423923549 L 1403 387.1892112005206 L 1404 386.23069118615626 L 1405 385.2858114590534 L 1406 384.35538933029716 L 1407 383.4402296053019 L 1408 382.54112388766214 L 1409 381.6588498944239 L 1410 380.7941707833671 L 1411 379.9478344928831 L 1412 379.12057309501495 L 1413 378.3131021622232 L 1414 377.52612014842293 L 1415 376.76030778482817 L 1416 376.0163274911273 L 1417 375.29482280249624 L 1418 374.5964178129479 L 1419 373.9217166354961 L 1420 373.27130287960597 L 1421 372.64573914637634 L 1422 372.0455665418966 L 1423 371.4713042091948 L 1424 370.92344887918506 L 1425 370.4024744410002 L 1426 369.90883153208284 L 1427 369.44294714838804 L 1428 369.00522427503716 L 1429 368.59604153773944 L 1430 368.21575287528475 L 1431 367.8646872333904 L 1432 367.5431482801662 L 1433 367.2514141434452 L 1434 366.9897371702056 L 1435 366.75834370829375 L 1436 366.5574339106348 L 1437 366.3871815621034 L 1438 366.24773392920116 L 1439 366.1392116326725 L 1440 366.0617085431695 L 1441 366.01529170005426 L 1442 366.00000125341074 L 1443 366.01585042931555 L 1444 366.0628255183972 L 1445 366.1408858876946 L 1446 366.2499640158046 L 1447 366.38996555128665 L 1448 366.56076939427624 L 1449 366.76222780123487 L 1450 366.9941665127468 L 1451 367.25638490425126 L 1452 367.54865615958107 L 1453 367.870727467156 L 1454 368.22232023866206 L 1455 368.6031303500278 L 1456 369.01282840448795 L 1457 369.4510600175088 L 1458 369.9174461233266 L 1459 370.4115833028358 L 1460 370.9330441325419 L 1461 371.4813775542792 L 1462 372.0561092653705 L 1463 372.6567421288941 L 1464 373.2827566037027 L 1465 373.93361119382007 L 1466 374.6087429168306 L 1467 375.3075677908519 L 1468 376.029481339674 L 1469 376.7738591156243 L 1470 377.5400572397092 L 1471 378.3274129585615 L 1472 379.13524521771603 L 1473 379.96285525071386 L 1474 380.80952718352927 L 1475 381.6745286537919 L 1476 382.5571114442733 L 1477 383.4565121300864 L 1478 384.3719527390415 L 1479 385.3026414245822 L 1480 386.24777315072555 L 1481 387.2065303884094 L 1482 388.17808382264644 L 1483 389.1615930698738 L 1484 390.15620740487464 L 1485 391.1610664966475 L 1486 392.1753011525832 L 1487 393.19803407030827 L 1488 394.2283805965411 L 1489 395.26544949230833 L 1490 396.308343703857 L 1491 397.3561611385978 L 1492 398.4079954454041 L 1493 399.46293679859684 L 1494 400.52007268493446 L 1495 401.57848869292775 L 1496 402.6372693037949 L 1497 403.6954986833767 L 1498 404.7522614743232 L 1499 405.8066435878681 L 1500 406.85773299450693 L 1501 407.90462051289137 L 1502 408.946400596263 L 1503 409.98217211574075 L 1504 411.01103913978955 L 1505 412.0321117091897 L 1506 413.04450660684364 L 1507 414.0473481217489 L 1508 415.03976880647997 L 1509 416.0209102275197 L 1510 416.9899237077964 L 1511 417.9459710607801 L 1512 418.888225315506 L 1513 419.8158714318946 L 1514 420.7281070057534 L 1515 421.62414296284805 L 1516 422.50320424144326 L 1517 423.36453046272374 L 1518 424.2073765885127 L 1519 425.0310135657231 L 1520 425.8347289569802 L 1521 426.6178275568735 L 1522 427.3796319933011 L 1523 428.11948331338965 L 1524 428.8367415534821 L 1525 429.5307862926999 L 1526 430.20101718959927 L 1527 430.84685450146156 L 1528 431.4677395857638 L 1529 432.0631353833995 L 1530 432.63252688322825 L 1531 433.1754215675555 L 1532 433.691349838155 L 1533 434.17986542246655 L 1534 434.6405457596171 L 1535 435.07299236593116 L 1536 435.47683117961543 L 1537 435.8517128843179 L 1538 436.1973132112835 L 1539 436.51333321984237" stroke-linecap="round" stroke-linejoin="round" stroke-miterlimit="10" stroke-width="12"/></g></svg>